{"glyphs":{"0":{"ha":766,"x_min":65,"x_max":709,"o":"m 709 434 q 610 121 709 258 q 365 -22 507 -22 q 146 89 227 -22 q 65 385 65 199 q 110 598 65 490 q 194 736 146 687 q 208 743 204 747 q 211 735 211 740 q 210 729 211 731 q 208 722 209 725 q 168 593 183 665 q 152 453 152 520 q 218 146 152 263 q 391 28 283 28 q 551 111 491 28 q 618 389 618 205 q 547 711 618 580 q 384 837 477 837 q 298 768 298 837 q 309 740 298 751 q 334 728 319 728 q 351 736 344 728 q 361 749 358 745 q 368 753 363 753 q 375 747 372 753 q 377 725 377 740 q 375 704 377 720 q 355 672 373 688 q 315 656 336 656 q 258 684 281 656 q 236 753 236 711 q 283 833 236 802 q 395 865 330 865 q 618 741 528 865 q 709 434 709 616 z "},"1":{"ha":442,"x_min":79,"x_max":321,"o":"m 319 833 q 279 696 292 749 q 251 530 260 621 q 241 311 241 439 q 258 151 241 218 q 305 43 272 92 q 309 35 309 39 q 301 26 309 30 q 272 19 286 22 q 240 9 258 16 q 210 -6 223 2 q 191 -16 196 -14 l 188 -18 l 182 -20 q 174 -12 176 -20 q 158 75 163 9 q 152 205 152 140 q 178 475 152 321 q 245 761 205 629 q 200 715 225 734 q 137 690 167 690 q 97 704 115 690 q 79 740 79 718 q 80 760 79 752 q 94 777 82 768 l 99 773 q 117 755 111 758 q 141 750 127 750 q 219 792 182 750 q 267 863 224 798 q 282 868 273 871 q 301 860 293 864 q 315 851 310 856 q 321 841 321 846 q 319 833 321 837 z "},"2":{"ha":673,"x_min":32,"x_max":583,"o":"m 581 114 q 563 82 572 98 q 549 48 555 65 q 541 17 543 32 q 536 -12 538 2 q 527 -22 533 -22 q 519 -20 524 -22 q 425 10 472 1 q 279 22 360 22 q 111 3 181 22 q 41 -23 106 1 q 32 -18 32 -26 l 33 -11 q 67 64 37 12 q 126 155 95 112 q 290 326 185 234 q 424 458 395 418 q 479 636 479 534 q 427 774 479 717 q 288 833 372 833 q 164 791 214 833 q 114 694 114 750 q 130 630 114 655 q 183 601 149 601 q 211 606 199 601 q 233 624 222 611 q 240 633 237 628 q 245 645 243 638 q 254 652 247 652 q 268 624 264 642 q 271 590 271 605 q 239 537 269 559 q 172 515 210 515 q 89 557 121 515 q 56 654 56 599 q 131 807 56 745 q 301 865 202 865 q 492 805 418 865 q 575 612 575 736 q 545 492 575 546 q 467 400 520 448 q 363 316 450 385 q 261 236 312 276 q 176 157 208 193 q 100 46 136 112 q 229 88 163 75 q 378 100 295 100 q 460 97 399 100 q 481 98 470 97 q 508 101 492 98 q 545 112 524 104 q 571 123 557 117 q 580 123 577 125 q 581 114 583 120 z "},"3":{"ha":697,"x_min":14,"x_max":617,"o":"m 617 320 q 512 83 617 182 q 231 -22 401 -22 q 84 16 146 -22 q 14 127 14 58 q 40 186 14 161 q 103 210 67 210 q 166 192 142 210 q 187 152 187 176 q 186 136 187 140 l 184 130 q 178 125 184 125 l 172 127 q 149 143 161 139 q 122 148 138 148 q 89 132 102 148 q 76 92 76 117 q 125 37 76 58 q 222 18 168 18 q 433 103 343 18 q 522 305 522 188 q 469 436 522 385 q 326 490 414 490 q 211 465 255 490 q 168 427 193 454 q 161 424 165 424 q 155 427 158 424 l 133 445 q 134 456 128 450 q 237 547 151 472 l 392 680 q 498 774 476 752 q 439 765 468 768 q 374 762 410 762 q 316 764 342 762 q 227 770 236 770 q 147 748 183 770 q 107 716 115 722 l 103 714 l 100 713 q 92 720 94 713 q 87 733 90 726 q 75 755 84 741 q 62 772 68 764 q 50 783 55 779 q 44 791 44 787 q 52 800 44 795 q 128 832 71 817 q 243 848 185 848 q 384 825 279 848 q 473 814 433 814 q 530 824 507 814 q 566 845 548 834 q 591 829 578 840 q 600 814 604 818 q 545 769 583 800 q 442 681 500 730 q 266 526 368 616 q 316 538 292 535 q 373 541 340 541 q 543 488 476 541 q 617 320 617 427 z "},"4":{"ha":772,"x_min":33,"x_max":724,"o":"m 724 395 q 669 292 724 334 q 547 252 616 252 l 526 252 q 491 253 502 252 q 461 260 481 254 q 469 172 461 210 q 483 117 471 160 q 505 62 492 85 q 524 37 512 50 l 527 32 l 528 28 q 525 22 528 24 l 519 20 l 509 20 q 486 18 497 20 q 456 8 475 16 q 423 -8 437 0 q 408 -19 417 -12 q 399 -23 403 -23 q 392 -16 395 -23 q 380 83 384 5 q 376 266 376 161 q 339 273 359 271 q 297 275 320 275 q 227 270 261 275 q 155 256 193 266 q 84 230 117 247 q 47 209 66 219 q 34 219 34 203 q 33 227 33 224 q 54 331 33 261 q 110 474 75 401 q 199 618 151 559 q 351 758 270 705 q 536 845 418 801 q 556 854 545 848 l 587 868 q 595 867 593 870 q 595 857 597 863 l 549 765 q 505 633 524 704 q 472 479 481 545 q 464 319 464 413 q 514 308 491 311 q 564 304 538 304 q 644 319 608 304 q 684 365 684 337 q 676 393 684 382 q 655 407 669 405 q 645 405 650 408 q 636 399 640 403 q 628 396 632 396 q 624 404 623 396 q 635 438 624 418 q 656 463 646 458 q 666 464 662 464 q 704 446 686 464 q 724 395 724 426 m 522 803 q 353 722 439 785 q 187 545 256 650 q 81 279 109 425 q 163 315 124 302 q 253 335 214 332 q 317 339 292 339 q 384 332 346 339 q 389 417 384 382 q 406 498 394 452 q 431 585 410 512 q 471 696 450 646 q 522 803 489 739 z "},"5":{"ha":669,"x_min":-3,"x_max":594,"o":"m 594 372 q 479 99 594 216 q 193 -22 360 -22 q 60 12 115 -22 q -3 117 -3 50 q 18 174 -3 149 q 69 199 39 199 q 120 187 100 199 q 141 148 141 174 q 129 109 141 123 q 121 104 125 104 q 111 111 117 104 q 104 121 109 117 q 83 127 96 127 q 66 118 73 127 q 60 96 60 108 q 110 31 60 54 q 209 11 151 11 q 418 114 330 11 q 507 351 507 218 q 460 506 507 439 q 331 578 410 578 q 245 564 283 578 q 184 513 200 546 q 180 497 182 505 q 173 475 178 490 q 163 472 170 471 l 113 477 q 103 495 101 480 l 115 570 q 121 661 121 617 q 118 821 118 800 q 119 837 118 827 l 123 844 q 136 848 127 848 q 264 821 197 831 q 401 810 331 810 q 460 816 440 810 q 490 850 490 825 q 484 875 490 867 q 474 882 480 880 q 468 888 468 885 q 474 897 468 893 q 491 901 481 901 q 513 902 500 902 q 560 882 540 902 q 581 836 581 863 q 530 766 581 790 q 431 746 490 746 q 283 760 359 746 q 161 791 233 770 q 161 727 161 768 q 160 661 160 686 q 149 529 160 592 q 240 616 184 587 q 362 644 295 644 q 531 572 469 644 q 594 372 594 500 z "},"6":{"ha":741,"x_min":83,"x_max":675,"o":"m 675 270 q 594 70 675 157 q 392 -22 509 -22 q 162 102 250 -22 q 83 372 83 214 q 199 711 83 564 q 494 865 320 865 q 596 841 555 865 q 652 761 644 813 q 653 751 653 758 q 629 702 653 724 q 575 681 605 681 q 539 687 556 681 q 511 704 522 692 q 507 713 507 709 q 517 720 507 719 q 551 736 538 720 q 562 769 562 749 q 535 812 562 798 q 475 827 509 827 q 260 707 345 827 q 171 382 171 582 q 235 146 171 243 q 423 39 306 39 q 567 109 509 39 q 623 269 623 176 q 570 417 623 353 q 435 483 515 483 q 367 467 401 483 q 320 425 332 452 q 316 411 317 419 q 315 399 315 404 q 316 380 316 385 q 308 371 316 371 q 300 376 304 371 q 288 393 294 385 q 264 422 279 407 q 246 438 254 433 q 236 446 239 444 q 232 456 232 450 q 235 465 232 460 q 296 523 254 496 q 422 560 355 560 q 606 474 534 560 q 675 270 675 391 z "},"7":{"ha":594,"x_min":37,"x_max":650,"o":"m 648 834 q 599 781 638 821 l 517 700 q 438 610 467 647 q 345 483 370 522 q 280 354 301 416 q 256 201 256 283 q 270 106 256 142 q 315 52 283 71 q 319 45 319 49 q 313 38 319 41 q 286 25 300 32 q 259 11 271 18 l 214 -18 l 206 -21 q 194 -14 201 -21 q 166 59 180 6 q 152 153 152 112 q 174 290 152 223 q 227 408 192 347 q 290 505 246 441 q 397 635 328 558 q 537 779 470 716 q 459 760 492 765 q 385 754 427 754 q 254 762 349 754 q 174 766 207 766 q 93 734 131 766 q 50 689 59 698 l 41 685 q 37 690 37 685 q 40 701 37 693 q 46 717 43 709 q 71 779 64 760 l 87 833 q 104 844 90 842 q 163 847 118 846 q 228 848 209 848 l 248 848 q 340 840 290 848 q 495 822 448 822 q 581 837 547 822 q 616 861 593 842 l 620 863 l 623 864 q 631 861 627 864 l 647 849 q 650 840 650 846 l 648 834 z "},"8":{"ha":719,"x_min":65,"x_max":690,"o":"m 690 883 l 688 865 q 599 794 670 813 q 500 784 560 784 q 378 795 467 784 q 300 802 331 802 q 204 767 243 802 q 164 686 164 732 q 252 557 164 610 q 391 498 255 556 q 489 554 439 526 q 543 629 543 590 q 532 669 543 655 q 515 681 525 678 q 505 687 505 683 q 511 696 505 691 q 548 707 526 707 q 592 685 574 707 q 610 633 610 663 q 519 524 610 574 q 434 480 476 502 q 590 391 530 450 q 661 228 661 321 q 564 45 661 117 q 351 -22 474 -22 q 145 46 226 -22 q 65 225 65 115 q 148 383 65 309 q 294 468 214 442 q 178 539 236 503 q 107 675 107 596 q 182 818 107 768 q 372 865 252 865 q 490 850 404 865 q 566 842 532 842 q 633 850 614 842 q 665 871 638 852 l 673 880 q 681 888 676 884 q 687 890 684 892 q 690 883 690 889 m 575 228 q 522 336 575 282 q 418 412 481 378 q 345 445 372 438 q 278 417 321 440 q 180 344 218 385 q 130 228 130 289 q 199 68 130 128 q 343 15 260 15 q 503 73 435 15 q 575 228 575 135 z "},"9":{"ha":739,"x_min":3,"x_max":658,"o":"m 658 473 q 505 50 658 233 q 155 -133 351 -133 q 54 -117 92 -133 q 3 -52 3 -96 q 21 -11 3 -26 q 66 5 40 5 q 92 2 80 5 q 110 -8 104 -2 q 116 -18 116 -14 q 107 -23 116 -22 q 92 -31 98 -24 q 85 -53 85 -39 q 115 -87 85 -77 q 174 -95 137 -95 q 442 50 323 -95 q 568 426 568 205 q 517 684 568 577 q 331 818 452 818 q 186 760 243 818 q 123 589 123 697 q 174 426 123 495 q 311 351 228 351 q 378 370 349 351 q 411 425 411 391 q 406 459 411 448 q 391 475 401 469 l 385 481 q 392 490 385 486 q 423 495 407 497 q 480 466 458 495 q 502 397 502 436 q 445 300 502 337 q 323 267 393 267 q 137 355 207 267 q 66 585 66 444 q 151 783 66 701 q 353 865 236 865 q 578 743 491 865 q 658 473 658 629 z "}," ":{"ha":347,"x_min":0,"x_max":0,"o":""},"!":{"ha":297,"x_min":68,"x_max":233,"o":"m 229 964 q 210 935 216 947 q 198 886 198 912 l 198 255 q 187 237 198 244 l 159 224 q 138 211 149 218 q 121 202 127 205 q 112 200 115 200 q 106 209 106 200 l 106 826 q 96 857 106 847 q 79 865 90 863 q 68 873 68 867 q 76 882 68 878 q 109 902 92 892 q 148 928 125 912 q 191 959 163 939 q 217 977 210 973 q 228 981 224 981 q 233 975 233 981 q 229 964 233 970 m 229 53 q 207 0 229 21 q 153 -22 185 -22 q 99 0 121 -22 q 77 53 77 21 q 99 107 77 85 q 153 129 121 129 q 207 107 184 129 q 229 53 229 85 z "},"\"":{"ha":441,"x_min":60,"x_max":382,"o":"m 380 956 q 373 910 376 929 q 361 821 366 859 q 352 734 357 783 q 342 632 347 686 q 327 628 340 628 q 313 632 313 628 q 306 703 313 640 q 293 812 299 767 l 275 959 q 289 968 273 971 q 302 967 290 968 q 327 966 314 966 q 347 966 340 966 q 359 968 354 967 q 367 969 365 969 q 370 969 370 969 q 380 956 382 969 m 167 956 q 160 910 163 929 q 149 821 153 859 q 139 734 144 783 q 129 632 134 686 q 114 628 127 628 q 100 632 100 628 q 93 703 100 640 q 80 812 86 767 l 62 959 q 76 968 60 971 q 89 967 77 968 q 114 966 101 966 q 134 966 127 966 q 146 968 141 967 q 154 969 152 969 q 157 969 157 969 q 167 956 169 969 z "},"#":{"ha":905,"x_min":29,"x_max":888,"o":"m 879 582 q 888 577 888 585 q 882 562 888 572 q 871 545 876 551 q 812 516 845 525 q 704 505 771 505 l 642 503 l 585 336 q 613 335 596 336 q 643 335 629 335 l 666 335 q 738 338 714 335 q 800 353 761 340 q 809 348 809 355 q 803 333 809 343 q 792 316 798 322 q 734 287 766 296 q 625 275 692 275 l 563 274 q 545 226 552 245 q 505 121 525 172 q 458 25 478 56 q 412 -20 437 -5 q 397 -26 404 -24 q 382 -28 389 -28 q 372 -22 372 -28 l 374 -16 q 416 58 399 20 q 452 151 428 85 q 481 238 465 186 q 492 274 486 252 l 323 274 q 306 226 313 245 q 266 121 286 170 q 219 25 239 56 q 174 -20 199 -5 q 158 -26 165 -24 q 143 -28 151 -28 q 133 -22 133 -28 l 136 -16 q 178 58 161 20 q 213 151 189 85 q 242 238 226 186 q 254 274 247 252 q 225 275 242 275 q 195 275 209 275 l 132 275 q 38 258 89 273 q 29 262 29 255 q 35 278 29 267 q 46 294 41 288 q 104 323 72 315 q 213 335 146 335 l 274 336 l 335 503 q 307 504 323 504 q 277 505 290 505 l 214 505 q 119 487 170 503 q 111 492 111 484 q 116 507 111 496 q 127 524 122 517 q 186 553 153 544 q 294 564 227 564 l 355 566 q 372 614 366 595 q 412 719 393 669 q 459 814 439 784 q 505 860 479 844 q 535 867 519 867 q 546 862 546 867 l 543 856 q 500 781 517 820 q 465 689 489 755 q 436 602 452 653 q 425 566 431 587 l 594 566 q 611 614 604 595 q 651 719 631 669 q 698 814 677 784 q 743 860 718 844 q 774 867 758 867 q 785 862 785 867 l 781 856 q 739 781 756 820 q 704 689 728 755 q 675 602 691 653 q 663 566 670 587 q 691 565 675 565 q 722 564 708 564 l 745 564 q 816 567 793 564 q 879 582 840 570 m 572 503 l 404 503 l 345 336 l 513 336 l 572 503 z "},"$":{"ha":690,"x_min":7,"x_max":639,"o":"m 639 224 q 560 66 639 134 q 374 -16 486 3 l 374 -133 l 347 -133 l 347 -19 q 322 -20 338 -19 q 298 -22 306 -22 l 298 -133 l 271 -133 l 271 -20 q 85 43 161 -20 q 7 213 7 110 q 64 343 7 292 q 186 391 116 391 q 249 374 227 391 q 271 328 271 357 l 271 518 q 156 598 194 560 q 106 704 106 648 q 156 812 106 770 q 271 860 200 849 l 271 949 l 298 949 l 298 863 q 328 865 313 865 q 347 864 341 865 l 347 949 l 374 949 l 374 861 q 455 840 427 855 q 491 781 491 819 q 476 745 491 761 q 441 730 461 730 l 431 729 q 421 730 426 729 q 410 731 416 730 q 404 737 404 732 l 408 745 q 418 759 415 753 q 423 784 423 770 q 411 817 425 804 q 374 834 397 829 l 374 562 q 509 484 465 517 q 604 380 572 437 q 639 224 639 315 m 347 576 l 347 840 q 323 842 336 842 q 310 841 317 842 q 298 840 302 840 l 298 602 l 347 576 m 271 617 l 271 836 q 200 802 227 825 q 171 734 171 774 q 199 669 171 698 q 271 617 216 652 m 571 227 q 515 369 571 310 q 374 464 473 413 l 374 28 q 514 96 460 44 q 571 227 571 151 m 347 24 l 347 479 l 298 503 l 298 22 q 323 23 307 22 q 347 24 339 24 m 271 23 l 271 328 q 258 292 271 307 q 233 275 247 279 q 227 275 230 274 l 224 279 q 232 302 232 289 q 217 339 228 329 q 178 353 202 353 q 87 320 124 353 q 43 212 43 281 q 111 81 43 133 q 271 23 174 32 z "},"%":{"ha":1112,"x_min":62,"x_max":1048,"o":"m 1048 251 q 989 64 1048 146 q 842 -22 927 -22 q 711 44 760 -22 q 662 222 662 110 q 688 349 662 286 q 738 431 709 401 q 749 435 745 439 q 749 423 752 433 q 734 366 742 406 q 724 263 724 312 q 761 92 724 157 q 857 27 798 27 q 945 73 913 27 q 983 227 983 125 q 943 403 983 331 q 852 475 903 475 q 842 475 846 475 q 815 469 826 475 q 802 452 804 463 q 807 435 800 441 q 823 429 814 429 q 840 439 832 429 q 841 444 840 444 q 848 438 844 446 q 849 430 849 435 q 848 418 849 426 q 837 395 848 405 q 811 385 825 385 q 778 401 791 385 q 765 442 765 418 q 793 491 765 471 q 860 510 821 510 q 994 435 939 510 q 1048 251 1048 360 m 958 850 q 935 847 947 849 q 909 837 923 845 q 858 794 886 825 q 808 735 835 770 q 723 617 777 694 q 632 488 706 593 q 541 361 581 414 q 432 214 477 275 q 345 102 378 144 q 283 35 304 54 q 223 -9 256 12 q 176 -35 197 -26 q 149 -45 161 -42 q 123 -50 136 -49 q 106 -46 114 -50 q 98 -37 98 -41 q 104 -30 98 -33 q 173 7 137 -16 q 229 56 208 31 q 328 174 276 108 q 409 284 368 227 q 487 392 465 363 q 567 502 502 412 q 651 617 602 549 q 728 720 694 675 q 786 786 755 753 q 810 810 795 796 q 705 770 761 783 q 579 758 650 758 q 391 792 465 758 q 449 605 449 724 q 389 418 449 500 q 243 332 328 332 q 111 398 160 332 q 62 576 62 464 q 88 703 62 640 q 138 785 109 755 q 149 789 146 793 q 149 777 153 787 q 135 720 142 760 q 125 617 125 666 q 161 446 125 511 q 258 381 198 381 q 346 427 313 381 q 384 581 384 479 q 346 754 384 685 q 252 829 307 823 q 241 829 248 829 q 214 824 225 829 q 202 806 203 818 q 208 789 200 795 q 224 783 215 783 q 234 785 231 783 q 238 792 235 786 q 243 798 241 798 q 248 792 245 798 q 250 784 250 789 q 248 772 250 780 q 237 749 248 759 q 212 739 226 739 q 178 755 191 739 q 165 796 165 772 q 194 845 165 825 q 260 864 222 864 q 293 860 279 864 q 328 848 308 857 q 439 808 381 824 q 582 788 515 788 q 716 803 654 788 q 830 845 779 819 q 860 858 844 852 q 893 867 877 864 q 929 869 909 869 q 955 866 949 869 q 960 856 960 863 q 958 850 960 852 z "},"&":{"ha":887,"x_min":53,"x_max":886,"o":"m 883 123 q 885 113 884 119 q 886 98 886 106 q 882 66 886 81 q 828 5 870 27 q 745 -14 791 -14 q 639 16 691 -14 q 585 50 618 27 q 486 -3 540 16 q 377 -22 433 -22 q 151 46 239 -22 q 53 258 53 121 q 115 435 53 361 q 243 519 166 494 q 185 627 189 617 q 152 755 152 699 q 214 916 152 857 q 354 970 271 970 q 480 911 436 970 q 525 753 525 853 q 461 617 525 684 q 336 528 410 564 q 404 416 359 485 q 503 273 459 332 q 609 146 560 197 l 631 178 q 671 275 656 218 q 679 337 679 304 q 665 421 679 381 q 616 500 648 467 q 583 492 603 498 q 552 479 564 486 q 533 461 540 473 q 526 437 526 450 q 527 426 526 432 q 536 412 529 419 q 554 404 544 404 q 566 407 560 404 q 577 416 574 412 q 581 425 581 420 q 586 431 583 431 l 593 427 l 602 411 l 604 401 q 578 365 604 376 q 565 361 572 362 q 552 359 558 359 q 518 372 533 359 q 495 403 503 385 q 486 444 486 422 q 503 505 486 477 q 551 549 520 532 q 650 586 590 571 q 738 608 694 597 q 787 655 787 625 q 785 667 787 661 q 757 688 778 688 q 732 680 745 688 q 723 670 727 677 q 715 663 718 663 q 708 670 711 663 q 705 687 705 677 q 714 713 705 701 q 732 727 724 725 q 746 730 741 730 q 754 731 751 731 q 800 711 781 731 q 821 673 814 694 q 825 643 825 656 q 770 555 825 591 q 652 511 726 528 q 705 448 680 494 q 739 315 739 385 q 736 278 739 298 q 704 191 731 239 q 646 114 677 143 q 696 82 665 97 q 772 62 738 62 q 791 64 777 62 q 828 79 809 66 q 857 104 846 92 l 871 127 l 877 131 q 883 123 881 131 m 463 739 q 465 771 465 755 q 437 878 465 833 q 347 929 406 929 q 254 884 288 929 q 222 786 222 842 q 222 774 222 779 q 225 757 222 768 q 259 664 231 722 q 316 562 286 605 q 416 640 376 593 q 463 739 456 687 m 548 88 q 440 215 505 129 q 333 369 385 288 q 263 486 283 446 q 193 427 231 479 q 142 258 142 356 q 217 80 142 148 q 369 20 283 20 q 460 36 416 20 q 548 88 513 54 z "},"'":{"ha":228,"x_min":60,"x_max":169,"o":"m 167 956 q 160 910 163 929 q 149 821 153 859 q 139 734 144 783 q 129 632 134 686 q 114 628 127 628 q 100 632 100 628 q 93 703 100 640 q 80 812 86 767 l 62 959 q 76 968 60 971 q 89 967 77 968 q 114 966 101 966 q 134 966 127 966 q 146 968 141 967 q 154 969 152 969 q 157 969 157 969 q 167 956 169 969 z "},"(":{"ha":384,"x_min":91,"x_max":403,"o":"m 403 -231 q 264 -170 323 -216 q 169 -44 205 -123 q 113 137 134 35 q 91 378 91 250 q 113 618 91 509 q 170 800 132 718 q 403 987 241 959 l 403 954 q 307 892 349 940 q 243 780 270 849 q 202 608 216 710 q 189 378 189 505 q 202 149 189 249 q 242 -22 215 50 q 306 -136 269 -93 q 403 -198 347 -184 l 403 -231 z "},")":{"ha":384,"x_min":-19,"x_max":293,"o":"m 293 378 q 272 142 293 248 q 215 -43 252 37 q 121 -170 179 -123 q -19 -231 62 -216 l -19 -198 q 78 -136 37 -184 q 141 -23 115 -94 q 181 149 168 47 q 195 378 195 252 q 182 608 195 509 q 141 779 169 707 q 77 892 114 850 q -19 954 37 939 l -19 987 q 214 800 143 959 q 272 613 250 721 q 293 378 293 505 z "},"*":{"ha":552,"x_min":62,"x_max":494,"o":"m 494 685 l 487 671 q 465 638 473 652 q 444 597 457 624 q 434 583 437 582 q 427 604 429 585 q 419 627 425 623 l 289 719 l 307 560 q 322 542 307 553 q 338 525 338 531 l 328 522 q 308 524 325 522 q 278 525 291 525 q 254 524 266 525 q 228 522 241 523 l 218 525 q 234 541 218 530 q 250 560 250 552 l 264 719 l 137 627 q 129 604 130 623 q 122 583 127 586 q 109 604 119 582 q 93 634 102 618 q 70 670 85 649 q 64 685 62 682 q 85 680 66 688 q 104 674 97 674 l 110 675 l 252 738 l 110 803 q 85 797 103 806 q 64 793 66 789 q 70 808 62 796 q 92 843 84 829 q 112 882 100 857 l 122 897 q 128 876 127 895 q 137 852 130 857 l 266 760 l 250 916 q 234 934 250 923 q 218 951 218 945 l 228 954 q 248 952 231 954 q 278 951 265 951 q 303 951 290 951 q 329 954 315 952 l 338 951 q 323 934 339 945 q 307 916 307 924 l 289 760 l 416 852 q 425 875 422 856 q 431 897 427 895 q 441 882 435 897 q 461 843 454 856 q 484 808 469 830 l 491 793 q 461 800 486 791 q 444 803 448 805 l 298 738 l 446 675 q 454 674 450 674 q 475 681 460 674 q 494 685 489 687 z "},"+":{"ha":543,"x_min":61,"x_max":484,"o":"m 484 404 l 301 404 l 301 206 l 243 206 l 243 404 l 61 404 l 61 458 l 243 458 l 243 658 l 301 658 l 301 458 l 484 458 l 484 404 z "},",":{"ha":308,"x_min":36,"x_max":240,"o":"m 240 28 q 191 -90 240 -40 q 76 -140 142 -140 q 42 -133 54 -140 q 36 -125 36 -129 q 45 -119 36 -120 q 70 -117 56 -119 q 102 -106 84 -114 q 145 -75 130 -93 q 164 -19 164 -52 q 155 12 164 -2 q 132 26 146 26 q 109 21 116 26 q 98 7 102 16 q 89 -1 94 -1 q 80 4 85 -1 q 62 56 62 22 q 87 102 62 85 q 146 119 112 119 q 221 86 196 119 q 240 28 240 61 z "},"-":{"ha":495,"x_min":59,"x_max":433,"o":"m 431 422 q 433 406 433 414 q 426 369 433 383 q 380 318 412 334 q 300 301 349 301 q 239 309 274 301 q 140 327 163 327 q 94 314 111 327 q 75 289 80 304 q 68 280 72 280 q 61 289 64 280 q 59 310 59 298 q 63 340 59 326 q 77 369 66 354 q 116 398 92 387 q 174 408 140 408 q 255 393 204 408 q 338 378 306 378 q 393 395 370 378 q 418 425 406 405 q 425 430 420 430 q 431 422 430 430 z "},".":{"ha":308,"x_min":77,"x_max":229,"o":"m 229 53 q 207 0 229 21 q 153 -22 185 -22 q 99 0 121 -22 q 77 53 77 21 q 99 107 77 85 q 153 129 121 129 q 207 107 184 129 q 229 53 229 85 z "},"/":{"ha":406,"x_min":-112,"x_max":490,"o":"m 487 1000 q 434 954 454 975 q 391 884 408 924 q 334 743 365 831 q 279 578 317 694 q 228 423 245 470 q 165 254 187 311 q 111 125 134 174 q 64 37 85 68 q -13 -54 28 -20 q -72 -87 -42 -77 q -87 -90 -77 -90 q -104 -87 -97 -90 q -112 -80 -112 -84 q -107 -73 -112 -77 q -52 -19 -77 -49 q -12 42 -27 11 q 52 184 23 113 q 97 310 68 225 q 142 437 126 395 q 195 589 155 469 q 254 757 235 709 q 313 890 288 847 q 388 977 342 941 q 450 1013 421 1004 q 464 1015 456 1015 q 483 1012 475 1015 q 490 1004 490 1009 q 487 1000 490 1002 z "},":":{"ha":308,"x_min":77,"x_max":229,"o":"m 229 552 q 207 499 229 520 q 153 477 185 477 q 99 499 121 477 q 77 552 77 520 q 99 606 77 585 q 153 628 121 628 q 207 606 184 628 q 229 552 229 585 m 229 53 q 207 0 229 21 q 153 -22 185 -22 q 99 0 121 -22 q 77 53 77 21 q 99 107 77 85 q 153 129 121 129 q 207 107 184 129 q 229 53 229 85 z "},";":{"ha":308,"x_min":37,"x_max":240,"o":"m 229 552 q 207 499 229 520 q 153 477 185 477 q 99 499 121 477 q 77 552 77 520 q 99 606 77 585 q 153 628 121 628 q 207 606 184 628 q 229 552 229 585 m 240 28 q 191 -90 240 -40 q 76 -140 142 -140 q 42 -133 56 -140 q 37 -125 37 -130 q 45 -119 37 -119 q 70 -117 56 -119 q 102 -106 84 -114 q 145 -75 130 -93 q 164 -19 164 -52 q 155 12 164 -2 q 132 26 146 26 q 109 21 116 26 q 98 7 102 16 q 89 -1 94 -1 q 80 4 85 -1 q 62 56 62 20 q 87 102 62 85 q 146 119 112 119 q 221 86 196 119 q 240 28 240 61 z "},"<":{"ha":431,"x_min":30,"x_max":380,"o":"m 380 237 l 334 183 l 30 400 l 334 616 l 380 562 l 125 399 l 380 237 z "},"=":{"ha":543,"x_min":60,"x_max":484,"o":"m 484 472 l 60 472 l 60 526 l 484 526 l 484 472 m 484 336 l 60 336 l 60 391 l 484 391 l 484 336 z "},">":{"ha":431,"x_min":52,"x_max":401,"o":"m 401 400 l 98 183 l 52 237 l 307 399 l 52 562 l 98 616 l 401 400 z "},"?":{"ha":673,"x_min":96,"x_max":578,"o":"m 578 749 q 543 620 578 680 q 458 522 515 574 q 361 438 410 480 q 317 393 330 412 q 293 326 293 361 q 297 295 293 309 q 312 267 301 280 q 327 254 319 258 q 340 250 334 251 q 349 243 349 250 q 345 237 349 240 q 329 229 332 231 q 313 218 325 227 q 298 205 307 214 q 289 198 292 199 q 279 195 283 195 q 270 198 275 195 q 242 228 254 207 q 228 275 231 250 q 228 286 228 280 q 227 294 227 292 q 238 357 227 326 q 264 412 247 384 q 311 467 278 435 q 357 509 329 485 q 431 587 410 555 q 479 762 479 661 q 440 880 479 834 q 315 933 396 933 q 197 890 243 933 q 155 795 155 850 q 172 719 155 746 q 224 692 189 692 q 274 718 252 692 q 281 731 278 722 q 285 744 283 739 q 292 749 287 749 q 301 742 296 749 q 310 716 307 735 q 313 680 313 696 q 281 622 310 646 q 213 598 252 598 q 128 640 160 598 q 96 750 96 682 q 164 907 96 845 q 328 970 232 970 q 507 914 439 970 q 578 749 578 855 m 365 53 q 343 0 365 21 q 289 -22 321 -22 q 235 0 257 -22 q 213 53 213 21 q 235 107 213 85 q 289 129 256 129 q 342 107 320 129 q 365 53 365 85 z "},"@":{"ha":1337,"x_min":96,"x_max":1264,"o":"m 1264 472 q 1259 347 1264 394 q 1220 208 1249 262 q 1147 121 1192 153 q 1053 88 1102 88 q 975 102 1008 88 q 906 161 932 121 q 886 200 891 184 q 882 233 882 215 q 804 146 859 183 q 675 104 743 104 q 517 160 581 104 q 449 312 449 218 q 522 468 449 406 q 694 530 595 530 q 787 512 743 530 q 854 467 831 494 q 821 546 852 494 q 736 649 784 609 q 609 700 674 700 q 538 683 568 700 q 505 629 505 663 q 515 598 505 611 q 543 585 526 585 q 565 592 555 585 q 574 612 574 600 q 572 627 574 621 q 567 640 570 633 q 569 646 565 645 q 579 647 573 648 q 609 630 596 644 q 621 600 621 616 q 598 551 621 571 q 545 532 575 532 q 487 556 510 532 q 464 620 464 581 q 519 702 464 673 q 637 727 568 727 q 770 684 705 727 q 878 567 836 641 q 922 439 905 515 q 942 309 932 393 q 960 191 952 226 q 993 145 966 165 q 1047 125 1019 125 q 1119 151 1085 125 q 1183 233 1156 178 q 1205 325 1198 264 q 1211 469 1211 385 q 1173 639 1211 553 q 1072 785 1134 725 q 910 889 1002 852 q 726 925 819 925 q 528 898 608 925 q 380 814 454 873 q 237 632 288 740 q 186 404 186 525 q 210 204 186 293 q 269 71 231 127 q 340 -12 297 27 q 508 -105 410 -74 q 718 -134 601 -134 q 922 -101 823 -134 q 1115 0 1022 -67 l 1142 -31 q 708 -178 944 -178 q 479 -152 575 -178 q 300 -61 374 -123 q 205 35 241 -13 q 128 184 155 101 q 96 410 96 283 q 160 657 96 535 q 340 864 227 784 q 726 970 488 970 q 936 931 835 970 q 1109 822 1037 892 q 1219 656 1175 760 q 1264 472 1264 552 m 876 335 q 827 446 876 405 q 696 487 778 487 q 579 443 629 487 q 529 335 529 399 q 579 218 529 266 q 700 171 629 171 q 829 216 781 171 q 876 335 876 262 z "},"A":{"ha":1036,"x_min":26,"x_max":952,"o":"m 949 15 q 951 11 951 14 q 952 7 952 9 q 940 0 952 0 q 900 2 933 -1 q 853 4 866 4 q 788 1 831 4 q 765 0 772 -1 q 753 8 753 0 q 755 14 753 12 q 785 37 758 16 q 806 66 806 54 q 809 88 807 74 q 810 120 810 102 q 787 267 810 195 q 675 458 754 370 q 567 549 628 511 q 431 612 507 587 q 366 462 393 543 q 330 259 330 353 q 334 111 330 156 q 370 -28 342 33 q 423 -94 388 -66 q 472 -123 442 -109 q 480 -133 480 -127 q 473 -140 480 -138 q 436 -153 454 -146 q 394 -171 418 -159 q 354 -195 371 -182 q 332 -212 342 -203 q 323 -216 327 -216 q 317 -205 317 -216 q 315 -157 317 -184 q 305 -71 313 -130 q 283 68 293 -1 q 273 197 273 136 q 304 441 273 321 q 377 625 332 547 q 346 630 362 628 q 307 632 329 632 q 227 623 269 632 q 154 593 185 614 q 113 528 113 565 q 144 483 113 489 q 152 482 146 482 q 177 489 166 482 q 189 509 187 496 q 196 523 191 523 q 202 515 200 523 q 205 496 205 508 q 203 483 205 490 q 201 469 202 476 q 171 428 192 444 q 119 411 150 411 q 111 410 115 410 q 51 437 75 410 q 26 506 26 464 q 102 622 26 576 q 214 665 152 652 q 262 671 236 669 q 317 673 289 673 q 403 666 372 673 q 621 867 501 796 q 920 949 758 949 q 942 943 942 949 q 937 936 942 941 q 909 890 915 911 q 901 787 901 862 l 901 66 q 921 38 901 54 q 949 15 948 17 m 806 357 l 806 892 q 612 807 708 874 q 526 737 559 770 q 457 650 494 704 q 564 604 515 630 q 651 544 606 580 q 736 460 701 505 q 806 357 770 420 z "},"B":{"ha":959,"x_min":28,"x_max":869,"o":"m 869 309 q 717 -12 869 115 q 349 -137 568 -137 q 132 -81 222 -137 q 28 88 28 -18 q 55 183 28 142 q 123 225 81 225 q 172 209 155 225 q 189 168 189 193 q 185 135 189 146 q 172 114 181 124 q 165 109 168 109 q 159 120 163 109 q 147 138 155 131 q 122 149 137 149 q 89 127 100 149 q 77 77 77 105 q 160 -52 77 -5 q 332 -91 231 -91 q 637 20 512 -91 q 769 323 769 138 q 744 433 769 382 q 678 511 720 484 q 610 451 652 477 q 517 420 562 420 q 442 439 467 420 q 420 484 420 456 q 458 546 420 519 q 543 579 495 572 q 590 583 570 583 q 644 576 621 583 q 667 637 659 606 q 675 703 675 668 q 582 869 675 808 q 382 924 499 924 q 190 871 275 924 q 95 745 104 819 q 94 727 94 732 q 103 691 94 703 q 129 678 113 678 q 154 684 144 678 q 165 693 159 686 q 170 697 168 698 q 172 693 172 696 q 148 648 176 670 q 100 633 128 633 q 56 656 75 633 q 35 719 35 680 q 142 891 35 816 q 408 970 254 970 q 654 913 555 970 q 773 716 773 845 q 756 629 773 669 q 712 556 744 600 q 813 467 766 532 q 869 309 869 390 m 400 15 q 402 11 401 14 q 403 7 403 9 q 391 0 403 0 q 350 2 384 -1 q 304 4 317 4 q 239 1 282 4 q 216 0 222 -1 q 204 8 204 0 q 206 14 204 12 q 235 37 208 16 q 256 66 256 54 l 256 690 q 243 720 256 711 q 222 729 228 726 q 216 736 216 732 q 222 743 216 741 q 243 757 228 748 q 302 791 293 785 q 357 828 319 801 q 393 850 385 848 q 401 846 401 854 q 399 841 401 844 q 363 760 374 799 q 351 655 351 711 l 351 66 q 372 38 351 54 q 400 15 399 17 m 623 534 q 563 543 596 543 q 536 542 552 543 q 497 528 519 540 q 469 492 469 513 q 490 467 469 473 q 514 463 503 463 q 576 484 545 463 q 623 534 608 505 z "},"C":{"ha":841,"x_min":61,"x_max":914,"o":"m 914 956 q 897 915 914 933 q 869 892 890 907 q 863 890 865 890 q 860 898 859 890 q 866 912 864 907 q 867 927 867 918 q 863 951 867 939 q 836 981 855 971 q 793 991 817 991 q 717 960 750 991 q 684 886 684 929 q 703 826 684 854 q 719 809 709 816 q 745 793 724 806 q 751 787 751 790 q 746 781 751 784 l 704 757 q 684 744 686 746 q 665 731 665 732 q 660 730 663 729 q 655 738 654 730 q 659 755 656 744 q 661 776 661 767 q 656 806 661 789 q 587 893 642 859 q 457 926 532 926 q 236 803 320 926 q 159 534 159 690 q 256 201 159 345 q 536 41 363 41 q 711 94 637 41 q 785 216 785 148 q 777 247 785 233 q 753 262 768 262 q 730 256 739 262 q 719 245 724 252 q 713 240 718 240 q 709 250 709 240 q 723 289 709 269 q 766 315 740 315 q 817 288 799 315 q 833 230 833 264 q 833 218 833 222 q 728 48 823 119 q 505 -22 633 -22 q 182 139 310 -22 q 61 503 61 292 q 172 827 61 690 q 463 970 289 970 q 648 903 574 970 q 693 1000 657 958 q 803 1051 738 1051 q 883 1025 852 1051 q 914 956 914 999 z "},"D":{"ha":966,"x_min":24,"x_max":894,"o":"m 894 505 q 787 210 894 336 q 530 35 692 98 q 224 -22 382 -22 q 214 -22 218 -22 q 196 -21 206 -22 q 185 -15 185 -21 q 194 -3 185 -11 q 254 85 234 31 q 274 227 274 140 l 274 392 q 96 469 161 404 q 24 669 24 541 q 149 887 24 800 q 419 970 266 970 q 753 847 621 970 q 894 505 894 718 m 798 540 q 694 814 798 703 q 419 929 587 929 q 184 861 283 929 q 75 666 75 785 q 132 502 75 560 q 274 435 180 452 l 274 686 q 257 718 274 710 q 242 724 249 721 q 235 733 235 726 q 240 741 235 738 q 269 753 245 743 q 317 774 292 762 q 374 805 336 784 q 393 815 386 812 q 404 809 404 819 q 403 803 404 805 q 378 764 387 781 q 369 732 369 747 l 369 441 q 465 484 412 441 q 524 585 524 532 q 515 621 524 606 q 492 635 506 635 q 469 632 477 635 q 458 624 460 629 q 450 615 454 615 q 445 621 447 615 q 444 631 444 624 q 446 643 444 637 q 511 689 462 689 q 570 661 549 689 q 587 595 587 635 q 518 467 587 528 q 369 396 450 406 l 369 239 q 350 123 369 178 q 301 31 332 68 q 533 90 422 31 q 720 262 650 152 q 798 540 798 384 z "},"E":{"ha":937,"x_min":61,"x_max":926,"o":"m 926 789 q 891 690 926 732 q 783 613 855 648 q 654 571 728 587 q 524 549 616 563 q 391 524 432 534 q 256 456 321 505 q 168 366 201 414 q 288 146 189 244 q 533 38 397 38 q 698 75 631 38 q 765 174 765 113 q 761 208 765 193 q 753 233 756 222 q 753 240 751 237 q 761 243 755 243 q 796 224 779 240 q 819 170 819 201 q 720 28 819 83 q 507 -22 630 -22 q 186 115 310 -22 q 61 479 61 254 q 191 822 61 677 q 517 970 325 970 q 662 937 602 970 q 730 840 730 901 q 710 786 730 808 q 656 758 690 764 q 650 758 654 758 q 642 758 644 758 q 618 760 629 758 q 601 768 608 762 q 595 774 595 770 q 601 783 595 779 q 619 798 614 792 q 633 834 631 812 q 634 839 634 837 q 634 844 634 842 q 587 903 634 881 q 498 921 548 921 q 354 889 420 921 q 239 795 289 857 q 171 663 192 737 q 150 500 150 589 q 151 461 150 482 q 155 415 152 441 q 232 496 180 450 q 363 582 302 558 q 474 613 417 602 q 583 629 506 619 q 705 647 659 638 q 819 682 780 661 q 880 765 880 713 q 860 812 880 800 q 841 817 854 817 q 829 814 833 817 q 817 808 821 808 q 814 814 814 808 q 816 826 814 815 q 833 848 819 837 q 865 860 847 860 q 910 839 894 860 q 926 789 926 817 z "},"F":{"ha":821,"x_min":71,"x_max":860,"o":"m 860 974 q 793 886 860 922 q 656 854 732 854 q 540 865 590 854 q 444 887 490 876 q 389 893 412 892 q 326 894 365 894 l 326 627 q 410 614 360 619 q 513 609 460 609 q 602 620 570 609 q 644 668 644 635 q 637 694 644 686 q 617 701 629 701 q 609 700 614 701 q 602 697 604 698 q 596 697 598 696 q 595 707 593 699 q 613 736 599 722 q 643 750 627 750 q 688 730 672 750 q 701 685 701 713 q 627 584 701 626 q 479 545 559 545 q 326 562 397 545 l 326 66 q 346 38 326 54 q 374 15 373 17 q 376 11 376 14 q 377 7 377 9 q 365 0 377 0 q 325 2 358 -1 q 278 4 291 4 q 213 1 256 4 q 190 0 197 -1 q 178 8 178 0 q 180 14 178 12 q 210 37 182 16 q 231 66 231 54 l 231 570 q 154 555 186 570 q 115 507 115 538 q 119 479 115 490 q 133 457 123 467 q 136 451 136 454 q 130 446 136 446 q 94 458 115 442 q 71 507 71 476 q 122 596 71 562 q 231 627 168 627 l 231 880 q 206 875 218 879 q 140 830 169 862 q 107 777 116 803 q 102 739 102 760 q 102 731 102 734 q 97 722 102 722 q 91 726 94 722 q 80 749 85 733 q 75 781 75 766 q 106 858 75 819 q 199 928 141 900 q 301 959 244 949 q 419 970 358 970 q 526 956 471 970 q 635 927 581 941 q 731 913 690 913 q 784 924 763 913 q 810 963 810 937 q 800 988 810 980 q 783 991 791 996 q 770 987 773 987 q 768 994 766 987 q 781 1018 772 1008 q 810 1032 794 1032 q 848 1016 836 1032 q 860 974 860 999 z "},"G":{"ha":944,"x_min":61,"x_max":890,"o":"m 890 960 q 856 898 890 922 q 776 873 822 873 q 670 892 726 873 q 503 932 549 932 q 254 804 353 932 q 160 517 160 683 q 277 172 160 316 q 574 22 397 22 q 620 25 592 22 q 686 39 647 28 q 743 65 726 51 q 724 88 732 76 q 710 114 718 97 q 699 157 701 132 q 697 224 697 183 l 697 528 q 650 511 670 515 q 601 506 629 506 q 528 534 574 506 q 454 562 481 562 q 416 552 433 562 q 399 522 399 542 q 435 484 399 480 q 453 489 447 486 q 463 496 460 492 q 467 500 465 500 q 471 495 471 500 q 474 475 474 486 q 473 461 474 470 q 456 441 471 453 q 423 429 441 429 q 377 452 393 429 q 361 505 361 475 q 362 515 361 512 q 402 590 367 562 q 487 618 437 618 q 576 602 533 618 q 724 567 671 567 q 777 576 749 567 q 837 598 807 587 q 842 590 846 598 q 822 566 832 578 q 792 486 792 528 l 792 198 q 814 106 792 144 q 846 65 821 93 q 850 58 850 61 q 845 50 850 54 q 732 6 817 29 q 547 -22 630 -22 q 200 132 342 -22 q 61 494 61 283 q 182 829 61 694 q 506 971 308 971 q 654 945 572 971 q 751 918 735 918 q 810 960 810 918 q 799 987 810 978 q 774 996 789 996 q 764 995 769 997 q 755 993 758 994 q 749 991 751 991 q 746 996 746 992 q 749 1005 746 1000 q 776 1035 758 1025 q 815 1044 794 1044 q 871 1020 852 1044 q 890 960 890 996 z "},"H":{"ha":993,"x_min":8,"x_max":909,"o":"m 906 15 q 908 11 907 14 q 909 7 909 9 q 897 0 909 0 q 856 2 890 -1 q 810 4 823 4 q 745 1 788 4 q 722 0 728 -1 q 710 8 710 0 q 712 14 710 12 q 741 37 714 16 q 762 66 762 54 l 762 658 q 675 634 724 642 q 578 627 626 627 q 452 642 524 627 q 326 682 380 658 l 326 66 q 346 38 326 54 q 374 15 373 17 q 376 11 376 14 q 377 7 377 9 q 365 0 377 0 q 325 2 358 -1 q 278 4 291 4 q 213 1 256 4 q 190 0 197 -1 q 178 8 178 0 q 180 14 178 12 q 210 37 182 16 q 231 66 231 54 l 231 688 q 214 689 221 689 q 133 668 170 689 q 90 602 90 643 q 98 570 90 583 q 115 556 104 563 q 146 549 127 549 q 159 551 155 549 q 167 546 167 553 q 161 537 167 542 q 136 521 150 527 q 95 511 116 511 q 37 530 61 511 q 8 593 8 552 q 33 671 8 638 q 94 719 54 698 q 145 737 115 730 q 231 746 183 746 l 231 883 q 210 912 231 896 q 180 936 195 924 q 179 944 178 939 q 190 949 180 949 q 231 948 197 950 q 278 945 264 945 q 333 947 305 945 q 365 949 361 949 q 377 942 377 949 q 374 935 377 938 q 347 912 373 932 q 326 883 326 896 l 326 738 q 456 693 379 713 q 593 673 532 673 q 667 677 641 673 q 762 709 709 685 l 762 883 q 742 912 762 896 q 712 936 727 924 q 711 944 710 939 q 722 949 712 949 q 762 948 728 950 q 810 945 796 945 q 865 947 837 945 q 897 949 893 949 q 909 942 909 949 q 906 935 909 938 q 878 912 905 932 q 857 883 857 896 l 857 66 q 878 38 857 54 q 906 15 905 17 z "},"I":{"ha":366,"x_min":83,"x_max":282,"o":"m 279 15 q 281 11 281 14 q 282 7 282 9 q 270 0 282 0 q 230 2 263 -1 q 183 4 196 4 q 118 1 161 4 q 95 0 102 -1 q 83 8 83 0 q 85 14 83 12 q 115 37 87 16 q 136 66 136 54 l 136 883 q 115 912 136 896 q 85 936 100 924 q 84 944 83 939 q 95 949 85 949 q 136 948 102 950 q 183 945 170 945 q 238 947 210 945 q 270 949 267 949 q 282 942 282 949 q 279 935 282 938 q 252 912 278 932 q 231 883 231 896 l 231 66 q 251 38 231 54 q 279 15 278 17 z "},"J":{"ha":380,"x_min":-64,"x_max":296,"o":"m 293 935 q 265 912 292 932 q 244 883 244 896 l 244 317 q 256 222 244 255 q 277 193 263 205 q 281 186 281 191 q 274 181 281 183 q 256 166 267 178 q 217 102 239 146 q 142 -50 180 26 q 15 -141 85 -141 q -42 -126 -21 -141 q -64 -88 -64 -111 q -51 -54 -64 -68 q -19 -41 -38 -41 q 14 -53 1 -41 q 23 -73 23 -62 q 25 -95 23 -89 q 35 -102 26 -102 q 104 -13 64 -102 q 149 201 149 89 l 149 883 q 129 912 149 896 q 99 936 114 924 q 98 944 97 939 q 109 949 99 949 q 149 948 115 950 q 197 945 183 945 q 252 947 224 945 q 283 949 280 949 q 296 942 296 949 q 293 935 296 938 z "},"K":{"ha":818,"x_min":83,"x_max":906,"o":"m 906 -94 q 892 -127 906 -114 q 852 -141 878 -141 q 686 -66 758 -141 q 591 95 630 -7 q 559 212 570 150 q 543 320 557 223 q 521 429 533 385 q 483 513 509 473 q 433 578 464 543 q 315 519 376 559 q 231 450 265 486 l 231 66 q 251 38 231 54 q 279 15 278 17 q 281 11 281 14 q 282 7 282 9 q 270 0 282 0 q 230 2 263 -1 q 183 4 196 4 q 118 1 161 4 q 95 0 102 -1 q 83 8 83 0 q 85 14 83 12 q 115 37 87 16 q 136 66 136 54 l 136 883 q 115 912 136 896 q 85 936 100 924 q 84 944 83 939 q 95 949 85 949 q 136 948 102 950 q 183 945 170 945 q 238 947 210 945 q 270 949 267 949 q 282 942 282 949 q 279 935 282 938 q 252 912 278 932 q 231 883 231 896 l 231 522 q 282 559 257 543 q 346 597 315 582 q 562 699 454 648 q 642 761 616 732 q 675 848 675 800 q 661 898 675 881 q 620 914 646 914 q 597 904 609 913 q 585 894 592 900 q 576 890 581 890 q 571 898 572 890 q 590 953 568 924 q 669 991 619 991 q 743 954 715 991 q 772 865 772 916 q 746 764 772 808 q 671 688 723 725 q 578 637 635 661 q 486 602 538 619 q 559 522 532 557 q 618 427 591 481 q 665 283 650 368 q 690 83 677 182 q 741 -44 707 6 q 837 -104 783 -104 q 840 -98 842 -104 q 834 -81 833 -87 q 845 -65 836 -71 q 865 -57 854 -58 q 893 -67 881 -57 q 906 -94 906 -78 z "},"L":{"ha":802,"x_min":48,"x_max":792,"o":"m 792 213 q 723 46 792 113 q 551 -22 653 -22 q 443 -2 501 -22 q 269 42 312 42 q 190 30 220 42 q 140 -8 159 17 q 132 -14 134 -14 q 126 -9 130 -14 q 117 5 121 -1 q 99 25 110 16 q 74 40 87 35 q 54 46 71 41 q 48 50 48 47 q 53 56 48 52 q 151 165 118 100 q 178 283 178 220 l 178 883 q 157 912 178 896 q 127 936 142 924 q 126 944 125 939 q 137 949 127 949 q 178 948 144 950 q 225 945 212 945 q 280 947 252 945 q 312 949 309 949 q 324 942 324 949 q 321 935 324 938 q 294 912 320 932 q 273 883 273 896 l 273 346 q 231 167 273 251 q 152 60 199 104 q 228 98 187 83 q 324 118 279 118 q 494 74 371 118 q 601 53 552 53 q 704 93 663 53 q 749 209 749 136 q 710 334 749 286 q 609 382 672 382 q 542 363 568 382 q 517 311 517 344 q 532 271 517 283 q 563 262 543 262 q 578 265 570 262 q 593 270 587 268 q 598 269 597 273 q 598 260 598 264 q 574 223 598 239 q 521 206 550 206 q 451 235 478 206 q 425 312 425 264 q 473 403 425 368 q 583 438 521 438 q 733 373 673 438 q 792 213 792 309 z "},"M":{"ha":1069,"x_min":34,"x_max":1029,"o":"m 1021 19 q 1029 7 1029 13 q 1013 0 1029 0 q 990 1 1000 0 q 929 4 943 4 q 887 3 903 4 q 850 0 871 1 q 836 7 836 0 q 841 18 836 12 q 866 40 858 33 q 880 66 882 54 l 777 833 l 559 587 q 621 498 596 548 q 648 393 648 442 q 613 279 648 328 q 515 227 575 227 q 420 277 457 227 q 385 389 385 325 q 409 484 385 435 q 454 549 427 521 q 329 703 376 639 q 271 800 283 767 l 176 66 q 193 40 175 54 q 224 18 208 28 q 229 7 229 12 q 217 0 229 0 q 179 2 211 -1 q 134 4 148 4 q 89 3 106 4 q 49 0 71 1 q 34 7 34 0 q 42 20 34 13 q 68 41 55 31 q 87 66 85 55 l 202 883 q 184 911 203 895 q 155 933 170 922 q 151 941 151 937 q 163 949 151 949 q 196 947 168 949 q 250 945 224 945 q 294 946 277 945 q 334 949 311 947 q 349 942 349 949 q 345 933 349 938 q 318 912 328 920 q 300 885 300 897 q 301 879 300 883 q 368 785 311 850 q 471 674 412 734 q 525 621 524 621 l 747 869 q 758 890 758 880 q 751 906 758 898 q 739 918 748 910 q 719 933 729 925 q 713 943 713 939 q 728 949 713 949 q 751 949 742 949 q 812 945 798 945 q 860 947 833 945 q 892 949 887 949 q 911 941 911 949 q 906 932 911 936 q 884 917 892 922 q 860 883 858 898 l 970 66 q 991 40 971 55 q 1021 19 1006 29 m 576 382 q 547 458 576 418 q 494 513 526 487 q 452 463 467 488 q 431 392 431 428 q 449 316 431 347 q 507 279 470 279 q 559 313 541 279 q 576 382 576 342 z "},"N":{"ha":920,"x_min":58,"x_max":841,"o":"m 834 19 q 841 8 841 14 q 829 0 841 0 q 807 1 816 0 q 747 4 762 4 q 705 3 721 4 q 669 0 689 1 q 654 7 654 0 q 662 19 654 12 q 691 40 682 33 q 709 66 709 54 l 701 274 q 656 214 688 239 q 576 184 619 184 q 503 208 534 184 q 472 270 472 231 q 491 320 472 299 q 538 340 511 340 q 557 339 550 340 q 568 334 564 338 q 573 326 573 329 q 567 321 573 321 q 553 318 559 321 q 544 308 547 315 q 540 288 540 300 q 541 275 540 279 q 566 245 547 255 q 597 239 579 239 q 648 268 628 239 q 669 335 669 297 q 651 401 669 373 q 597 457 637 422 q 509 515 560 488 q 362 594 380 581 q 283 669 319 625 q 235 745 252 708 l 184 66 q 202 40 184 54 q 231 18 216 28 q 235 7 235 13 q 224 0 235 0 q 189 2 216 -1 q 146 4 162 4 q 101 2 127 4 q 71 0 75 0 q 58 7 58 0 q 64 18 58 12 q 99 40 67 20 q 125 66 123 55 l 187 883 q 168 911 187 896 q 137 933 153 922 q 132 943 132 937 q 149 949 132 951 q 170 949 161 949 q 221 945 210 945 q 265 948 238 945 q 298 949 292 950 q 310 942 310 949 q 307 935 310 938 q 278 916 288 923 q 256 883 258 901 q 275 803 256 841 q 327 737 293 766 q 406 685 360 709 q 486 646 446 665 q 571 591 534 622 q 647 513 612 557 q 693 438 679 472 l 663 883 q 637 910 662 895 q 600 933 602 931 q 594 943 594 939 q 608 949 594 949 q 629 949 621 949 q 688 945 674 945 q 740 947 713 945 q 770 949 767 949 q 781 943 781 949 q 776 933 781 938 q 745 911 756 919 q 723 883 723 895 l 774 66 q 789 46 774 56 q 834 19 811 33 z "},"O":{"ha":922,"x_min":61,"x_max":861,"o":"m 861 480 q 749 143 861 293 q 445 -20 626 -20 q 163 129 273 -20 q 61 458 61 267 q 117 729 61 613 q 263 888 172 841 q 280 894 275 894 q 286 889 286 894 q 274 872 286 882 q 214 804 237 840 q 165 682 182 753 q 146 472 146 598 q 245 184 146 310 q 486 53 347 53 q 694 144 614 53 q 781 427 781 245 q 680 774 781 622 q 469 921 582 921 q 397 898 424 921 q 370 838 370 876 q 383 799 370 817 q 417 781 396 781 q 427 781 422 781 q 440 787 433 782 q 450 797 447 792 q 455 807 453 802 q 458 817 457 812 q 461 821 458 821 q 468 817 465 821 q 475 784 475 804 q 475 777 475 781 q 473 770 473 772 q 449 727 469 745 q 400 709 429 709 q 329 742 357 709 q 301 821 301 774 q 360 932 301 889 q 484 970 413 970 q 760 821 653 970 q 861 480 861 680 z "},"P":{"ha":930,"x_min":35,"x_max":849,"o":"m 849 624 q 737 285 849 433 q 461 130 621 130 q 366 160 405 130 q 323 243 323 193 q 342 299 323 275 q 391 324 361 324 q 419 320 406 324 q 438 309 433 317 q 435 300 444 302 q 408 280 413 288 q 399 240 399 266 q 429 186 399 205 q 491 170 455 170 q 667 296 595 170 q 738 585 738 418 q 677 820 738 721 q 500 929 610 929 q 351 878 415 929 q 283 745 283 825 l 283 65 q 235 -140 283 -60 q 121 -221 187 -221 q 67 -208 89 -221 q 46 -168 46 -194 q 50 -140 44 -152 q 65 -121 55 -128 q 73 -117 70 -117 q 77 -125 79 -117 q 76 -145 75 -136 q 86 -167 79 -159 q 115 -177 96 -177 q 123 -176 120 -177 q 174 -130 159 -172 q 189 -15 189 -88 l 189 821 q 152 813 172 816 q 104 811 132 811 q 56 829 77 811 q 35 873 35 847 q 79 928 35 919 q 90 929 87 929 q 104 925 100 929 q 111 917 111 920 q 102 910 111 913 q 91 887 91 905 q 91 881 91 884 q 92 878 92 878 q 110 861 97 865 q 141 857 122 857 q 153 857 149 857 q 239 886 176 857 q 366 940 321 924 q 526 970 453 970 q 757 866 663 970 q 849 624 849 764 z "},"Q":{"ha":932,"x_min":61,"x_max":880,"o":"m 880 28 q 848 -37 880 -11 q 774 -64 817 -64 q 708 -54 735 -64 q 604 20 655 -36 q 530 -8 580 5 q 445 -20 480 -20 q 163 129 273 -20 q 61 458 61 267 q 117 729 61 613 q 263 888 172 841 q 279 894 275 894 q 284 889 284 894 q 274 872 284 882 q 214 804 237 840 q 165 682 182 753 q 146 472 146 598 q 191 277 146 376 q 290 136 233 186 q 345 182 311 162 q 453 212 395 212 q 596 155 534 212 q 650 99 633 115 q 741 216 709 151 q 781 427 781 302 q 680 774 781 622 q 469 921 582 921 q 397 898 424 921 q 370 838 370 876 q 383 799 370 817 q 417 781 396 781 q 427 781 422 781 q 440 787 433 782 q 451 799 447 792 q 456 814 456 806 q 463 821 458 821 q 470 812 466 821 q 475 783 475 803 q 473 770 475 779 q 449 727 469 745 q 400 709 429 709 q 329 742 357 709 q 301 821 301 774 q 360 932 301 889 q 484 970 413 970 q 760 821 653 970 q 861 480 861 680 q 806 235 861 353 q 675 64 754 125 q 743 -2 723 12 q 781 -15 762 -15 q 818 -1 805 -15 q 829 26 829 11 q 824 47 829 38 q 810 58 819 56 q 795 58 799 58 q 787 61 787 58 q 793 69 787 63 q 825 81 806 81 q 867 64 851 81 q 880 28 880 50 m 571 62 q 525 119 532 112 q 450 160 493 150 q 416 164 432 164 q 350 145 380 164 q 315 113 329 132 q 396 71 345 88 q 486 53 448 53 q 533 55 513 53 q 571 62 553 56 z "},"R":{"ha":948,"x_min":18,"x_max":989,"o":"m 989 -103 q 958 -149 989 -132 q 894 -164 930 -164 q 741 -121 810 -164 q 635 -12 680 -83 q 595 82 612 25 q 572 183 591 99 q 545 278 559 243 q 503 268 524 272 q 461 264 481 264 q 387 279 415 264 q 354 332 354 297 q 387 382 354 363 q 453 397 414 397 q 523 383 489 397 q 576 339 556 368 q 690 446 644 373 q 742 614 742 525 q 652 834 742 746 q 420 922 562 922 q 305 916 345 922 q 183 876 243 907 q 109 823 140 854 q 71 749 71 784 q 70 738 70 741 q 78 705 70 719 q 103 690 87 690 q 125 698 117 690 q 138 726 134 705 q 144 734 140 734 q 151 728 149 734 q 161 692 161 715 q 141 646 161 665 q 92 627 121 627 q 38 652 59 627 q 18 715 18 678 q 60 825 18 774 q 152 898 94 865 q 307 957 227 941 q 464 970 370 970 q 736 879 624 970 q 852 644 852 785 q 776 429 852 527 q 606 298 708 340 q 652 224 631 267 q 696 123 674 180 q 743 9 729 37 q 806 -92 774 -57 q 891 -134 845 -134 q 923 -127 908 -134 q 940 -104 938 -119 q 938 -86 940 -92 q 932 -76 937 -81 q 928 -68 928 -71 q 933 -62 928 -64 q 968 -71 948 -60 q 989 -103 989 -83 m 357 15 q 359 11 358 14 q 359 7 359 9 q 347 0 359 0 q 307 2 340 -1 q 260 4 273 4 q 195 1 239 4 q 172 0 179 -1 q 161 8 161 0 q 163 14 161 12 q 192 37 165 16 q 213 66 213 54 l 213 699 q 201 729 213 720 q 179 739 199 730 q 172 746 172 742 q 180 757 172 749 q 216 777 200 768 q 250 797 227 783 q 311 842 272 811 q 334 859 330 857 q 343 857 340 861 q 343 848 346 854 q 317 794 326 817 q 308 750 308 771 l 308 66 q 328 38 308 54 q 357 15 355 17 m 528 317 q 497 351 519 338 q 450 363 475 363 q 416 355 431 363 q 401 332 401 347 q 422 306 401 314 q 463 300 437 300 q 497 304 478 300 q 528 317 515 309 z "},"S":{"ha":799,"x_min":15,"x_max":747,"o":"m 747 304 q 628 67 747 161 q 361 -22 515 -22 q 123 46 220 -22 q 15 252 15 122 q 90 409 15 344 q 270 475 165 475 q 436 435 372 475 q 507 311 507 391 q 459 213 507 252 q 349 174 412 174 q 252 195 291 174 q 205 269 205 221 q 229 316 205 297 q 261 333 247 331 q 277 335 275 335 q 282 331 282 335 q 279 323 281 327 q 277 315 279 321 q 273 285 273 301 q 294 249 273 264 q 340 233 315 233 q 410 259 382 233 q 438 323 438 285 q 382 412 438 380 q 264 439 333 439 q 113 388 177 439 q 46 252 46 334 q 147 83 46 146 q 362 26 237 26 q 580 104 489 26 q 674 307 674 186 q 643 422 674 372 q 559 505 616 465 q 442 574 521 533 q 242 669 342 621 q 141 808 141 728 q 222 932 141 888 q 392 970 292 970 q 513 953 469 970 q 575 876 575 930 q 558 837 575 854 q 527 819 541 820 q 508 817 514 817 q 483 822 493 817 q 475 829 475 827 q 480 837 475 832 q 494 857 490 846 q 498 879 498 867 q 461 929 498 912 q 388 943 432 943 q 269 920 317 943 q 212 842 212 893 q 253 774 212 805 q 355 720 282 752 q 480 665 463 673 q 618 584 571 621 q 713 473 682 535 q 747 304 747 404 z "},"T":{"ha":741,"x_min":16,"x_max":787,"o":"m 787 989 q 716 897 787 938 q 562 856 646 856 q 508 859 531 856 q 448 869 484 862 l 448 66 q 468 38 448 54 q 496 15 495 17 q 498 11 498 14 q 499 7 499 9 q 487 0 499 0 q 447 2 480 -1 q 400 4 413 4 q 335 1 378 4 q 312 0 319 -1 q 300 8 300 0 q 302 14 300 12 q 332 37 304 16 q 353 66 353 54 l 353 883 q 277 895 305 890 q 174 902 224 902 q 91 887 117 902 q 65 838 65 872 q 73 817 65 827 q 90 806 81 808 q 105 805 98 805 q 123 807 117 805 q 133 812 129 809 q 141 812 138 816 q 142 803 144 809 q 125 770 138 785 q 77 751 106 751 q 33 771 50 751 q 16 821 16 791 q 104 928 16 885 q 301 971 191 971 q 413 959 360 971 q 521 935 466 947 q 636 922 576 922 q 710 935 684 922 q 736 974 736 948 q 726 995 736 991 q 699 1000 715 1000 q 688 1004 688 1000 q 690 1010 688 1006 q 706 1030 695 1022 q 735 1040 720 1040 q 773 1027 760 1040 q 787 989 787 1014 z "},"U":{"ha":907,"x_min":72,"x_max":867,"o":"m 865 41 q 843 1 865 22 q 785 -22 817 -22 q 707 23 738 -22 q 678 118 678 64 q 547 11 623 47 q 392 -23 476 -23 q 151 98 237 -23 q 72 387 72 210 q 129 592 72 484 q 256 770 174 678 q 385 897 317 839 q 350 885 369 888 q 311 881 332 881 q 281 883 295 881 q 163 913 222 898 q 137 904 148 913 q 126 880 126 895 q 131 863 125 870 q 145 854 136 856 q 163 857 157 854 q 172 863 170 861 q 178 865 175 865 q 182 856 182 864 q 171 822 182 838 q 132 800 156 800 q 99 816 111 800 q 86 855 86 832 q 90 875 86 863 q 134 935 99 907 q 212 964 172 964 q 268 956 238 964 q 359 936 334 936 q 412 944 389 936 q 441 958 423 947 q 452 961 449 961 q 467 949 457 961 q 477 933 477 939 q 471 921 477 927 q 399 862 434 894 q 332 791 365 831 q 249 673 281 729 q 191 541 210 608 q 170 381 170 465 q 228 158 170 248 q 423 53 296 53 q 575 91 505 53 q 677 176 632 122 l 677 883 q 656 912 677 896 q 627 936 642 924 q 626 944 625 939 q 636 949 627 949 q 677 948 643 950 q 724 945 711 945 q 780 947 751 945 q 811 949 808 949 q 823 942 823 949 q 821 935 823 938 q 793 912 819 932 q 772 883 772 896 l 772 152 q 781 73 772 102 q 822 34 794 34 q 841 37 834 34 q 857 49 848 40 q 862 52 859 52 q 865 48 864 52 q 865 41 867 44 z "},"V":{"ha":880,"x_min":56,"x_max":818,"o":"m 818 821 q 785 675 818 757 q 705 514 761 613 q 604 340 654 427 q 507 160 553 253 q 446 32 473 91 q 416 -33 418 -28 q 410 -39 413 -39 q 401 -33 406 -39 q 349 85 386 -6 q 273 281 309 181 q 203 488 229 404 q 162 644 182 559 q 130 788 145 716 q 113 882 120 837 q 83 916 110 897 q 61 932 64 929 q 56 941 56 937 q 71 949 56 949 q 103 947 75 949 q 156 945 132 945 q 203 946 186 945 q 243 949 220 947 q 254 941 254 949 q 251 933 254 937 q 224 910 233 919 q 208 879 206 894 q 235 726 214 817 q 286 533 254 644 q 361 300 321 411 q 435 121 401 189 q 479 223 454 168 q 538 340 509 285 q 631 508 585 424 q 704 669 680 602 q 734 823 734 753 q 706 947 734 900 q 598 1005 671 1005 q 531 985 558 1005 q 503 930 503 966 q 515 895 503 909 q 547 881 526 881 q 555 882 552 882 q 581 895 571 884 q 589 913 587 903 q 595 923 591 923 q 602 918 598 923 q 613 884 613 905 q 593 838 613 857 q 544 819 572 819 q 483 847 507 819 q 460 920 460 876 q 509 1009 460 975 q 627 1043 559 1043 q 766 975 711 1043 q 818 821 818 911 z "},"W":{"ha":1196,"x_min":71,"x_max":1130,"o":"m 1130 761 q 1074 515 1130 669 q 953 237 1032 402 q 842 12 897 125 q 822 -36 831 -9 q 811 -65 813 -62 q 806 -69 809 -69 q 799 -64 802 -69 q 768 1 795 -59 q 674 218 732 80 q 583 444 617 357 q 520 304 552 374 q 443 136 481 220 q 380 -4 397 37 q 368 -38 378 -9 q 358 -62 363 -55 q 352 -67 356 -67 q 347 -64 349 -67 q 342 -52 346 -62 q 330 -18 336 -32 q 239 207 284 94 q 126 520 165 393 q 71 798 71 701 q 100 913 71 863 q 191 972 134 972 q 250 952 228 972 q 267 916 270 935 q 263 908 264 909 q 255 909 260 905 q 239 918 250 914 q 210 922 229 922 q 165 886 181 922 q 153 818 153 858 q 168 702 153 765 q 202 583 179 651 q 244 465 223 524 q 301 313 271 390 q 349 193 323 258 q 378 122 363 157 l 552 509 q 506 644 520 590 q 488 770 488 711 q 519 885 488 844 q 606 926 550 926 q 687 889 657 926 q 716 791 716 852 q 691 680 716 753 q 637 552 667 607 l 826 109 q 909 277 865 180 q 1002 515 968 408 q 1047 746 1047 656 q 1024 846 1047 804 q 951 895 998 895 q 903 881 918 895 q 888 831 888 867 q 884 822 888 822 q 878 825 883 822 q 846 880 846 840 q 888 950 846 926 q 964 970 922 970 q 1086 908 1040 970 q 1130 761 1130 849 m 665 783 q 653 840 665 817 q 612 869 639 869 q 572 845 585 869 q 559 788 559 821 q 574 693 559 742 q 610 612 587 654 q 646 695 633 661 q 665 783 665 749 z "},"X":{"ha":822,"x_min":17,"x_max":791,"o":"m 783 19 q 791 7 791 12 q 777 0 791 0 q 749 1 761 0 q 677 4 692 4 q 632 3 649 4 q 593 0 615 1 q 578 7 578 0 q 583 18 578 11 q 598 32 593 27 q 607 49 607 41 q 602 61 607 54 q 538 157 584 87 q 491 227 514 191 q 418 345 454 283 q 363 445 392 390 q 297 383 330 419 q 227 294 258 341 q 166 179 187 235 q 145 71 145 123 q 158 38 145 52 q 181 18 174 24 q 187 7 187 12 q 176 0 187 0 q 143 2 170 -1 q 102 4 117 4 q 66 3 80 4 q 33 0 52 1 q 17 9 17 0 q 22 16 17 12 q 49 35 39 27 q 72 68 68 49 q 111 181 83 114 q 171 301 141 254 q 246 402 212 363 q 340 492 280 440 q 300 578 323 526 q 252 696 271 644 q 225 781 237 738 q 202 867 212 824 q 172 905 198 884 q 137 935 155 920 q 134 942 134 939 q 148 949 134 949 q 180 947 152 949 q 233 945 209 945 q 277 946 260 945 q 316 949 294 947 q 333 941 333 949 q 330 933 333 938 q 300 904 315 918 q 293 880 291 891 q 342 722 304 824 q 415 553 380 620 q 526 643 522 639 q 639 753 600 706 q 690 861 690 816 q 673 903 690 889 q 630 918 656 918 q 611 916 621 918 q 591 907 602 915 q 571 886 581 900 q 563 865 566 878 q 559 848 561 853 q 554 843 558 843 q 548 846 551 843 q 536 867 541 854 q 531 895 531 881 q 532 903 532 901 q 563 967 532 940 q 635 994 594 994 q 723 962 690 994 q 755 879 755 929 q 692 734 755 812 q 559 606 648 679 q 439 509 443 512 q 540 326 480 424 q 642 170 588 248 q 718 68 682 113 q 746 42 728 54 q 783 19 764 31 z "},"Y":{"ha":854,"x_min":58,"x_max":808,"o":"m 804 937 q 793 918 800 930 q 770 834 779 885 q 752 709 767 814 q 724 524 738 604 q 684 326 707 418 q 604 70 647 177 q 484 -142 549 -68 q 313 -229 407 -229 q 220 -203 258 -229 q 180 -127 180 -174 q 188 -91 180 -109 q 205 -65 195 -73 q 213 -63 210 -63 q 221 -71 219 -63 q 223 -86 222 -79 q 227 -102 224 -93 q 254 -128 233 -118 q 316 -141 279 -141 q 446 -63 379 -141 q 553 113 502 3 q 620 294 595 204 q 517 177 584 225 q 377 126 446 126 q 180 232 251 126 q 115 488 115 330 q 148 651 115 564 q 217 791 173 718 q 279 883 240 829 q 203 898 246 883 q 136 913 159 913 q 107 904 121 913 q 92 880 92 895 q 113 848 92 848 q 129 856 123 848 q 136 869 132 860 q 144 869 140 876 q 148 850 148 861 q 135 817 148 831 q 102 803 121 803 q 71 818 83 803 q 58 859 58 833 q 58 868 58 865 q 88 924 62 900 q 159 951 117 951 q 235 939 180 951 q 282 933 264 933 q 317 943 301 933 q 336 959 328 949 q 342 963 340 962 q 349 962 345 964 q 357 955 353 959 q 363 948 361 951 q 362 937 365 941 q 309 871 330 901 q 239 734 265 809 q 203 521 203 633 q 254 300 203 381 q 414 212 310 212 q 591 310 522 212 q 677 543 650 393 q 692 713 692 625 q 677 861 692 807 q 656 911 669 888 q 635 939 646 928 q 631 945 631 942 q 644 949 631 949 q 682 944 664 946 q 718 941 701 941 q 766 945 739 941 q 798 949 793 949 q 808 945 808 951 q 804 937 808 942 z "},"Z":{"ha":840,"x_min":38,"x_max":803,"o":"m 803 174 q 736 35 803 91 q 574 -22 670 -22 q 462 1 519 -22 q 353 46 405 24 q 235 71 289 71 q 121 34 176 71 q 57 -19 70 -9 q 47 -24 52 -24 q 40 -16 41 -24 q 38 5 38 -9 q 50 86 38 38 q 80 175 61 135 q 203 351 124 269 q 369 494 250 398 q 560 658 495 595 q 663 782 619 714 q 712 886 701 842 q 636 848 673 862 q 540 829 586 829 q 439 847 490 829 q 337 884 387 865 q 241 902 287 902 q 155 870 191 902 q 118 788 118 839 q 138 729 118 753 q 188 704 158 704 q 223 716 209 704 q 238 749 238 729 q 237 757 238 754 q 224 780 235 774 q 202 785 214 785 q 196 789 196 785 q 199 796 196 791 q 220 810 205 804 q 248 817 234 817 q 299 797 279 817 q 319 745 319 778 q 282 677 319 707 q 201 648 245 648 q 114 690 146 648 q 83 798 83 731 q 161 922 83 870 q 326 970 234 970 q 421 951 373 970 q 518 915 470 933 q 616 897 567 897 q 708 924 670 897 q 746 966 727 938 q 755 970 750 970 q 762 968 758 970 q 783 958 772 963 q 787 949 787 955 q 787 943 787 945 q 751 846 782 914 q 682 724 716 771 q 552 587 640 663 q 392 456 511 551 q 259 340 293 376 q 185 258 205 283 q 134 178 153 219 q 103 76 113 134 q 181 129 144 111 q 281 153 231 153 q 412 125 344 153 q 525 73 468 99 q 643 45 591 45 q 713 67 686 45 q 745 142 745 94 q 722 200 745 176 q 663 224 699 224 q 610 205 625 224 q 601 174 601 193 q 594 166 601 166 q 587 168 591 166 q 572 189 578 176 q 566 218 566 203 q 597 286 566 259 q 673 312 629 312 q 765 271 728 312 q 803 174 803 230 z "},"[":{"ha":397,"x_min":141,"x_max":361,"o":"m 361 921 l 361 913 l 354 914 q 342 922 347 920 q 321 930 332 928 q 283 933 311 932 q 231 936 256 935 l 231 -180 q 280 -178 255 -180 q 318 -175 306 -177 q 340 -169 331 -172 q 353 -163 349 -166 l 358 -162 l 359 -167 l 358 -187 q 358 -204 358 -196 q 359 -218 358 -212 q 358 -226 361 -224 q 351 -225 355 -229 q 339 -218 345 -220 q 316 -214 328 -214 l 141 -214 l 141 970 l 316 970 q 338 972 330 970 q 353 981 345 975 l 357 981 l 359 977 l 358 943 q 359 927 358 931 q 361 921 359 924 z "},"\\":{"ha":406,"x_min":-100,"x_max":503,"o":"m 498 -73 q 503 -80 503 -77 q 497 -86 503 -83 q 477 -90 491 -90 q 469 -89 473 -90 q 463 -87 465 -87 q 404 -54 434 -77 q 327 37 361 -20 q 279 125 305 69 q 226 255 258 171 q 163 423 193 340 q 111 577 144 475 q 57 742 74 694 q 0 884 25 833 q -43 953 -18 925 q -96 1000 -62 975 q -100 1004 -100 1002 q -91 1012 -100 1008 q -72 1015 -82 1015 q -60 1013 -65 1015 q 3 978 -29 1003 q 77 890 47 943 q 136 758 102 849 q 196 586 155 709 q 248 437 232 479 q 294 310 264 395 q 339 184 323 225 q 403 42 368 113 q 443 -19 417 13 q 498 -73 469 -50 z "},"]":{"ha":397,"x_min":35,"x_max":256,"o":"m 256 -214 l 81 -214 q 60 -217 68 -214 q 46 -225 53 -220 q 39 -226 42 -228 q 38 -218 37 -224 q 39 -187 39 -194 l 38 -167 l 39 -162 l 45 -163 q 57 -169 50 -166 q 80 -175 64 -172 q 114 -178 87 -176 q 167 -180 142 -179 l 167 936 q 117 934 142 935 q 79 930 92 932 q 56 922 66 928 q 43 914 51 920 l 37 913 q 37 921 35 916 q 39 943 39 929 l 38 977 l 39 981 l 45 981 q 62 972 52 975 q 81 970 71 970 l 256 970 l 256 -214 z "},"^":{"ha":678,"x_min":33,"x_max":671,"o":"m 666 369 q 671 363 671 365 q 664 360 671 360 q 658 361 660 361 q 640 362 652 361 q 620 363 627 363 q 600 363 610 363 q 580 361 590 362 q 571 362 574 362 q 549 370 555 362 q 429 538 492 457 q 351 628 370 614 q 308 581 340 620 q 235 487 271 535 q 153 370 194 432 q 136 362 149 362 q 123 361 132 361 q 103 362 114 361 q 83 363 93 363 q 62 362 75 363 q 43 359 49 360 q 33 363 33 359 q 37 369 33 365 q 141 475 95 422 q 210 561 174 513 q 275 651 245 608 q 316 711 294 677 l 387 711 q 412 673 400 689 q 494 560 442 629 q 562 476 526 517 q 666 369 611 420 z "},"_":{"ha":678,"x_min":0,"x_max":678,"o":"m 678 -198 l 0 -198 l 0 -132 l 678 -132 l 678 -198 z "},"`":{"ha":678,"x_min":213,"x_max":494,"o":"m 492 1024 q 483 1011 488 1016 q 473 1010 478 1006 q 426 1037 443 1027 q 336 1086 357 1076 q 254 1132 292 1111 q 218 1152 223 1149 q 213 1157 213 1154 q 220 1166 213 1160 q 230 1177 227 1173 q 240 1191 236 1185 l 259 1225 q 267 1229 262 1229 q 273 1226 270 1229 q 372 1138 290 1208 q 450 1070 380 1131 q 488 1035 474 1049 q 492 1024 494 1029 z "},"a":{"ha":735,"x_min":79,"x_max":677,"o":"m 673 18 q 677 7 677 10 q 667 0 677 0 q 645 2 665 0 q 608 4 625 4 q 581 2 595 4 q 563 0 566 0 q 547 7 547 0 q 551 15 547 10 q 561 34 557 24 q 564 56 564 43 l 560 121 q 473 24 534 65 q 331 -22 405 -22 q 155 40 227 -22 q 79 209 79 105 q 161 384 79 313 q 351 452 241 452 q 454 431 405 452 q 529 380 503 410 q 494 469 529 410 q 399 583 454 538 q 256 640 330 640 q 178 621 211 640 q 141 562 141 600 q 152 526 141 540 q 183 511 163 511 q 207 520 197 511 q 217 541 217 529 q 215 558 217 550 q 210 574 212 567 q 211 580 208 578 q 220 581 212 581 q 254 563 239 578 q 270 528 270 547 q 244 474 270 496 q 186 453 219 453 q 121 479 146 453 q 95 551 95 506 q 157 642 95 609 q 288 670 211 670 q 436 622 363 670 q 555 492 509 574 q 606 349 587 435 q 629 200 618 295 q 647 71 640 106 q 660 37 650 53 q 673 18 670 22 m 557 235 q 501 357 557 311 q 353 403 444 403 q 222 354 278 403 q 167 233 167 305 q 223 104 167 157 q 358 52 280 52 q 503 103 448 52 q 557 235 557 154 z "},"b":{"ha":753,"x_min":51,"x_max":694,"o":"m 694 366 q 608 94 694 205 q 376 -22 518 -22 q 274 0 319 -22 q 199 62 229 22 q 177 15 193 38 q 151 -15 164 -4 q 141 -19 145 -19 q 134 -14 140 -19 q 122 1 129 -8 q 109 18 113 13 l 76 52 q 73 58 73 55 q 79 66 73 63 q 110 89 100 75 q 129 167 129 115 l 129 792 q 127 823 129 812 q 111 833 126 835 q 85 820 102 831 q 62 806 68 808 q 54 806 58 804 q 51 811 51 807 q 56 823 51 817 q 83 850 61 829 q 136 902 119 885 q 187 958 161 927 q 211 983 207 981 q 218 986 215 986 q 224 975 224 986 q 218 924 219 930 q 216 853 216 887 l 216 526 q 301 621 250 583 q 434 670 366 670 q 623 587 551 670 q 694 366 694 504 m 605 346 q 554 522 605 450 q 410 600 499 600 q 270 538 325 600 q 216 384 216 477 l 216 172 q 259 56 216 98 q 368 18 300 18 q 543 123 475 18 q 605 346 605 218 z "},"c":{"ha":686,"x_min":64,"x_max":650,"o":"m 650 164 q 644 141 650 155 q 567 41 623 86 q 389 -22 490 -22 q 153 68 241 -22 q 64 320 64 159 q 165 565 64 460 q 408 670 267 670 q 551 627 490 670 q 617 506 617 579 q 578 402 617 444 q 481 359 539 359 q 397 388 433 359 q 359 465 359 418 q 380 522 359 496 q 416 551 397 546 q 428 549 424 553 q 430 540 432 545 q 425 524 427 530 q 421 500 421 511 q 422 488 421 492 q 444 456 426 467 q 486 445 462 445 q 538 469 518 445 q 557 528 557 492 q 508 609 557 579 q 403 636 463 636 q 217 549 288 636 q 146 331 146 462 q 219 136 146 217 q 406 53 294 53 q 522 74 475 53 q 617 151 568 94 q 625 162 618 152 q 635 172 631 170 q 644 173 638 174 q 650 164 650 171 z "},"d":{"ha":773,"x_min":68,"x_max":703,"o":"m 699 47 q 688 39 695 45 q 668 22 675 29 q 650 5 660 15 q 642 -4 644 -1 q 631 -10 636 -10 q 620 -5 627 -10 q 583 41 604 6 q 551 110 560 79 q 466 15 519 51 q 353 -22 414 -22 q 148 72 227 -22 q 68 309 68 165 q 149 558 68 454 q 369 670 236 670 q 469 652 425 670 q 547 600 509 635 l 547 792 q 545 823 547 812 q 529 833 544 835 q 507 822 521 832 q 484 807 488 808 q 478 805 481 805 q 469 813 469 805 q 474 823 469 817 q 500 850 478 829 q 553 902 541 889 q 604 957 576 925 q 628 983 623 979 q 632 985 629 985 q 635 986 634 986 q 642 975 642 986 q 636 924 637 930 q 633 853 633 887 l 633 174 q 648 107 633 134 q 696 64 662 81 q 703 54 703 60 q 699 47 703 50 m 547 231 l 547 460 q 490 589 547 542 q 362 632 439 632 q 206 547 271 632 q 145 359 145 465 q 205 147 145 233 q 378 54 271 54 q 494 99 447 54 q 547 231 547 149 z "},"e":{"ha":682,"x_min":68,"x_max":672,"o":"m 669 144 q 584 36 651 86 q 412 -23 505 -23 q 307 -10 353 -23 q 206 41 254 5 q 172 -11 187 17 q 152 -61 152 -45 q 162 -87 152 -80 q 184 -92 169 -92 q 194 -91 189 -92 q 202 -88 198 -90 q 207 -88 205 -87 q 209 -99 212 -91 q 193 -129 205 -115 q 155 -146 176 -146 q 117 -130 132 -146 q 102 -85 102 -113 q 117 -33 102 -64 q 175 64 121 -24 q 98 176 125 115 q 68 320 68 243 q 160 566 68 463 q 391 670 253 670 q 503 644 446 670 q 567 613 535 628 q 585 609 573 610 q 608 608 596 608 l 628 609 q 635 603 635 609 q 631 595 635 598 q 607 577 620 589 q 576 547 589 562 q 424 355 511 473 q 260 117 337 236 q 342 73 300 88 q 444 54 391 54 q 564 82 517 54 q 642 155 599 102 q 651 168 646 161 q 663 174 656 175 q 672 161 672 172 q 669 144 672 153 m 483 544 q 439 606 483 584 q 351 625 403 625 q 193 543 255 625 q 134 359 134 466 q 165 233 134 296 q 229 142 191 180 q 301 249 275 211 q 372 351 342 310 q 446 457 409 404 q 483 544 483 514 z "},"f":{"ha":404,"x_min":9,"x_max":407,"o":"m 407 891 q 387 834 407 859 q 336 810 368 810 q 290 824 310 810 q 270 861 270 838 q 285 897 270 884 q 289 897 287 899 q 293 888 292 895 q 298 878 294 882 q 318 870 305 870 q 324 871 322 871 q 342 881 335 872 q 350 903 350 889 q 335 930 350 920 q 301 940 321 940 q 248 910 264 940 q 231 825 231 880 l 231 646 q 275 646 253 646 q 320 648 296 647 q 330 639 330 648 l 330 616 q 320 605 330 605 q 287 606 317 605 q 231 608 257 608 l 231 31 q 193 -163 231 -85 q 115 -260 165 -222 q 47 -296 89 -279 q 38 -295 42 -298 q 32 -285 33 -292 q 31 -269 31 -277 q 26 -251 28 -258 q 18 -227 22 -236 q 11 -210 14 -218 q 12 -203 9 -205 q 20 -202 14 -201 q 41 -205 31 -203 q 107 -167 83 -205 q 144 26 144 -111 l 144 608 q 102 607 122 608 q 62 605 83 606 q 53 616 53 605 l 53 637 q 65 648 53 648 q 95 647 68 648 q 144 646 121 646 l 144 768 q 189 911 144 852 q 305 970 234 970 q 376 948 345 970 q 407 891 407 927 z "},"g":{"ha":745,"x_min":37,"x_max":694,"o":"m 694 -64 q 569 -241 694 -174 q 312 -298 460 -298 q 125 -255 205 -298 q 37 -133 37 -208 q 63 -61 37 -87 q 130 -34 89 -34 q 192 -51 169 -34 q 220 -98 216 -68 q 221 -108 221 -104 q 213 -134 221 -123 q 206 -138 209 -138 q 201 -134 202 -138 q 177 -105 193 -115 q 141 -96 162 -96 q 108 -113 121 -96 q 95 -149 95 -130 q 165 -235 95 -203 q 313 -262 226 -262 q 503 -205 420 -262 q 593 -57 593 -145 q 522 69 593 20 q 369 114 458 114 q 233 88 288 114 q 179 49 205 75 q 165 50 173 43 q 142 66 151 59 q 127 79 134 73 q 129 91 122 84 q 165 115 130 92 q 197 137 178 122 q 254 186 234 164 q 281 222 269 202 q 141 290 205 237 q 61 448 61 357 q 149 611 61 547 q 342 670 230 670 q 443 662 402 670 q 530 628 484 653 q 552 659 544 643 q 563 707 563 682 q 553 738 563 726 q 518 750 541 752 q 498 745 507 750 q 487 735 494 743 q 481 733 484 732 q 480 741 479 734 q 495 783 484 764 q 541 810 513 810 q 601 783 581 810 q 618 719 618 760 q 600 653 618 688 q 566 609 585 623 q 636 532 613 574 q 659 433 659 490 q 571 271 659 333 q 372 214 490 214 q 348 215 361 214 q 327 217 334 216 q 288 170 315 197 q 240 130 260 143 q 313 146 275 142 q 391 151 350 151 q 591 102 507 151 q 694 -64 694 43 m 567 434 q 556 508 567 477 q 518 570 545 539 q 487 554 503 559 q 450 549 471 549 q 390 571 412 549 q 373 606 373 588 q 376 614 373 614 q 381 610 378 614 q 397 594 391 598 q 437 583 414 583 q 467 587 453 583 q 491 598 480 591 q 435 631 472 617 q 361 646 399 646 q 210 590 274 646 q 146 450 146 534 q 185 323 146 377 q 293 251 223 270 q 297 276 297 264 q 283 319 297 296 q 289 331 279 327 q 306 337 299 334 q 328 345 313 339 q 352 358 342 351 q 373 372 361 364 q 380 373 377 376 q 382 365 382 371 q 369 311 382 349 q 342 247 355 273 q 366 245 354 245 q 502 300 439 245 q 567 434 567 359 z "},"h":{"ha":754,"x_min":56,"x_max":651,"o":"m 651 416 q 616 224 651 316 q 511 54 581 132 q 518 54 513 54 q 532 54 524 54 q 572 56 553 54 q 608 70 590 58 q 630 87 625 84 q 637 91 634 91 q 643 81 643 91 q 639 55 641 68 q 637 35 637 41 q 640 6 637 22 q 642 -14 642 -10 q 636 -24 642 -24 q 628 -20 633 -24 q 599 -4 613 -9 q 570 3 585 1 q 527 5 556 5 q 496 4 507 5 q 465 0 484 3 q 452 -1 457 -1 q 444 1 446 -1 q 443 10 441 5 q 448 20 444 15 q 505 115 484 77 q 552 224 536 174 q 571 351 571 287 q 524 524 571 457 q 389 594 474 594 q 287 561 333 594 q 220 483 248 532 l 220 66 q 234 43 220 56 q 259 22 246 32 q 267 8 267 14 q 252 0 267 0 q 232 1 240 0 q 176 4 190 4 q 137 3 152 4 q 102 0 121 1 q 85 8 85 0 q 92 20 85 12 q 117 41 109 34 q 133 66 133 55 l 133 792 q 132 823 133 812 q 115 833 130 835 q 90 820 108 831 q 66 806 73 808 q 56 813 56 802 q 60 823 56 817 q 98 861 64 829 q 140 902 124 886 q 190 957 163 925 q 214 983 209 979 q 218 985 216 985 q 222 986 220 986 q 228 975 228 986 q 222 921 224 954 q 220 853 220 889 l 220 541 q 287 621 250 590 q 411 670 345 670 q 599 578 533 670 q 651 416 651 506 z "},"i":{"ha":380,"x_min":86,"x_max":274,"o":"m 251 841 q 233 801 251 817 q 190 784 215 784 q 149 802 165 784 q 132 844 132 819 q 150 885 132 868 q 193 902 168 902 q 234 884 217 902 q 251 841 251 865 m 266 22 q 274 8 274 14 q 259 0 274 0 q 239 1 247 0 q 183 4 197 4 q 143 3 159 4 q 109 0 128 1 q 92 8 92 0 q 99 20 92 12 q 124 41 116 34 q 140 66 140 55 l 140 522 q 123 568 140 556 q 94 578 102 575 q 86 586 86 581 q 93 595 86 590 q 115 608 99 600 q 151 628 138 620 q 200 661 182 648 q 223 677 218 674 q 230 681 228 681 q 236 669 239 681 q 230 619 233 654 q 227 537 227 585 l 227 66 q 241 43 227 56 q 266 22 253 32 z "},"j":{"ha":353,"x_min":14,"x_max":247,"o":"m 244 841 q 226 801 244 817 q 183 784 208 784 q 142 802 159 784 q 125 844 125 819 q 143 885 125 868 q 186 902 161 902 q 227 884 210 902 q 244 841 244 865 m 243 -76 q 241 -85 247 -80 q 230 -96 237 -89 q 217 -113 223 -103 q 148 -234 182 -173 q 62 -298 106 -298 q 28 -287 42 -298 q 14 -255 14 -275 q 22 -231 14 -241 q 45 -221 31 -221 q 68 -232 62 -221 q 72 -250 74 -242 q 71 -256 71 -252 q 76 -263 71 -263 q 83 -262 77 -263 q 115 -224 101 -255 q 133 -110 133 -182 l 133 522 q 117 568 133 556 q 87 578 96 575 q 79 586 79 581 q 86 595 79 590 q 108 608 92 600 q 144 628 131 620 q 194 661 176 648 q 216 677 212 674 q 223 681 221 681 q 229 669 233 681 q 223 619 226 654 q 220 537 220 585 l 220 -1 q 226 -50 220 -32 q 243 -76 230 -63 z "},"k":{"ha":673,"x_min":56,"x_max":666,"o":"m 666 35 q 648 -2 666 14 q 608 -18 631 -18 q 522 28 559 -18 q 465 130 500 55 q 403 235 429 204 q 321 313 357 289 q 220 346 274 346 l 220 66 q 234 43 220 56 q 259 22 246 32 q 267 8 267 14 q 252 0 267 0 q 232 1 240 0 q 176 4 190 4 q 137 3 152 4 q 102 0 121 1 q 85 8 85 0 q 92 20 85 12 q 117 41 109 34 q 133 66 133 55 l 133 792 q 132 823 133 812 q 115 833 130 835 q 90 820 108 831 q 66 806 73 808 q 56 813 56 802 q 60 823 56 817 q 98 861 64 829 q 140 902 124 886 q 190 957 163 925 q 214 983 209 979 q 218 985 216 985 q 222 986 220 986 q 228 975 228 986 q 222 921 224 954 q 220 853 220 889 l 220 393 q 307 432 260 408 q 415 498 372 465 q 481 557 463 536 q 509 631 509 591 q 497 663 509 650 q 467 677 486 677 q 444 669 453 677 q 433 651 434 661 q 427 633 433 633 q 419 636 424 633 q 400 655 408 642 q 392 685 392 669 q 417 742 392 719 q 477 765 442 765 q 544 734 517 765 q 571 661 571 703 q 539 559 571 606 q 463 483 513 519 q 380 431 432 460 q 278 380 319 395 q 377 351 334 369 q 484 277 448 321 q 531 195 515 239 q 549 108 544 159 q 557 50 555 57 q 585 24 565 21 q 590 40 589 25 q 591 57 591 56 q 625 80 597 80 q 655 67 645 80 q 666 35 666 54 z "},"l":{"ha":380,"x_min":63,"x_max":274,"o":"m 266 22 q 274 8 274 14 q 259 0 274 0 q 239 1 247 0 q 183 4 197 4 q 143 3 159 4 q 109 0 128 1 q 92 8 92 0 q 99 20 92 12 q 124 41 116 34 q 140 66 140 55 l 140 792 q 138 823 140 812 q 122 833 137 835 q 97 820 115 831 q 73 806 79 808 q 63 813 63 802 q 67 823 63 817 q 104 861 71 829 q 146 902 131 886 q 197 957 170 925 q 221 983 216 979 q 225 985 222 985 q 229 986 227 986 q 235 975 235 986 q 229 921 231 954 q 227 853 227 889 l 227 66 q 241 43 227 56 q 266 22 253 32 z "},"m":{"ha":1038,"x_min":46,"x_max":933,"o":"m 933 419 q 888 230 933 330 q 773 54 845 136 q 780 54 775 54 q 794 54 785 54 q 834 56 815 54 q 871 71 853 58 q 894 90 882 80 q 902 91 898 94 q 905 81 905 88 q 901 55 903 68 q 899 35 899 41 q 900 11 899 20 q 903 -12 901 1 q 899 -24 905 -24 q 888 -19 894 -24 q 860 -5 876 -10 q 831 3 844 1 q 789 5 818 5 q 758 4 769 5 q 727 0 746 3 q 722 -1 724 -1 q 718 -1 719 -1 q 705 8 705 -1 q 709 20 705 12 q 768 120 743 73 q 819 235 802 182 q 841 353 841 300 q 809 526 841 464 q 690 598 771 598 q 627 585 657 598 q 574 544 597 572 q 591 463 586 511 q 597 362 597 416 q 566 207 597 296 q 505 70 541 137 q 463 3 475 15 q 454 0 460 0 q 441 4 443 0 q 440 12 439 7 q 445 23 444 21 q 505 351 505 146 q 467 519 505 450 q 359 594 425 594 q 275 557 315 594 q 227 483 242 526 l 227 66 q 242 42 227 55 q 267 22 254 32 q 275 8 275 14 q 260 0 275 0 q 221 2 253 0 q 183 4 189 4 q 143 3 159 4 q 109 0 128 1 q 93 7 93 0 q 100 20 93 13 q 125 41 117 34 q 140 66 140 55 l 140 468 q 104 562 140 526 q 52 597 90 575 q 46 605 46 600 q 50 612 46 608 q 81 640 61 620 q 97 656 92 650 q 107 668 102 663 q 115 673 111 673 q 122 669 118 673 q 174 612 148 646 q 216 532 210 566 q 270 613 239 581 q 395 670 324 670 q 498 637 453 670 q 560 572 530 615 q 622 638 587 613 q 716 670 666 670 q 890 580 833 670 q 933 419 933 513 z "},"n":{"ha":762,"x_min":47,"x_max":658,"o":"m 658 416 q 623 224 658 316 q 518 54 587 132 q 525 54 520 54 q 539 54 530 54 q 578 56 560 54 q 614 70 597 58 q 637 88 632 84 q 642 90 639 90 q 644 91 644 91 q 648 79 652 91 q 646 54 647 68 q 644 35 644 40 q 645 14 644 25 q 647 -9 646 3 q 642 -23 650 -23 q 635 -20 638 -23 q 606 -5 614 -9 q 577 3 591 1 q 534 5 563 5 q 503 4 514 5 q 472 0 491 3 q 452 12 452 -3 q 454 20 452 17 q 511 115 491 77 q 559 224 543 174 q 578 351 578 287 q 530 524 578 458 q 396 594 481 594 q 294 562 339 594 q 227 483 253 534 l 227 66 q 241 41 227 54 q 267 20 254 31 q 275 7 275 13 q 263 0 275 0 q 233 2 260 0 q 183 4 205 4 q 142 3 157 4 q 107 0 127 1 q 91 7 91 0 q 97 19 91 12 q 117 37 103 26 q 140 66 140 54 l 140 468 q 105 562 140 526 q 53 597 90 577 q 47 604 47 600 q 52 613 47 609 q 66 626 60 621 q 82 641 73 631 q 97 656 92 650 q 107 669 102 663 q 115 672 110 672 q 121 670 119 672 q 172 615 145 650 q 216 532 210 567 q 288 616 245 581 q 418 670 352 670 q 606 578 540 670 q 658 416 658 506 z "},"o":{"ha":796,"x_min":50,"x_max":741,"o":"m 741 320 q 636 77 741 178 q 396 -22 534 -22 q 150 80 250 -22 q 50 327 50 181 q 152 569 50 469 q 397 670 254 670 q 641 568 541 670 q 741 320 741 465 m 682 290 q 579 503 682 402 q 346 608 473 608 q 178 540 247 608 q 109 380 109 472 q 214 142 109 246 q 441 41 317 41 q 608 104 539 41 q 682 290 682 174 z "},"p":{"ha":777,"x_min":52,"x_max":712,"o":"m 712 397 q 612 96 712 218 q 387 -22 516 -22 q 302 -4 340 -22 q 231 46 271 10 l 231 -99 q 245 -161 231 -137 q 271 -190 253 -173 q 277 -199 277 -195 q 268 -208 277 -204 q 245 -217 258 -212 q 197 -244 224 -227 q 161 -269 178 -256 q 127 -297 144 -283 q 118 -300 122 -300 q 113 -286 111 -300 q 135 -214 126 -250 q 144 -140 144 -178 l 144 468 q 108 563 144 526 q 56 598 93 578 q 52 604 52 600 q 53 608 52 606 q 56 613 54 611 q 67 624 59 617 q 85 640 79 633 q 101 656 96 650 q 111 669 106 663 q 119 672 113 672 q 125 670 123 672 q 179 616 153 649 q 225 519 218 566 q 298 612 252 572 q 449 670 366 670 q 597 621 533 670 q 684 510 651 579 q 712 397 712 449 m 621 349 q 567 520 621 446 q 426 598 510 598 q 303 554 356 598 q 231 456 260 518 l 231 61 l 258 87 q 276 106 269 98 q 293 129 283 114 q 300 133 296 133 q 305 122 309 133 q 302 109 304 121 q 300 90 300 97 q 307 60 300 73 q 341 30 315 42 q 393 18 366 18 q 559 109 496 18 q 621 349 621 201 z "},"q":{"ha":762,"x_min":61,"x_max":713,"o":"m 708 597 q 713 589 713 593 q 707 582 713 585 q 654 555 659 559 q 617 472 617 527 l 617 -99 q 632 -161 617 -137 q 658 -190 640 -173 q 664 -200 664 -196 q 655 -208 664 -205 q 619 -224 637 -215 q 583 -244 601 -233 q 541 -275 561 -259 q 515 -296 516 -295 q 505 -300 509 -300 q 497 -292 497 -300 q 499 -285 497 -288 q 522 -213 513 -248 q 530 -140 530 -178 l 530 98 q 454 17 498 45 q 330 -18 400 -18 q 138 85 215 -18 q 61 328 61 187 q 148 571 61 472 q 357 670 235 670 q 469 638 418 670 q 544 566 510 612 q 586 625 551 591 q 636 663 616 653 q 643 665 642 665 q 651 661 649 665 q 663 645 656 652 q 677 629 672 635 q 694 611 685 621 q 708 597 703 601 m 530 241 l 530 467 q 479 578 530 532 q 354 624 427 624 q 200 543 258 624 q 148 366 148 470 q 204 155 148 241 q 374 57 267 57 q 495 115 454 57 q 530 241 530 164 z "},"r":{"ha":557,"x_min":39,"x_max":547,"o":"m 547 571 q 526 507 547 532 q 469 483 505 483 q 426 490 444 483 q 403 509 408 496 q 402 515 401 511 q 408 518 404 518 q 431 522 420 518 q 450 534 441 525 q 461 566 461 547 q 444 602 461 588 q 385 617 423 617 q 290 574 337 617 q 227 483 249 536 l 227 66 q 241 41 227 54 q 267 20 254 31 q 274 8 274 14 q 259 0 274 0 q 239 1 247 0 q 183 4 197 4 q 142 3 157 4 q 107 0 127 1 q 92 7 92 0 q 100 22 92 14 q 119 37 113 32 q 140 66 140 54 l 140 468 q 115 545 140 515 q 42 590 98 566 q 39 594 39 591 q 42 601 39 598 l 73 631 q 89 648 82 640 q 98 659 91 650 q 106 664 102 664 q 113 662 109 664 q 169 616 151 635 q 216 532 210 575 q 290 626 241 588 q 418 670 348 670 q 512 641 478 670 q 547 571 547 612 z "},"s":{"ha":675,"x_min":56,"x_max":606,"o":"m 606 218 q 513 43 606 111 q 307 -22 427 -22 q 138 12 205 -22 q 56 132 56 52 q 100 234 56 192 q 206 275 144 275 q 310 252 270 275 q 355 178 355 226 q 333 124 355 147 q 281 102 311 102 q 239 113 252 102 q 235 118 235 116 q 244 125 235 123 q 263 139 256 129 q 271 171 271 149 q 250 203 271 191 q 205 216 229 216 q 124 193 157 216 q 91 129 91 170 q 163 41 91 72 q 307 15 224 15 q 457 54 393 15 q 533 176 533 99 q 477 291 533 254 q 346 338 443 314 q 235 363 290 350 q 144 407 173 380 q 106 506 106 442 q 182 626 106 578 q 345 670 253 670 q 478 649 427 670 q 545 563 545 621 q 509 501 545 526 q 433 479 476 479 q 363 494 391 479 q 330 549 330 513 q 342 581 330 567 q 370 600 355 595 q 378 601 377 601 q 382 594 382 601 l 381 581 q 391 556 381 566 q 430 544 403 544 q 460 556 448 544 q 473 585 473 568 q 429 628 473 615 q 345 637 397 637 q 227 608 279 637 q 170 528 170 576 q 208 460 170 484 q 359 415 231 444 q 481 380 439 397 q 571 321 541 356 q 606 218 606 281 z "},"t":{"ha":404,"x_min":53,"x_max":330,"o":"m 330 616 q 320 605 330 605 q 287 606 317 605 q 231 608 257 608 l 231 159 q 258 77 231 111 q 297 41 265 67 q 302 31 302 37 q 297 24 302 28 q 285 16 292 20 q 271 5 276 9 q 247 -19 252 -12 q 236 -24 241 -24 q 227 -22 231 -24 q 175 34 197 -5 q 144 165 144 89 l 144 608 q 102 607 122 608 q 62 605 83 606 q 53 616 53 605 l 53 637 q 65 648 53 648 q 95 647 68 648 q 144 646 121 646 l 144 697 q 127 741 144 736 q 111 743 115 743 q 102 753 102 743 q 106 761 102 757 q 136 788 121 774 q 171 822 152 803 q 204 859 193 844 q 228 888 216 874 q 233 892 230 892 q 239 882 239 892 q 235 846 237 864 q 231 758 231 804 l 231 646 q 275 646 253 646 q 320 648 296 647 q 330 639 330 648 l 330 616 z "},"u":{"ha":781,"x_min":91,"x_max":699,"o":"m 697 43 q 680 29 696 41 q 665 15 673 24 q 649 -2 656 6 q 640 -14 648 -4 q 633 -18 637 -18 q 624 -15 629 -18 q 574 30 597 2 q 541 113 541 71 q 471 28 519 66 q 340 -20 409 -20 q 149 62 216 -20 q 91 241 91 133 q 106 361 91 304 q 145 459 119 408 q 193 544 155 477 q 183 560 196 551 q 152 575 175 566 q 127 587 140 581 q 122 594 122 589 q 133 602 122 599 q 157 607 144 604 q 202 621 178 612 q 249 642 227 630 q 292 665 271 653 q 299 667 297 667 q 304 663 302 667 q 304 653 307 660 q 300 644 302 647 q 207 486 239 566 q 168 297 168 392 q 218 119 168 189 q 351 49 268 49 q 461 83 408 49 q 534 167 515 118 l 534 582 q 517 610 534 594 q 491 632 504 621 q 487 640 487 636 q 500 648 487 648 q 540 646 508 648 q 578 644 572 644 q 621 645 606 644 q 656 648 636 646 q 669 640 669 648 q 665 631 669 635 q 640 610 649 618 q 621 582 621 595 l 621 182 q 650 92 621 125 q 694 58 660 81 q 699 50 699 56 q 697 43 699 47 z "},"v":{"ha":673,"x_min":35,"x_max":600,"o":"m 600 594 q 587 500 600 550 q 553 407 576 461 q 512 318 537 368 q 460 214 488 268 q 406 114 448 191 q 351 15 378 64 q 336 -16 344 -1 q 328 -22 332 -22 q 319 -16 323 -22 q 301 12 310 -5 q 260 88 283 48 q 225 152 234 134 q 176 258 206 189 q 129 391 149 320 q 102 505 114 441 q 88 585 93 549 q 68 612 87 597 q 39 633 54 623 q 35 642 35 638 q 46 648 35 648 q 82 647 54 649 q 130 644 111 644 q 179 647 150 644 q 214 648 208 649 q 224 641 224 648 q 220 632 224 636 q 194 611 203 619 q 179 582 178 596 q 197 456 185 514 q 240 313 212 384 q 294 189 271 234 q 350 94 312 154 q 408 213 378 149 q 468 345 444 288 q 516 470 499 416 q 538 591 538 542 q 525 638 538 616 q 484 664 509 664 q 477 663 479 663 q 445 639 455 661 q 442 629 443 634 q 441 622 441 625 q 442 613 441 616 q 437 602 444 602 q 430 605 435 602 q 411 625 420 610 q 400 661 400 642 q 424 713 400 692 q 479 735 448 735 q 570 690 538 735 q 600 594 600 650 z "},"w":{"ha":909,"x_min":25,"x_max":852,"o":"m 852 606 q 828 486 852 558 q 773 347 810 432 q 718 224 749 292 q 669 114 682 144 q 623 5 642 54 l 614 -16 q 606 -22 610 -22 q 598 -16 602 -22 l 589 3 q 538 106 554 71 q 495 210 517 152 q 475 267 488 229 q 444 354 451 336 q 439 364 441 359 q 435 369 437 369 q 427 355 433 369 q 370 195 406 304 q 335 94 357 154 q 302 3 319 48 q 299 -7 302 -1 q 294 -16 296 -14 q 287 -22 291 -22 q 280 -18 283 -22 q 274 -7 277 -14 q 270 4 271 1 q 229 111 249 62 q 190 210 195 197 q 142 351 168 269 q 109 469 128 397 q 76 586 89 541 q 58 611 75 597 q 31 631 44 621 q 25 641 25 635 q 41 648 25 648 q 61 648 53 648 q 115 644 102 644 q 162 646 136 644 q 193 648 188 648 q 206 641 206 648 q 201 632 206 636 q 173 612 186 622 q 160 583 157 597 q 188 487 170 541 q 224 380 224 380 q 301 130 262 255 q 342 251 317 182 q 374 340 364 311 q 413 440 392 388 q 445 519 442 512 q 451 533 448 527 q 458 545 454 540 q 464 549 461 549 q 471 543 468 549 l 479 521 q 549 313 504 437 q 597 191 578 235 q 628 126 612 157 q 688 269 666 214 q 754 445 732 378 q 785 582 785 540 q 774 652 785 627 q 731 685 761 685 q 708 679 715 685 q 694 661 701 673 q 690 649 692 655 q 689 633 689 643 q 682 627 688 627 q 677 627 680 627 q 674 629 675 629 q 653 652 663 637 q 644 684 644 668 q 673 737 644 718 q 741 757 702 757 q 829 709 800 757 q 852 606 852 670 z "},"x":{"ha":623,"x_min":3,"x_max":587,"o":"m 578 19 q 587 7 587 14 q 575 0 587 0 q 541 1 572 0 q 480 3 510 3 q 440 2 460 3 q 397 0 420 1 q 383 8 383 0 q 388 18 383 13 q 407 31 397 24 q 418 52 418 41 q 412 68 418 58 q 338 171 361 138 q 267 277 299 227 q 190 182 232 243 q 140 72 140 109 q 152 24 140 39 q 172 11 157 19 q 178 1 178 7 q 172 -7 178 -5 q 153 -9 161 -8 q 85 -42 123 -16 q 38 -89 57 -62 q 18 -121 28 -104 q 9 -125 14 -125 q 4 -117 4 -125 q 3 -109 3 -115 q 24 -24 3 -81 q 80 98 44 32 q 160 222 113 159 q 244 320 205 282 q 167 460 208 380 q 111 585 127 540 q 84 614 105 600 q 53 632 68 623 q 47 641 47 635 q 61 648 47 648 q 83 648 74 648 q 142 644 127 644 q 190 647 161 644 q 225 648 218 649 q 236 641 236 648 q 231 632 236 635 q 212 617 218 623 q 201 591 201 606 q 202 582 201 589 q 247 465 213 532 q 304 365 265 428 q 414 483 387 450 q 483 609 483 565 q 469 653 483 639 q 435 665 457 665 q 414 658 423 665 q 399 636 406 652 q 391 629 395 629 q 385 632 387 629 q 372 669 372 644 q 398 725 372 703 q 460 747 425 747 q 529 716 503 747 q 555 632 555 685 q 518 529 555 587 q 431 422 488 481 q 328 327 391 381 q 387 241 357 284 q 448 157 410 208 q 511 76 480 114 q 559 32 532 51 q 578 19 568 25 z "},"y":{"ha":766,"x_min":91,"x_max":669,"o":"m 663 629 q 638 608 647 615 q 621 582 621 593 l 621 37 q 537 -208 621 -114 q 338 -298 457 -298 q 252 -285 284 -298 q 210 -228 210 -267 q 241 -181 210 -199 q 297 -165 273 -163 q 307 -173 307 -165 q 304 -180 307 -176 q 299 -189 301 -184 q 295 -204 295 -197 q 297 -216 295 -210 q 319 -244 302 -234 q 359 -255 337 -255 q 490 -181 442 -255 q 534 -8 534 -113 l 534 113 q 466 28 512 66 q 340 -20 407 -20 q 149 62 216 -20 q 91 241 91 133 q 106 359 91 304 q 145 453 119 404 q 193 536 147 457 q 183 552 196 543 q 152 567 175 557 q 127 579 140 573 q 122 586 122 581 q 134 593 122 591 q 158 599 146 596 q 204 613 179 604 q 250 634 229 623 q 292 656 271 645 q 299 659 296 659 q 307 651 307 659 q 304 644 307 649 q 293 627 302 639 q 279 609 288 620 q 200 467 227 536 q 168 297 168 384 q 218 119 168 189 q 351 49 268 49 q 460 82 410 49 q 534 167 511 116 l 534 582 q 519 608 534 595 q 492 631 506 619 q 488 641 488 635 q 499 648 488 648 q 529 646 503 648 q 578 644 555 644 q 620 645 604 644 q 655 648 635 646 q 669 640 669 648 q 663 629 669 635 z "},"z":{"ha":656,"x_min":55,"x_max":594,"o":"m 594 140 q 539 31 594 75 q 411 -12 484 -12 q 282 18 377 -12 q 201 33 238 33 q 137 23 165 33 q 79 -5 109 14 q 73 -7 75 -7 q 66 -4 68 -7 l 58 5 q 55 14 55 9 q 57 19 55 16 q 71 42 64 30 q 81 62 77 54 q 124 156 102 109 q 164 237 146 204 q 217 326 186 277 q 325 473 277 416 q 453 602 373 530 q 399 605 429 605 q 291 593 342 605 q 197 563 239 582 q 113 515 155 544 q 84 494 98 504 q 76 490 79 490 q 73 493 73 490 q 75 502 73 498 q 92 536 79 513 q 121 587 113 572 q 149 647 132 610 q 163 674 159 669 q 167 677 165 676 q 170 677 169 677 q 179 673 174 677 q 193 654 187 659 q 241 643 208 643 l 576 643 q 591 637 591 643 q 585 628 591 633 q 519 567 528 576 q 439 486 483 532 q 361 397 392 437 q 243 227 295 312 q 165 72 190 138 q 203 90 186 85 q 252 98 224 98 q 328 83 286 98 q 449 50 420 50 q 527 69 498 50 q 555 122 555 87 q 543 156 555 141 q 513 171 530 171 q 490 164 499 171 q 476 147 481 157 q 472 123 472 137 q 469 117 472 119 q 461 118 465 116 q 442 139 450 123 q 434 174 434 155 q 457 221 434 202 q 511 240 480 240 q 571 210 548 240 q 594 140 594 180 z "},"{":{"ha":450,"x_min":30,"x_max":435,"o":"m 435 -206 q 307 -195 351 -206 q 235 -157 262 -183 q 182 24 182 -111 l 182 172 q 142 315 182 269 q 30 363 106 357 l 30 400 q 142 446 107 407 q 182 591 182 490 l 182 739 q 235 921 182 872 q 308 958 262 946 q 435 970 355 970 l 435 939 q 306 904 336 939 q 275 762 275 869 l 275 663 q 265 536 275 586 q 232 458 254 486 q 177 409 211 429 q 102 381 144 389 q 176 354 142 374 q 232 305 210 334 q 275 99 275 254 l 275 0 q 303 -140 275 -106 q 435 -176 334 -176 l 435 -206 z "},"|":{"ha":407,"x_min":163,"x_max":241,"o":"m 241 -320 l 163 -320 l 163 1036 l 241 1036 l 241 -320 z "},"}":{"ha":450,"x_min":15,"x_max":420,"o":"m 420 363 q 309 315 346 357 q 269 172 269 269 l 269 24 q 216 -157 269 -111 q 143 -195 188 -183 q 15 -206 99 -206 l 15 -176 q 146 -140 115 -176 q 175 0 175 -106 l 175 99 q 218 305 175 254 q 349 381 264 366 q 273 408 307 388 q 218 458 239 429 q 175 663 175 512 l 175 762 q 146 903 175 869 q 15 939 115 939 l 15 970 q 142 958 95 970 q 216 921 189 946 q 269 739 269 872 l 269 591 q 308 446 269 490 q 420 400 343 407 l 420 363 z "},"~":{"ha":678,"x_min":24,"x_max":656,"o":"m 656 590 q 596 467 639 522 q 480 397 543 397 q 378 445 427 397 q 300 534 339 489 q 205 582 253 582 q 132 526 160 582 q 103 399 103 471 l 24 469 q 87 592 49 542 q 201 661 139 661 q 304 613 256 661 q 380 524 342 568 q 476 476 427 476 q 549 532 521 476 q 578 659 578 587 l 656 590 z "},"":{"ha":1036,"x_min":26,"x_max":952,"o":"m 949 15 q 951 11 951 14 q 952 7 952 9 q 940 0 952 0 q 900 2 933 -1 q 853 4 866 4 q 788 1 831 4 q 765 0 772 -1 q 753 8 753 0 q 755 14 753 12 q 785 37 758 16 q 806 66 806 54 q 809 88 807 74 q 810 120 810 102 q 787 267 810 195 q 675 458 754 370 q 567 549 628 511 q 431 612 507 587 q 366 462 393 543 q 330 259 330 353 q 334 111 330 156 q 370 -28 342 33 q 423 -94 388 -66 q 472 -123 442 -109 q 480 -133 480 -127 q 473 -140 480 -138 q 436 -153 454 -146 q 394 -171 418 -159 q 354 -195 371 -182 q 332 -212 342 -203 q 323 -216 327 -216 q 317 -205 317 -216 q 315 -157 317 -184 q 305 -71 313 -130 q 283 68 293 -1 q 273 197 273 136 q 304 441 273 321 q 377 625 332 547 q 346 630 362 628 q 307 632 329 632 q 227 623 269 632 q 154 593 185 614 q 113 528 113 565 q 144 483 113 489 q 152 482 146 482 q 177 489 166 482 q 189 509 187 496 q 196 523 191 523 q 202 515 200 523 q 205 496 205 508 q 203 483 205 490 q 201 469 202 476 q 171 428 192 444 q 119 411 150 411 q 111 410 115 410 q 51 437 75 410 q 26 506 26 464 q 102 622 26 576 q 214 665 152 652 q 262 671 236 669 q 317 673 289 673 q 403 666 372 673 q 621 867 501 796 q 920 949 758 949 q 942 943 942 949 q 937 936 942 941 q 909 890 915 911 q 901 787 901 862 l 901 66 q 921 38 901 54 q 949 15 948 17 m 806 357 l 806 892 q 612 807 708 874 q 526 737 559 770 q 457 650 494 704 q 564 604 515 630 q 651 544 606 580 q 736 460 701 505 q 806 357 770 420 m 926 1085 q 909 1046 926 1062 q 868 1031 892 1031 q 828 1047 844 1031 q 812 1088 812 1064 q 829 1127 812 1111 q 871 1143 846 1143 q 910 1126 894 1143 q 926 1085 926 1109 m 720 1085 q 703 1046 720 1062 q 662 1031 686 1031 q 622 1047 638 1031 q 606 1088 606 1064 q 623 1127 606 1111 q 665 1143 640 1143 q 704 1126 688 1143 q 720 1085 720 1109 z "},"":{"ha":1036,"x_min":26,"x_max":952,"o":"m 949 15 q 951 11 951 14 q 952 7 952 9 q 940 0 952 0 q 900 2 933 -1 q 853 4 866 4 q 788 1 831 4 q 765 0 772 -1 q 753 8 753 0 q 755 14 753 12 q 785 37 758 16 q 806 66 806 54 q 809 88 807 74 q 810 120 810 102 q 787 267 810 195 q 675 458 754 370 q 567 549 628 511 q 431 612 507 587 q 366 462 393 543 q 330 259 330 353 q 334 111 330 156 q 370 -28 342 33 q 423 -94 388 -66 q 472 -123 442 -109 q 480 -133 480 -127 q 473 -140 480 -138 q 436 -153 454 -146 q 394 -171 418 -159 q 354 -195 371 -182 q 332 -212 342 -203 q 323 -216 327 -216 q 317 -205 317 -216 q 315 -157 317 -184 q 305 -71 313 -130 q 283 68 293 -1 q 273 197 273 136 q 304 441 273 321 q 377 625 332 547 q 346 630 362 628 q 307 632 329 632 q 227 623 269 632 q 154 593 185 614 q 113 528 113 565 q 144 483 113 489 q 152 482 146 482 q 177 489 166 482 q 189 509 187 496 q 196 523 191 523 q 202 515 200 523 q 205 496 205 508 q 203 483 205 490 q 201 469 202 476 q 171 428 192 444 q 119 411 150 411 q 111 410 115 410 q 51 437 75 410 q 26 506 26 464 q 102 622 26 576 q 214 665 152 652 q 262 671 236 669 q 317 673 289 673 q 403 666 372 673 q 621 867 501 796 q 920 949 758 949 q 942 943 942 949 q 937 936 942 941 q 909 890 915 911 q 901 787 901 862 l 901 66 q 921 38 901 54 q 949 15 948 17 m 806 357 l 806 892 q 612 807 708 874 q 526 737 559 770 q 457 650 494 704 q 564 604 515 630 q 651 544 606 580 q 736 460 701 505 q 806 357 770 420 m 936 1162 q 892 1057 936 1100 q 787 1013 849 1013 q 681 1057 724 1013 q 637 1162 637 1100 q 681 1269 637 1225 q 787 1313 724 1313 q 892 1269 849 1313 q 936 1162 936 1225 m 882 1162 q 854 1231 882 1202 q 787 1259 827 1259 q 719 1231 747 1259 q 692 1162 692 1202 q 719 1095 692 1122 q 787 1067 747 1067 q 854 1095 827 1067 q 882 1162 882 1122 z "},"":{"ha":841,"x_min":61,"x_max":914,"o":"m 914 956 q 897 915 914 933 q 869 892 890 907 q 863 890 865 890 q 860 898 859 890 q 866 912 864 907 q 867 927 867 918 q 863 951 867 939 q 836 981 855 971 q 793 991 817 991 q 717 960 750 991 q 684 886 684 929 q 703 826 684 854 q 719 809 709 816 q 745 793 724 806 q 751 787 751 790 q 746 781 751 784 l 704 757 q 684 744 686 746 q 665 731 665 732 q 660 730 663 729 q 655 738 654 730 q 659 755 656 744 q 661 776 661 767 q 656 806 661 789 q 587 893 642 859 q 457 926 532 926 q 236 803 320 926 q 159 534 159 690 q 256 201 159 345 q 536 41 363 41 q 711 94 637 41 q 785 216 785 148 q 777 247 785 233 q 753 262 768 262 q 730 256 739 262 q 719 245 724 252 q 713 240 718 240 q 709 250 709 240 q 723 289 709 269 q 766 315 740 315 q 817 288 799 315 q 833 230 833 264 q 833 218 833 222 q 728 48 823 119 q 505 -22 633 -22 q 182 139 310 -22 q 61 503 61 292 q 172 827 61 690 q 463 970 289 970 q 648 903 574 970 q 693 1000 657 958 q 803 1051 738 1051 q 883 1025 852 1051 q 914 956 914 999 m 554 -190 q 517 -260 554 -232 q 427 -288 479 -288 q 342 -273 374 -288 q 306 -227 306 -257 q 321 -187 306 -202 q 361 -172 337 -172 q 385 -176 372 -172 q 403 -184 397 -179 q 408 -191 408 -189 q 398 -195 408 -195 q 378 -199 385 -195 q 367 -222 367 -206 q 384 -246 367 -238 q 429 -254 401 -254 q 480 -235 461 -254 q 500 -187 500 -216 q 474 -141 500 -158 q 406 -123 449 -123 q 357 -129 386 -123 l 398 14 l 432 14 l 404 -87 q 418 -85 410 -85 q 431 -85 426 -85 q 515 -108 484 -85 q 554 -190 554 -135 z "},"":{"ha":937,"x_min":61,"x_max":926,"o":"m 926 789 q 891 690 926 732 q 783 613 855 648 q 654 571 728 587 q 524 549 616 563 q 391 524 432 534 q 256 456 321 505 q 168 366 201 414 q 288 146 189 244 q 533 38 397 38 q 698 75 631 38 q 765 174 765 113 q 761 208 765 193 q 753 233 756 222 q 753 240 751 237 q 761 243 755 243 q 796 224 779 240 q 819 170 819 201 q 720 28 819 83 q 507 -22 630 -22 q 186 115 310 -22 q 61 479 61 254 q 191 822 61 677 q 517 970 325 970 q 662 937 602 970 q 730 840 730 901 q 710 786 730 808 q 656 758 690 764 q 650 758 654 758 q 642 758 644 758 q 618 760 629 758 q 601 768 608 762 q 595 774 595 770 q 601 783 595 779 q 619 798 614 792 q 633 834 631 812 q 634 839 634 837 q 634 844 634 842 q 587 903 634 881 q 498 921 548 921 q 354 889 420 921 q 239 795 289 857 q 171 663 192 737 q 150 500 150 589 q 151 461 150 482 q 155 415 152 441 q 232 496 180 450 q 363 582 302 558 q 474 613 417 602 q 583 629 506 619 q 705 647 659 638 q 819 682 780 661 q 880 765 880 713 q 860 812 880 800 q 841 817 854 817 q 829 814 833 817 q 817 808 821 808 q 814 814 814 808 q 816 826 814 815 q 833 848 819 837 q 865 860 847 860 q 910 839 894 860 q 926 789 926 817 m 692 1152 q 656 1133 684 1148 q 573 1087 602 1102 q 520 1058 545 1072 q 437 1010 510 1053 q 427 1011 432 1006 q 418 1024 422 1016 q 422 1035 416 1029 q 475 1082 435 1048 q 538 1138 515 1116 q 593 1185 557 1154 q 637 1226 628 1217 q 644 1229 640 1229 q 651 1225 648 1229 l 670 1191 q 682 1175 676 1181 q 690 1166 686 1171 q 697 1157 697 1160 q 692 1152 697 1154 z "},"":{"ha":920,"x_min":58,"x_max":841,"o":"m 834 19 q 841 8 841 14 q 829 0 841 0 q 807 1 816 0 q 747 4 762 4 q 705 3 721 4 q 669 0 689 1 q 654 7 654 0 q 662 19 654 12 q 691 40 682 33 q 709 66 709 54 l 701 274 q 656 214 688 239 q 576 184 619 184 q 503 208 534 184 q 472 270 472 231 q 491 320 472 299 q 538 340 511 340 q 557 339 550 340 q 568 334 564 338 q 573 326 573 329 q 567 321 573 321 q 553 318 559 321 q 544 308 547 315 q 540 288 540 300 q 541 275 540 279 q 566 245 547 255 q 597 239 579 239 q 648 268 628 239 q 669 335 669 297 q 651 401 669 373 q 597 457 637 422 q 509 515 560 488 q 362 594 380 581 q 283 669 319 625 q 235 745 252 708 l 184 66 q 202 40 184 54 q 231 18 216 28 q 235 7 235 13 q 224 0 235 0 q 189 2 216 -1 q 146 4 162 4 q 101 2 127 4 q 71 0 75 0 q 58 7 58 0 q 64 18 58 12 q 99 40 67 20 q 125 66 123 55 l 187 883 q 168 911 187 896 q 137 933 153 922 q 132 943 132 937 q 149 949 132 951 q 170 949 161 949 q 221 945 210 945 q 265 948 238 945 q 298 949 292 950 q 310 942 310 949 q 307 935 310 938 q 278 916 288 923 q 256 883 258 901 q 275 803 256 841 q 327 737 293 766 q 406 685 360 709 q 486 646 446 665 q 571 591 534 622 q 647 513 612 557 q 693 438 679 472 l 663 883 q 637 910 662 895 q 600 933 602 931 q 594 943 594 939 q 608 949 594 949 q 629 949 621 949 q 688 945 674 945 q 740 947 713 945 q 770 949 767 949 q 781 943 781 949 q 776 933 781 938 q 745 911 756 919 q 723 883 723 895 l 774 66 q 789 46 774 56 q 834 19 811 33 m 673 1162 q 635 1082 663 1118 q 560 1038 601 1038 q 454 1090 513 1038 q 381 1143 395 1143 q 334 1114 352 1143 q 316 1039 316 1084 l 266 1085 q 305 1164 281 1131 q 378 1208 338 1208 q 458 1175 418 1208 q 557 1103 545 1103 q 605 1132 587 1103 q 623 1207 623 1162 l 673 1162 z "},"":{"ha":922,"x_min":61,"x_max":861,"o":"m 861 480 q 749 143 861 293 q 445 -20 626 -20 q 163 129 273 -20 q 61 458 61 267 q 117 729 61 613 q 263 888 172 841 q 280 894 275 894 q 286 889 286 894 q 274 872 286 882 q 214 804 237 840 q 165 682 182 753 q 146 472 146 598 q 245 184 146 310 q 486 53 347 53 q 694 144 614 53 q 781 427 781 245 q 680 774 781 622 q 469 921 582 921 q 397 898 424 921 q 370 838 370 876 q 383 799 370 817 q 417 781 396 781 q 427 781 422 781 q 440 787 433 782 q 450 797 447 792 q 455 807 453 802 q 458 817 457 812 q 461 821 458 821 q 468 817 465 821 q 475 784 475 804 q 475 777 475 781 q 473 770 473 772 q 449 727 469 745 q 400 709 429 709 q 329 742 357 709 q 301 821 301 774 q 360 932 301 889 q 484 970 413 970 q 760 821 653 970 q 861 480 861 680 m 625 1085 q 608 1046 625 1062 q 566 1031 591 1031 q 527 1047 543 1031 q 511 1088 511 1064 q 528 1127 511 1111 q 569 1143 545 1143 q 608 1126 592 1143 q 625 1085 625 1109 m 418 1085 q 401 1046 418 1062 q 360 1031 385 1031 q 320 1047 336 1031 q 304 1088 304 1064 q 321 1127 304 1111 q 363 1143 338 1143 q 402 1126 386 1143 q 418 1085 418 1109 z "},"":{"ha":907,"x_min":72,"x_max":867,"o":"m 865 41 q 843 1 865 22 q 785 -22 817 -22 q 707 23 738 -22 q 678 118 678 64 q 547 11 623 47 q 392 -23 476 -23 q 151 98 237 -23 q 72 387 72 210 q 129 592 72 484 q 256 770 174 678 q 385 897 317 839 q 350 885 369 888 q 311 881 332 881 q 281 883 295 881 q 163 913 222 898 q 137 904 148 913 q 126 880 126 895 q 131 863 125 870 q 145 854 136 856 q 163 857 157 854 q 172 863 170 861 q 178 865 175 865 q 182 856 182 864 q 171 822 182 838 q 132 800 156 800 q 99 816 111 800 q 86 855 86 832 q 90 875 86 863 q 134 935 99 907 q 212 964 172 964 q 268 956 238 964 q 359 936 334 936 q 412 944 389 936 q 441 958 423 947 q 452 961 449 961 q 467 949 457 961 q 477 933 477 939 q 471 921 477 927 q 399 862 434 894 q 332 791 365 831 q 249 673 281 729 q 191 541 210 608 q 170 381 170 465 q 228 158 170 248 q 423 53 296 53 q 575 91 505 53 q 677 176 632 122 l 677 883 q 656 912 677 896 q 627 936 642 924 q 626 944 625 939 q 636 949 627 949 q 677 948 643 950 q 724 945 711 945 q 780 947 751 945 q 811 949 808 949 q 823 942 823 949 q 821 935 823 938 q 793 912 819 932 q 772 883 772 896 l 772 152 q 781 73 772 102 q 822 34 794 34 q 841 37 834 34 q 857 49 848 40 q 862 52 859 52 q 865 48 864 52 q 865 41 867 44 m 767 1085 q 750 1046 767 1062 q 709 1031 733 1031 q 669 1047 685 1031 q 653 1088 653 1064 q 670 1127 653 1111 q 711 1143 687 1143 q 751 1126 734 1143 q 767 1085 767 1109 m 561 1085 q 544 1046 561 1062 q 503 1031 527 1031 q 463 1047 479 1031 q 447 1088 447 1064 q 464 1127 447 1111 q 505 1143 481 1143 q 545 1126 528 1143 q 561 1085 561 1109 z "},"":{"ha":735,"x_min":79,"x_max":677,"o":"m 673 18 q 677 7 677 10 q 667 0 677 0 q 645 2 665 0 q 608 4 625 4 q 581 2 595 4 q 563 0 566 0 q 547 7 547 0 q 551 15 547 10 q 561 34 557 24 q 564 56 564 43 l 560 121 q 473 24 534 65 q 331 -22 405 -22 q 155 40 227 -22 q 79 209 79 105 q 161 384 79 313 q 351 452 241 452 q 454 431 405 452 q 529 380 503 410 q 494 469 529 410 q 399 583 454 538 q 256 640 330 640 q 178 621 211 640 q 141 562 141 600 q 152 526 141 540 q 183 511 163 511 q 207 520 197 511 q 217 541 217 529 q 215 558 217 550 q 210 574 212 567 q 211 580 208 578 q 220 581 212 581 q 254 563 239 578 q 270 528 270 547 q 244 474 270 496 q 186 453 219 453 q 121 479 146 453 q 95 551 95 506 q 157 642 95 609 q 288 670 211 670 q 436 622 363 670 q 555 492 509 574 q 606 349 587 435 q 629 200 618 295 q 647 71 640 106 q 660 37 650 53 q 673 18 670 22 m 557 235 q 501 357 557 311 q 353 403 444 403 q 222 354 278 403 q 167 233 167 305 q 223 104 167 157 q 358 52 280 52 q 503 103 448 52 q 557 235 557 154 m 488 890 q 453 871 481 887 q 370 826 399 841 q 317 797 341 810 q 233 749 307 791 q 223 750 229 745 q 214 763 218 755 q 218 774 212 768 q 271 821 231 787 q 335 877 311 855 q 389 924 354 893 q 434 965 425 956 q 440 968 437 968 q 448 964 444 968 l 467 930 q 479 913 473 920 q 487 905 483 909 q 494 896 494 899 q 488 890 494 892 z "},"":{"ha":735,"x_min":79,"x_max":677,"o":"m 673 18 q 677 7 677 10 q 667 0 677 0 q 645 2 665 0 q 608 4 625 4 q 581 2 595 4 q 563 0 566 0 q 547 7 547 0 q 551 15 547 10 q 561 34 557 24 q 564 56 564 43 l 560 121 q 473 24 534 65 q 331 -22 405 -22 q 155 40 227 -22 q 79 209 79 105 q 161 384 79 313 q 351 452 241 452 q 454 431 405 452 q 529 380 503 410 q 494 469 529 410 q 399 583 454 538 q 256 640 330 640 q 178 621 211 640 q 141 562 141 600 q 152 526 141 540 q 183 511 163 511 q 207 520 197 511 q 217 541 217 529 q 215 558 217 550 q 210 574 212 567 q 211 580 208 578 q 220 581 212 581 q 254 563 239 578 q 270 528 270 547 q 244 474 270 496 q 186 453 219 453 q 121 479 146 453 q 95 551 95 506 q 157 642 95 609 q 288 670 211 670 q 436 622 363 670 q 555 492 509 574 q 606 349 587 435 q 629 200 618 295 q 647 71 640 106 q 660 37 650 53 q 673 18 670 22 m 557 235 q 501 357 557 311 q 353 403 444 403 q 222 354 278 403 q 167 233 167 305 q 223 104 167 157 q 358 52 280 52 q 503 103 448 52 q 557 235 557 154 m 455 763 q 446 750 451 755 q 436 749 441 745 q 389 776 406 766 q 299 825 319 815 q 217 871 254 850 q 181 890 186 888 q 176 896 176 892 q 182 905 176 899 q 193 916 189 912 q 203 930 199 924 l 222 964 q 229 968 225 968 q 235 965 233 968 q 334 877 253 947 q 412 809 342 869 q 451 774 437 788 q 455 763 457 768 z "},"":{"ha":735,"x_min":79,"x_max":677,"o":"m 673 18 q 677 7 677 10 q 667 0 677 0 q 645 2 665 0 q 608 4 625 4 q 581 2 595 4 q 563 0 566 0 q 547 7 547 0 q 551 15 547 10 q 561 34 557 24 q 564 56 564 43 l 560 121 q 473 24 534 65 q 331 -22 405 -22 q 155 40 227 -22 q 79 209 79 105 q 161 384 79 313 q 351 452 241 452 q 454 431 405 452 q 529 380 503 410 q 494 469 529 410 q 399 583 454 538 q 256 640 330 640 q 178 621 211 640 q 141 562 141 600 q 152 526 141 540 q 183 511 163 511 q 207 520 197 511 q 217 541 217 529 q 215 558 217 550 q 210 574 212 567 q 211 580 208 578 q 220 581 212 581 q 254 563 239 578 q 270 528 270 547 q 244 474 270 496 q 186 453 219 453 q 121 479 146 453 q 95 551 95 506 q 157 642 95 609 q 288 670 211 670 q 436 622 363 670 q 555 492 509 574 q 606 349 587 435 q 629 200 618 295 q 647 71 640 106 q 660 37 650 53 q 673 18 670 22 m 557 235 q 501 357 557 311 q 353 403 444 403 q 222 354 278 403 q 167 233 167 305 q 223 104 167 157 q 358 52 280 52 q 503 103 448 52 q 557 235 557 154 m 537 755 q 537 752 539 754 q 532 750 535 750 q 519 751 527 751 q 507 751 511 751 q 496 751 502 751 q 484 751 490 751 q 476 751 479 751 q 460 755 464 751 q 399 807 436 777 q 326 864 361 838 q 253 808 297 843 q 191 755 218 780 q 178 751 187 751 q 165 751 174 751 q 144 751 151 751 l 118 750 q 113 751 115 750 q 113 755 110 753 q 195 829 154 790 q 229 861 220 852 q 301 937 272 902 l 350 937 q 390 892 384 899 q 420 862 397 885 q 467 817 444 839 q 537 755 498 787 z "},"":{"ha":735,"x_min":79,"x_max":677,"o":"m 673 18 q 677 7 677 10 q 667 0 677 0 q 645 2 665 0 q 608 4 625 4 q 581 2 595 4 q 563 0 566 0 q 547 7 547 0 q 551 15 547 10 q 561 34 557 24 q 564 56 564 43 l 560 121 q 473 24 534 65 q 331 -22 405 -22 q 155 40 227 -22 q 79 209 79 105 q 161 384 79 313 q 351 452 241 452 q 454 431 405 452 q 529 380 503 410 q 494 469 529 410 q 399 583 454 538 q 256 640 330 640 q 178 621 211 640 q 141 562 141 600 q 152 526 141 540 q 183 511 163 511 q 207 520 197 511 q 217 541 217 529 q 215 558 217 550 q 210 574 212 567 q 211 580 208 578 q 220 581 212 581 q 254 563 239 578 q 270 528 270 547 q 244 474 270 496 q 186 453 219 453 q 121 479 146 453 q 95 551 95 506 q 157 642 95 609 q 288 670 211 670 q 436 622 363 670 q 555 492 509 574 q 606 349 587 435 q 629 200 618 295 q 647 71 640 106 q 660 37 650 53 q 673 18 670 22 m 557 235 q 501 357 557 311 q 353 403 444 403 q 222 354 278 403 q 167 233 167 305 q 223 104 167 157 q 358 52 280 52 q 503 103 448 52 q 557 235 557 154 m 462 790 q 445 751 462 767 q 404 736 428 736 q 364 752 380 736 q 348 793 348 769 q 365 832 348 816 q 406 848 382 848 q 446 831 429 848 q 462 790 462 814 m 256 790 q 239 751 256 767 q 197 736 222 736 q 158 752 174 736 q 142 793 142 769 q 159 832 142 816 q 200 848 176 848 q 239 831 223 848 q 256 790 256 814 z "},"":{"ha":735,"x_min":79,"x_max":677,"o":"m 673 18 q 677 7 677 10 q 667 0 677 0 q 645 2 665 0 q 608 4 625 4 q 581 2 595 4 q 563 0 566 0 q 547 7 547 0 q 551 15 547 10 q 561 34 557 24 q 564 56 564 43 l 560 121 q 473 24 534 65 q 331 -22 405 -22 q 155 40 227 -22 q 79 209 79 105 q 161 384 79 313 q 351 452 241 452 q 454 431 405 452 q 529 380 503 410 q 494 469 529 410 q 399 583 454 538 q 256 640 330 640 q 178 621 211 640 q 141 562 141 600 q 152 526 141 540 q 183 511 163 511 q 207 520 197 511 q 217 541 217 529 q 215 558 217 550 q 210 574 212 567 q 211 580 208 578 q 220 581 212 581 q 254 563 239 578 q 270 528 270 547 q 244 474 270 496 q 186 453 219 453 q 121 479 146 453 q 95 551 95 506 q 157 642 95 609 q 288 670 211 670 q 436 622 363 670 q 555 492 509 574 q 606 349 587 435 q 629 200 618 295 q 647 71 640 106 q 660 37 650 53 q 673 18 670 22 m 557 235 q 501 357 557 311 q 353 403 444 403 q 222 354 278 403 q 167 233 167 305 q 223 104 167 157 q 358 52 280 52 q 503 103 448 52 q 557 235 557 154 m 517 864 q 479 783 507 820 q 404 739 445 739 q 298 792 357 739 q 225 845 239 845 q 178 815 196 845 q 160 741 160 786 l 110 787 q 149 865 125 833 q 222 910 182 910 q 302 877 262 910 q 401 804 389 804 q 449 834 431 804 q 467 909 467 863 l 517 864 z "},"":{"ha":735,"x_min":79,"x_max":677,"o":"m 673 18 q 677 7 677 10 q 667 0 677 0 q 645 2 665 0 q 608 4 625 4 q 581 2 595 4 q 563 0 566 0 q 547 7 547 0 q 551 15 547 10 q 561 34 557 24 q 564 56 564 43 l 560 121 q 473 24 534 65 q 331 -22 405 -22 q 155 40 227 -22 q 79 209 79 105 q 161 384 79 313 q 351 452 241 452 q 454 431 405 452 q 529 380 503 410 q 494 469 529 410 q 399 583 454 538 q 256 640 330 640 q 178 621 211 640 q 141 562 141 600 q 152 526 141 540 q 183 511 163 511 q 207 520 197 511 q 217 541 217 529 q 215 558 217 550 q 210 574 212 567 q 211 580 208 578 q 220 581 212 581 q 254 563 239 578 q 270 528 270 547 q 244 474 270 496 q 186 453 219 453 q 121 479 146 453 q 95 551 95 506 q 157 642 95 609 q 288 670 211 670 q 436 622 363 670 q 555 492 509 574 q 606 349 587 435 q 629 200 618 295 q 647 71 640 106 q 660 37 650 53 q 673 18 670 22 m 557 235 q 501 357 557 311 q 353 403 444 403 q 222 354 278 403 q 167 233 167 305 q 223 104 167 157 q 358 52 280 52 q 503 103 448 52 q 557 235 557 154 m 458 884 q 414 779 458 822 q 309 735 371 735 q 203 779 246 735 q 159 884 159 822 q 203 991 159 947 q 309 1035 246 1035 q 414 991 371 1035 q 458 884 458 947 m 404 884 q 376 952 404 924 q 309 981 349 981 q 241 952 269 981 q 214 884 214 924 q 241 817 214 844 q 309 789 269 789 q 376 817 349 789 q 404 884 404 844 z "},"":{"ha":686,"x_min":64,"x_max":650,"o":"m 650 164 q 644 141 650 155 q 567 41 623 86 q 389 -22 490 -22 q 153 68 241 -22 q 64 320 64 159 q 165 565 64 460 q 408 670 267 670 q 551 627 490 670 q 617 506 617 579 q 578 402 617 444 q 481 359 539 359 q 397 388 433 359 q 359 465 359 418 q 380 522 359 496 q 416 551 397 546 q 428 549 424 553 q 430 540 432 545 q 425 524 427 530 q 421 500 421 511 q 422 488 421 492 q 444 456 426 467 q 486 445 462 445 q 538 469 518 445 q 557 528 557 492 q 508 609 557 579 q 403 636 463 636 q 217 549 288 636 q 146 331 146 462 q 219 136 146 217 q 406 53 294 53 q 522 74 475 53 q 617 151 568 94 q 625 162 618 152 q 635 172 631 170 q 644 173 638 174 q 650 164 650 171 m 496 -190 q 459 -260 496 -232 q 369 -288 422 -288 q 284 -273 316 -288 q 248 -227 248 -257 q 264 -187 248 -202 q 304 -172 279 -172 q 327 -176 315 -172 q 345 -184 340 -179 q 351 -191 351 -189 q 340 -195 351 -195 q 321 -199 328 -195 q 309 -222 309 -206 q 327 -246 309 -238 q 372 -254 344 -254 q 423 -235 404 -254 q 442 -187 442 -216 q 417 -141 442 -158 q 349 -123 391 -123 q 300 -129 328 -123 l 340 14 l 374 14 l 346 -87 q 360 -85 353 -85 q 373 -85 368 -85 q 458 -108 426 -85 q 496 -190 496 -135 z "},"":{"ha":682,"x_min":68,"x_max":672,"o":"m 669 144 q 584 36 651 86 q 412 -23 505 -23 q 307 -10 353 -23 q 206 41 254 5 q 172 -11 187 17 q 152 -61 152 -45 q 162 -87 152 -80 q 184 -92 169 -92 q 194 -91 189 -92 q 202 -88 198 -90 q 207 -88 205 -87 q 209 -99 212 -91 q 193 -129 205 -115 q 155 -146 176 -146 q 117 -130 132 -146 q 102 -85 102 -113 q 117 -33 102 -64 q 175 64 121 -24 q 98 176 125 115 q 68 320 68 243 q 160 566 68 463 q 391 670 253 670 q 503 644 446 670 q 567 613 535 628 q 585 609 573 610 q 608 608 596 608 l 628 609 q 635 603 635 609 q 631 595 635 598 q 607 577 620 589 q 576 547 589 562 q 424 355 511 473 q 260 117 337 236 q 342 73 300 88 q 444 54 391 54 q 564 82 517 54 q 642 155 599 102 q 651 168 646 161 q 663 174 656 175 q 672 161 672 172 q 669 144 672 153 m 483 544 q 439 606 483 584 q 351 625 403 625 q 193 543 255 625 q 134 359 134 466 q 165 233 134 296 q 229 142 191 180 q 301 249 275 211 q 372 351 342 310 q 446 457 409 404 q 483 544 483 514 m 532 890 q 497 871 525 887 q 414 826 443 841 q 361 797 385 810 q 277 749 351 791 q 268 750 273 745 q 258 763 262 755 q 262 774 256 768 q 315 821 275 787 q 379 877 355 855 q 433 924 398 893 q 478 965 469 956 q 484 968 481 968 q 492 964 488 968 l 511 930 q 523 913 517 920 q 531 905 527 909 q 538 896 538 899 q 532 890 538 892 z "},"":{"ha":682,"x_min":68,"x_max":672,"o":"m 669 144 q 584 36 651 86 q 412 -23 505 -23 q 307 -10 353 -23 q 206 41 254 5 q 172 -11 187 17 q 152 -61 152 -45 q 162 -87 152 -80 q 184 -92 169 -92 q 194 -91 189 -92 q 202 -88 198 -90 q 207 -88 205 -87 q 209 -99 212 -91 q 193 -129 205 -115 q 155 -146 176 -146 q 117 -130 132 -146 q 102 -85 102 -113 q 117 -33 102 -64 q 175 64 121 -24 q 98 176 125 115 q 68 320 68 243 q 160 566 68 463 q 391 670 253 670 q 503 644 446 670 q 567 613 535 628 q 585 609 573 610 q 608 608 596 608 l 628 609 q 635 603 635 609 q 631 595 635 598 q 607 577 620 589 q 576 547 589 562 q 424 355 511 473 q 260 117 337 236 q 342 73 300 88 q 444 54 391 54 q 564 82 517 54 q 642 155 599 102 q 651 168 646 161 q 663 174 656 175 q 672 161 672 172 q 669 144 672 153 m 483 544 q 439 606 483 584 q 351 625 403 625 q 193 543 255 625 q 134 359 134 466 q 165 233 134 296 q 229 142 191 180 q 301 249 275 211 q 372 351 342 310 q 446 457 409 404 q 483 544 483 514 m 499 760 q 490 746 495 751 q 480 746 485 741 q 433 772 450 763 q 343 822 363 812 q 261 867 298 846 q 225 887 230 885 q 220 892 220 889 q 227 902 220 895 q 237 913 233 909 q 247 926 243 920 l 266 960 q 273 964 269 964 q 279 962 277 964 q 378 873 297 944 q 456 806 387 866 q 495 770 481 785 q 499 760 501 764 z "},"":{"ha":682,"x_min":68,"x_max":672,"o":"m 669 144 q 584 36 651 86 q 412 -23 505 -23 q 307 -10 353 -23 q 206 41 254 5 q 172 -11 187 17 q 152 -61 152 -45 q 162 -87 152 -80 q 184 -92 169 -92 q 194 -91 189 -92 q 202 -88 198 -90 q 207 -88 205 -87 q 209 -99 212 -91 q 193 -129 205 -115 q 155 -146 176 -146 q 117 -130 132 -146 q 102 -85 102 -113 q 117 -33 102 -64 q 175 64 121 -24 q 98 176 125 115 q 68 320 68 243 q 160 566 68 463 q 391 670 253 670 q 503 644 446 670 q 567 613 535 628 q 585 609 573 610 q 608 608 596 608 l 628 609 q 635 603 635 609 q 631 595 635 598 q 607 577 620 589 q 576 547 589 562 q 424 355 511 473 q 260 117 337 236 q 342 73 300 88 q 444 54 391 54 q 564 82 517 54 q 642 155 599 102 q 651 168 646 161 q 663 174 656 175 q 672 161 672 172 q 669 144 672 153 m 483 544 q 439 606 483 584 q 351 625 403 625 q 193 543 255 625 q 134 359 134 466 q 165 233 134 296 q 229 142 191 180 q 301 249 275 211 q 372 351 342 310 q 446 457 409 404 q 483 544 483 514 m 574 752 q 574 749 576 751 q 569 747 572 747 q 556 748 564 747 q 545 748 549 748 q 533 748 539 748 q 521 747 527 747 q 513 748 516 747 q 497 752 501 748 q 436 804 473 774 q 363 861 399 834 q 290 804 334 840 q 229 752 256 777 q 215 748 224 748 q 202 747 211 747 q 181 748 188 748 l 155 747 q 151 747 152 747 q 150 752 147 749 q 233 825 191 787 q 267 858 257 849 q 338 934 309 899 l 387 934 q 428 889 421 896 q 458 859 434 882 q 505 814 481 836 q 574 752 536 784 z "},"":{"ha":682,"x_min":68,"x_max":672,"o":"m 669 144 q 584 36 651 86 q 412 -23 505 -23 q 307 -10 353 -23 q 206 41 254 5 q 172 -11 187 17 q 152 -61 152 -45 q 162 -87 152 -80 q 184 -92 169 -92 q 194 -91 189 -92 q 202 -88 198 -90 q 207 -88 205 -87 q 209 -99 212 -91 q 193 -129 205 -115 q 155 -146 176 -146 q 117 -130 132 -146 q 102 -85 102 -113 q 117 -33 102 -64 q 175 64 121 -24 q 98 176 125 115 q 68 320 68 243 q 160 566 68 463 q 391 670 253 670 q 503 644 446 670 q 567 613 535 628 q 585 609 573 610 q 608 608 596 608 l 628 609 q 635 603 635 609 q 631 595 635 598 q 607 577 620 589 q 576 547 589 562 q 424 355 511 473 q 260 117 337 236 q 342 73 300 88 q 444 54 391 54 q 564 82 517 54 q 642 155 599 102 q 651 168 646 161 q 663 174 656 175 q 672 161 672 172 q 669 144 672 153 m 483 544 q 439 606 483 584 q 351 625 403 625 q 193 543 255 625 q 134 359 134 466 q 165 233 134 296 q 229 142 191 180 q 301 249 275 211 q 372 351 342 310 q 446 457 409 404 q 483 544 483 514 m 536 807 q 519 768 536 784 q 478 753 503 753 q 438 769 454 753 q 422 810 422 786 q 439 849 422 833 q 481 865 456 865 q 520 848 504 865 q 536 807 536 831 m 330 807 q 313 768 330 784 q 272 753 296 753 q 232 769 248 753 q 216 810 216 786 q 233 849 216 833 q 275 865 250 865 q 314 848 298 865 q 330 807 330 831 z "},"":{"ha":380,"x_min":53,"x_max":334,"o":"m 274 5 q 260 -1 273 -1 q 220 3 237 1 q 183 4 203 4 q 127 1 161 4 q 106 -1 113 -1 q 92 5 93 -1 q 115 34 90 15 q 140 66 140 54 l 140 522 q 123 568 140 555 q 85 585 104 576 q 94 595 85 590 q 151 628 123 610 q 200 662 173 642 q 235 678 227 682 q 237 671 237 677 q 230 607 233 642 q 227 537 227 572 l 227 66 q 251 34 227 53 q 274 5 276 14 m 329 887 q 294 868 321 884 q 211 822 239 838 q 157 793 182 807 q 74 746 147 788 q 64 746 69 741 q 55 760 59 751 q 59 770 53 764 q 112 818 72 783 q 176 873 152 852 q 230 921 195 890 q 275 962 265 952 q 281 964 277 964 q 288 960 285 964 l 307 926 q 319 910 313 917 q 328 902 323 906 q 334 892 334 895 q 329 887 334 889 z "},"":{"ha":380,"x_min":54,"x_max":335,"o":"m 274 5 q 260 -1 273 -1 q 220 3 237 1 q 183 4 203 4 q 127 1 161 4 q 106 -1 113 -1 q 92 5 93 -1 q 115 34 90 15 q 140 66 140 54 l 140 522 q 123 568 140 555 q 85 585 104 576 q 94 595 85 590 q 151 628 123 610 q 200 662 173 642 q 235 678 227 682 q 237 671 237 677 q 230 607 233 642 q 227 537 227 572 l 227 66 q 251 34 227 53 q 274 5 276 14 m 333 763 q 324 750 329 755 q 314 749 319 745 q 267 776 283 766 q 177 825 197 815 q 95 871 132 850 q 59 890 64 888 q 54 896 54 892 q 60 905 54 899 q 71 916 67 912 q 81 930 77 924 l 100 964 q 107 968 103 968 q 113 965 111 968 q 212 877 131 947 q 290 809 220 869 q 329 774 315 788 q 333 763 335 768 z "},"":{"ha":380,"x_min":-29,"x_max":400,"o":"m 274 5 q 260 -1 273 -1 q 220 3 237 1 q 183 4 203 4 q 127 1 161 4 q 106 -1 113 -1 q 92 5 93 -1 q 115 34 90 15 q 140 66 140 54 l 140 522 q 123 568 140 555 q 85 585 104 576 q 94 595 85 590 q 151 628 123 610 q 200 662 173 642 q 235 678 227 682 q 237 671 237 677 q 230 607 233 642 q 227 537 227 572 l 227 66 q 251 34 227 53 q 274 5 276 14 m 398 755 q 398 752 400 754 q 393 750 396 750 q 380 751 388 751 q 368 751 372 751 q 357 751 363 751 q 345 751 351 751 q 337 751 340 751 q 321 755 325 751 q 260 807 297 777 q 186 864 222 838 q 114 808 158 843 q 52 755 79 780 q 39 751 48 751 q 26 751 35 751 q 5 751 12 751 l -21 750 q -26 751 -24 750 q -26 755 -29 753 q 56 829 15 790 q 90 861 81 852 q 162 937 133 902 l 211 937 q 251 892 245 899 q 281 862 258 885 q 328 817 305 839 q 398 755 359 787 z "},"":{"ha":380,"x_min":31,"x_max":351,"o":"m 274 5 q 260 -1 273 -1 q 220 3 237 1 q 183 4 203 4 q 127 1 161 4 q 106 -1 113 -1 q 92 5 93 -1 q 115 34 90 15 q 140 66 140 54 l 140 522 q 123 568 140 555 q 85 585 104 576 q 94 595 85 590 q 151 628 123 610 q 200 662 173 642 q 235 678 227 682 q 237 671 237 677 q 230 607 233 642 q 227 537 227 572 l 227 66 q 251 34 227 53 q 274 5 276 14 m 351 807 q 334 768 351 784 q 293 753 317 753 q 253 769 269 753 q 237 810 237 786 q 254 849 237 833 q 296 865 271 865 q 335 848 319 865 q 351 807 351 831 m 145 807 q 128 768 145 784 q 87 753 111 753 q 47 769 63 753 q 31 810 31 786 q 48 849 31 833 q 90 865 65 865 q 129 848 113 865 q 145 807 145 831 z "},"":{"ha":762,"x_min":47,"x_max":658,"o":"m 658 416 q 623 224 658 316 q 518 54 587 132 q 525 54 520 54 q 539 54 530 54 q 578 56 560 54 q 614 70 597 58 q 637 88 632 84 q 642 90 639 90 q 644 91 644 91 q 648 79 652 91 q 646 54 647 68 q 644 35 644 40 q 645 14 644 25 q 647 -9 646 3 q 642 -23 650 -23 q 635 -20 638 -23 q 606 -5 614 -9 q 577 3 591 1 q 534 5 563 5 q 503 4 514 5 q 472 0 491 3 q 452 12 452 -3 q 454 20 452 17 q 511 115 491 77 q 559 224 543 174 q 578 351 578 287 q 530 524 578 458 q 396 594 481 594 q 294 562 339 594 q 227 483 253 534 l 227 66 q 241 41 227 54 q 267 20 254 31 q 275 7 275 13 q 263 0 275 0 q 233 2 260 0 q 183 4 205 4 q 142 3 157 4 q 107 0 127 1 q 91 7 91 0 q 97 19 91 12 q 117 37 103 26 q 140 66 140 54 l 140 468 q 105 562 140 526 q 53 597 90 577 q 47 604 47 600 q 52 613 47 609 q 66 626 60 621 q 82 641 73 631 q 97 656 92 650 q 107 669 102 663 q 115 672 110 672 q 121 670 119 672 q 172 615 145 650 q 216 532 210 567 q 288 616 245 581 q 418 670 352 670 q 606 578 540 670 q 658 416 658 506 m 574 871 q 536 790 565 827 q 462 746 503 746 q 355 799 414 746 q 283 852 296 852 q 236 822 254 852 q 218 747 218 793 l 168 793 q 207 872 182 840 q 280 917 240 917 q 359 884 319 917 q 459 811 446 811 q 506 841 488 811 q 524 916 524 870 l 574 871 z "},"":{"ha":796,"x_min":50,"x_max":741,"o":"m 741 320 q 636 77 741 178 q 396 -22 534 -22 q 150 80 250 -22 q 50 327 50 181 q 152 569 50 469 q 397 670 254 670 q 641 568 541 670 q 741 320 741 465 m 682 290 q 579 503 682 402 q 346 608 473 608 q 178 540 247 608 q 109 380 109 472 q 214 142 109 246 q 441 41 317 41 q 608 104 539 41 q 682 290 682 174 m 543 890 q 507 871 535 887 q 424 826 453 841 q 371 797 395 810 q 288 749 361 791 q 278 750 283 745 q 269 763 273 755 q 273 774 267 768 q 326 821 286 787 q 389 877 366 855 q 444 924 408 893 q 488 965 479 956 q 494 968 491 968 q 502 964 498 968 l 521 930 q 533 913 527 920 q 541 905 537 909 q 548 896 548 899 q 543 890 548 892 z "},"":{"ha":796,"x_min":50,"x_max":741,"o":"m 741 320 q 636 77 741 178 q 396 -22 534 -22 q 150 80 250 -22 q 50 327 50 181 q 152 569 50 469 q 397 670 254 670 q 641 568 541 670 q 741 320 741 465 m 682 290 q 579 503 682 402 q 346 608 473 608 q 178 540 247 608 q 109 380 109 472 q 214 142 109 246 q 441 41 317 41 q 608 104 539 41 q 682 290 682 174 m 519 756 q 510 743 515 748 q 500 743 505 738 q 453 769 470 760 q 363 819 384 808 q 281 864 319 843 q 245 884 250 882 q 240 889 240 886 q 247 899 240 892 q 257 909 254 905 q 267 923 263 917 l 286 957 q 294 961 290 961 q 300 958 297 961 q 399 870 317 941 q 477 802 407 863 q 515 767 501 781 q 519 756 522 761 z "},"":{"ha":796,"x_min":50,"x_max":741,"o":"m 741 320 q 636 77 741 178 q 396 -22 534 -22 q 150 80 250 -22 q 50 327 50 181 q 152 569 50 469 q 397 670 254 670 q 641 568 541 670 q 741 320 741 465 m 682 290 q 579 503 682 402 q 346 608 473 608 q 178 540 247 608 q 109 380 109 472 q 214 142 109 246 q 441 41 317 41 q 608 104 539 41 q 682 290 682 174 m 598 749 q 598 745 600 747 q 593 743 596 743 q 580 744 588 744 q 568 745 572 745 q 557 744 563 745 q 545 744 551 744 q 537 745 540 744 q 521 749 525 745 q 460 801 497 770 q 387 857 422 831 q 314 801 358 836 q 252 749 279 773 q 239 745 248 745 q 226 744 235 744 q 205 745 212 745 l 179 743 q 174 744 176 743 q 174 749 171 746 q 256 822 215 783 q 290 854 281 846 q 362 930 333 895 l 411 930 q 451 885 445 892 q 481 855 458 878 q 528 810 505 832 q 598 749 559 781 z "},"":{"ha":796,"x_min":50,"x_max":741,"o":"m 741 320 q 636 77 741 178 q 396 -22 534 -22 q 150 80 250 -22 q 50 327 50 181 q 152 569 50 469 q 397 670 254 670 q 641 568 541 670 q 741 320 741 465 m 682 290 q 579 503 682 402 q 346 608 473 608 q 178 540 247 608 q 109 380 109 472 q 214 142 109 246 q 441 41 317 41 q 608 104 539 41 q 682 290 682 174 m 553 807 q 536 768 553 784 q 495 753 519 753 q 455 769 471 753 q 439 810 439 786 q 456 849 439 833 q 498 865 473 865 q 537 848 521 865 q 553 807 553 831 m 347 807 q 330 768 347 784 q 289 753 313 753 q 249 769 265 753 q 233 810 233 786 q 250 849 233 833 q 292 865 267 865 q 331 848 315 865 q 347 807 347 831 z "},"":{"ha":796,"x_min":50,"x_max":741,"o":"m 741 320 q 636 77 741 178 q 396 -22 534 -22 q 150 80 250 -22 q 50 327 50 181 q 152 569 50 469 q 397 670 254 670 q 641 568 541 670 q 741 320 741 465 m 682 290 q 579 503 682 402 q 346 608 473 608 q 178 540 247 608 q 109 380 109 472 q 214 142 109 246 q 441 41 317 41 q 608 104 539 41 q 682 290 682 174 m 581 867 q 543 787 572 823 q 469 743 509 743 q 362 795 421 743 q 290 848 303 848 q 242 819 260 848 q 224 744 224 789 l 174 790 q 214 869 189 836 q 287 913 247 913 q 366 880 326 913 q 466 808 453 808 q 513 837 495 808 q 531 912 531 867 l 581 867 z "},"":{"ha":781,"x_min":91,"x_max":699,"o":"m 697 43 q 680 29 696 41 q 665 15 673 24 q 649 -2 656 6 q 640 -14 648 -4 q 633 -18 637 -18 q 624 -15 629 -18 q 574 30 597 2 q 541 113 541 71 q 471 28 519 66 q 340 -20 409 -20 q 149 62 216 -20 q 91 241 91 133 q 106 361 91 304 q 145 459 119 408 q 193 544 155 477 q 183 560 196 551 q 152 575 175 566 q 127 587 140 581 q 122 594 122 589 q 133 602 122 599 q 157 607 144 604 q 202 621 178 612 q 249 642 227 630 q 292 665 271 653 q 299 667 297 667 q 304 663 302 667 q 304 653 307 660 q 300 644 302 647 q 207 486 239 566 q 168 297 168 392 q 218 119 168 189 q 351 49 268 49 q 461 83 408 49 q 534 167 515 118 l 534 582 q 517 610 534 594 q 491 632 504 621 q 487 640 487 636 q 500 648 487 648 q 540 646 508 648 q 578 644 572 644 q 621 645 606 644 q 656 648 636 646 q 669 640 669 648 q 665 631 669 635 q 640 610 649 618 q 621 582 621 595 l 621 182 q 650 92 621 125 q 694 58 660 81 q 699 50 699 56 q 697 43 699 47 m 590 877 q 555 858 583 873 q 472 812 500 827 q 418 783 443 797 q 335 736 408 778 q 325 736 330 731 q 316 749 320 741 q 320 760 314 754 q 373 807 333 773 q 437 863 413 842 q 491 911 456 880 q 536 951 526 942 q 542 954 538 954 q 549 950 546 954 l 568 916 q 581 900 574 907 q 589 892 585 896 q 595 882 595 885 q 590 877 595 879 z "},"":{"ha":781,"x_min":91,"x_max":699,"o":"m 697 43 q 680 29 696 41 q 665 15 673 24 q 649 -2 656 6 q 640 -14 648 -4 q 633 -18 637 -18 q 624 -15 629 -18 q 574 30 597 2 q 541 113 541 71 q 471 28 519 66 q 340 -20 409 -20 q 149 62 216 -20 q 91 241 91 133 q 106 361 91 304 q 145 459 119 408 q 193 544 155 477 q 183 560 196 551 q 152 575 175 566 q 127 587 140 581 q 122 594 122 589 q 133 602 122 599 q 157 607 144 604 q 202 621 178 612 q 249 642 227 630 q 292 665 271 653 q 299 667 297 667 q 304 663 302 667 q 304 653 307 660 q 300 644 302 647 q 207 486 239 566 q 168 297 168 392 q 218 119 168 189 q 351 49 268 49 q 461 83 408 49 q 534 167 515 118 l 534 582 q 517 610 534 594 q 491 632 504 621 q 487 640 487 636 q 500 648 487 648 q 540 646 508 648 q 578 644 572 644 q 621 645 606 644 q 656 648 636 646 q 669 640 669 648 q 665 631 669 635 q 640 610 649 618 q 621 582 621 595 l 621 182 q 650 92 621 125 q 694 58 660 81 q 699 50 699 56 q 697 43 699 47 m 533 753 q 524 740 529 745 q 514 739 519 734 q 467 766 484 756 q 377 815 397 805 q 295 861 332 840 q 259 880 264 878 q 254 886 254 882 q 260 895 254 888 q 271 906 267 902 q 281 920 277 913 l 300 954 q 307 958 303 958 q 313 955 311 958 q 412 867 331 937 q 490 799 420 859 q 529 764 515 778 q 533 753 535 758 z "},"":{"ha":781,"x_min":91,"x_max":699,"o":"m 697 43 q 680 29 696 41 q 665 15 673 24 q 649 -2 656 6 q 640 -14 648 -4 q 633 -18 637 -18 q 624 -15 629 -18 q 574 30 597 2 q 541 113 541 71 q 471 28 519 66 q 340 -20 409 -20 q 149 62 216 -20 q 91 241 91 133 q 106 361 91 304 q 145 459 119 408 q 193 544 155 477 q 183 560 196 551 q 152 575 175 566 q 127 587 140 581 q 122 594 122 589 q 133 602 122 599 q 157 607 144 604 q 202 621 178 612 q 249 642 227 630 q 292 665 271 653 q 299 667 297 667 q 304 663 302 667 q 304 653 307 660 q 300 644 302 647 q 207 486 239 566 q 168 297 168 392 q 218 119 168 189 q 351 49 268 49 q 461 83 408 49 q 534 167 515 118 l 534 582 q 517 610 534 594 q 491 632 504 621 q 487 640 487 636 q 500 648 487 648 q 540 646 508 648 q 578 644 572 644 q 621 645 606 644 q 656 648 636 646 q 669 640 669 648 q 665 631 669 635 q 640 610 649 618 q 621 582 621 595 l 621 182 q 650 92 621 125 q 694 58 660 81 q 699 50 699 56 q 697 43 699 47 m 625 752 q 625 749 627 751 q 620 747 623 747 q 607 748 615 747 q 595 748 600 748 q 584 748 590 748 q 572 747 578 747 q 564 748 567 747 q 548 752 552 748 q 487 804 524 774 q 414 861 450 834 q 341 804 385 840 q 279 752 307 777 q 266 748 275 748 q 253 747 262 747 q 232 748 239 748 l 206 747 q 201 747 203 747 q 201 752 198 749 q 283 825 242 787 q 317 858 308 849 q 389 934 360 899 l 438 934 q 478 889 472 896 q 509 859 485 882 q 555 814 532 836 q 625 752 587 784 z "},"":{"ha":781,"x_min":91,"x_max":699,"o":"m 697 43 q 680 29 696 41 q 665 15 673 24 q 649 -2 656 6 q 640 -14 648 -4 q 633 -18 637 -18 q 624 -15 629 -18 q 574 30 597 2 q 541 113 541 71 q 471 28 519 66 q 340 -20 409 -20 q 149 62 216 -20 q 91 241 91 133 q 106 361 91 304 q 145 459 119 408 q 193 544 155 477 q 183 560 196 551 q 152 575 175 566 q 127 587 140 581 q 122 594 122 589 q 133 602 122 599 q 157 607 144 604 q 202 621 178 612 q 249 642 227 630 q 292 665 271 653 q 299 667 297 667 q 304 663 302 667 q 304 653 307 660 q 300 644 302 647 q 207 486 239 566 q 168 297 168 392 q 218 119 168 189 q 351 49 268 49 q 461 83 408 49 q 534 167 515 118 l 534 582 q 517 610 534 594 q 491 632 504 621 q 487 640 487 636 q 500 648 487 648 q 540 646 508 648 q 578 644 572 644 q 621 645 606 644 q 656 648 636 646 q 669 640 669 648 q 665 631 669 635 q 640 610 649 618 q 621 582 621 595 l 621 182 q 650 92 621 125 q 694 58 660 81 q 699 50 699 56 q 697 43 699 47 m 611 797 q 594 758 611 774 q 553 743 577 743 q 513 759 529 743 q 497 800 497 776 q 514 839 497 823 q 555 855 531 855 q 595 838 578 855 q 611 797 611 821 m 405 797 q 388 758 405 774 q 347 743 371 743 q 307 759 323 743 q 291 800 291 776 q 308 839 291 823 q 349 855 325 855 q 389 838 372 855 q 405 797 405 821 z "},"":{"ha":576,"x_min":28,"x_max":548,"o":"m 548 595 q 540 581 548 581 q 532 586 535 581 q 507 616 516 606 q 488 628 497 627 l 305 654 q 314 623 309 639 q 326 589 319 608 q 338 561 333 570 q 353 532 347 544 q 335 402 344 470 q 327 270 327 335 q 322 130 327 217 q 313 -23 318 43 q 308 -90 309 -90 l 267 -90 q 262 -22 264 -56 q 253 137 258 43 q 248 270 248 230 q 239 408 248 334 q 222 532 228 491 q 237 561 232 551 q 249 590 244 577 q 261 623 254 602 q 271 654 269 644 l 88 628 q 65 612 77 627 q 46 587 56 600 q 35 581 40 581 q 28 594 28 581 q 29 615 28 606 q 33 670 33 658 q 31 711 33 696 q 28 747 30 727 q 36 759 28 759 q 46 754 41 759 q 65 730 58 738 q 88 712 78 713 l 271 688 l 245 910 q 229 934 243 921 q 203 954 216 943 q 198 963 198 959 q 212 970 198 970 q 233 969 224 970 q 288 966 275 966 q 333 968 307 966 q 363 970 359 970 q 377 962 377 970 q 372 954 377 957 q 340 928 350 938 q 330 910 330 919 l 305 688 l 488 712 q 513 730 500 713 q 533 755 531 753 q 540 759 536 759 q 548 747 548 759 q 547 726 548 735 q 544 670 544 683 q 546 625 544 650 q 548 595 548 600 z "},"":{"ha":407,"x_min":54,"x_max":353,"o":"m 353 715 q 309 609 353 652 q 203 566 266 566 q 98 609 141 566 q 54 715 54 652 q 98 821 54 777 q 203 865 141 865 q 309 821 266 865 q 353 715 353 777 m 298 715 q 271 783 298 755 q 203 811 243 811 q 136 783 163 811 q 109 715 109 755 q 136 647 109 675 q 203 620 163 620 q 271 647 243 620 q 298 715 298 675 z "},"":{"ha":709,"x_min":117,"x_max":644,"o":"m 640 292 q 644 285 644 291 q 639 264 644 280 q 569 175 620 216 q 410 118 499 118 q 305 136 356 118 l 282 83 q 249 27 263 44 q 221 5 237 14 q 207 3 215 3 l 198 5 l 199 11 q 223 48 212 28 q 251 104 235 68 l 270 149 q 162 247 201 184 q 117 425 117 321 q 208 646 117 552 q 426 739 298 739 q 481 732 452 739 l 498 769 q 531 825 517 808 q 559 846 543 838 q 574 849 568 849 l 580 848 q 581 841 585 846 q 554 804 566 825 q 528 749 543 784 q 522 734 524 741 q 517 720 519 728 q 585 673 560 703 q 614 593 614 638 q 579 498 614 537 q 492 460 544 460 q 429 477 460 460 l 330 205 q 423 184 372 184 q 529 203 487 184 q 614 273 571 222 q 623 285 621 281 q 635 293 629 293 l 640 292 m 560 612 q 546 657 560 638 q 507 690 532 677 l 456 549 q 495 537 475 535 q 543 559 525 537 q 560 612 560 581 m 471 703 q 422 709 446 709 q 255 631 318 709 q 191 435 191 553 q 219 314 191 370 q 297 224 247 258 l 399 505 q 382 556 382 527 q 403 610 382 588 q 439 630 420 630 l 445 629 l 471 703 z "},"":{"ha":823,"x_min":46,"x_max":821,"o":"m 818 -37 q 750 -90 803 -62 q 623 -125 685 -125 q 500 -102 560 -125 q 397 -49 453 -85 l 301 16 q 235 -20 275 -5 q 151 -34 195 -34 q 81 -19 109 -34 q 46 33 46 -1 q 87 90 46 71 q 170 104 119 104 q 238 95 201 104 q 296 72 275 85 q 326 130 315 100 q 340 208 340 169 q 319 301 340 256 q 267 271 299 290 q 196 227 201 229 q 187 224 191 224 q 180 228 183 224 l 171 243 q 161 266 165 254 q 171 277 161 272 q 227 305 203 293 q 298 345 264 325 q 252 454 262 423 q 225 589 225 528 q 308 788 225 710 q 528 865 390 865 q 674 810 612 865 q 736 673 736 755 q 691 560 736 607 q 582 513 646 513 q 501 541 535 513 q 467 612 467 568 q 482 661 467 638 q 518 692 498 684 q 531 695 523 694 q 544 696 539 696 q 555 690 555 694 q 549 681 555 687 q 540 647 538 667 q 559 611 542 625 q 600 597 577 597 q 659 627 636 597 q 682 697 682 657 q 626 797 682 759 q 505 831 575 831 q 340 766 402 831 q 288 639 288 709 q 314 521 288 591 q 382 389 341 451 q 439 422 404 401 q 487 452 475 444 q 496 454 490 454 q 506 448 501 454 l 522 420 q 516 405 528 412 q 454 372 505 397 q 400 345 412 351 q 417 291 413 311 q 420 248 420 270 q 395 136 420 190 q 335 50 375 95 q 403 7 377 22 q 490 -31 446 -16 q 593 -47 543 -47 q 659 -37 624 -47 q 728 9 710 -22 q 735 25 732 16 q 740 42 738 35 q 746 49 743 49 l 750 46 q 765 22 758 33 q 783 0 772 12 q 802 -16 791 -9 l 815 -24 q 818 -37 821 -31 m 263 38 q 216 63 245 54 q 161 72 186 72 q 100 60 119 72 q 85 33 85 51 q 110 3 85 12 q 159 -4 128 -4 q 212 7 182 -4 q 263 38 241 18 z "},"":{"ha":646,"x_min":66,"x_max":581,"o":"m 579 427 q 544 349 574 387 q 484 298 519 319 q 542 236 523 266 q 568 144 568 195 q 481 -33 568 34 q 279 -96 400 -96 q 130 -58 189 -96 q 66 50 66 -17 q 100 151 66 110 q 193 194 136 194 q 291 173 254 194 q 328 115 328 153 q 307 57 328 80 q 254 34 285 34 q 229 37 240 34 q 212 46 218 40 q 209 52 209 48 q 213 57 209 56 q 233 66 227 61 q 245 94 245 75 q 243 109 245 100 q 228 126 242 118 q 191 134 214 134 q 130 110 152 134 q 108 53 108 85 q 109 41 108 45 q 163 -32 116 -3 q 279 -60 210 -60 q 425 -26 366 -60 q 502 102 502 16 q 473 197 502 156 q 399 260 449 231 q 305 304 361 282 q 201 348 237 330 q 114 411 143 378 q 77 506 77 453 q 77 516 77 511 q 79 526 79 523 q 116 603 83 568 q 189 652 144 633 q 128 711 150 677 q 102 806 102 752 q 172 925 102 878 q 327 970 238 970 q 460 949 410 970 q 528 863 528 921 q 492 801 528 825 q 415 779 458 779 q 346 794 374 779 q 312 848 312 813 q 326 882 312 867 q 355 899 340 897 q 364 898 361 901 q 365 890 367 895 q 364 882 364 887 q 363 875 363 877 q 374 854 365 862 q 412 844 387 844 q 443 856 430 844 q 456 884 456 868 q 412 929 456 915 q 327 940 378 940 q 218 910 264 940 q 165 827 172 880 q 165 814 165 823 q 193 749 165 779 q 260 699 216 722 q 342 661 290 682 q 462 606 426 625 q 548 542 521 575 q 581 448 581 503 q 580 437 581 443 q 579 427 579 431 m 513 411 q 515 429 515 420 q 487 494 515 465 q 417 543 465 517 q 328 583 391 557 q 274 606 292 599 q 220 631 241 620 q 175 600 199 623 q 142 548 147 572 q 141 531 141 542 q 231 422 141 473 q 319 381 260 406 q 396 347 365 361 q 452 319 435 329 q 489 356 472 331 q 513 411 507 380 z "},"":{"ha":610,"x_min":109,"x_max":500,"o":"m 500 505 q 443 367 500 425 q 304 308 385 308 q 166 365 223 308 q 109 505 109 422 q 166 643 109 587 q 305 700 223 700 q 443 643 386 700 q 500 505 500 587 z "},"":{"ha":865,"x_min":77,"x_max":827,"o":"m 827 928 q 806 884 827 903 q 758 865 785 865 q 674 875 705 865 l 674 66 q 689 43 674 56 q 715 22 702 32 q 724 7 724 12 q 708 0 724 0 q 686 1 695 0 q 628 4 641 4 q 585 3 602 4 q 548 0 569 1 q 531 7 531 0 q 541 20 531 12 q 570 41 561 34 q 589 66 589 55 l 589 799 q 565 883 589 852 q 503 921 545 910 l 503 518 q 530 488 521 507 q 540 446 540 469 q 496 360 540 393 q 378 323 446 323 q 164 403 246 323 q 77 637 77 488 q 173 871 77 776 q 418 970 271 970 q 547 955 484 970 q 640 926 567 950 q 709 911 686 911 q 723 911 718 911 q 752 915 742 911 q 768 932 763 918 q 769 941 769 937 q 758 967 769 958 q 752 975 752 972 q 759 981 752 979 q 772 983 765 983 q 784 982 776 983 q 816 963 804 978 q 827 928 827 948 m 465 528 l 465 926 q 243 848 316 926 q 179 652 179 779 q 247 422 179 501 q 372 359 300 359 q 439 382 414 359 q 464 444 464 406 q 457 481 464 469 q 427 505 450 494 q 424 511 424 506 q 427 517 424 514 q 465 528 440 528 z "},"":{"ha":700,"x_min":7,"x_max":658,"o":"m 658 174 q 603 43 658 100 q 445 -22 541 -22 q 339 5 385 -22 q 274 104 281 39 q 273 116 273 109 q 306 197 273 161 q 388 233 339 233 q 472 207 440 233 q 503 137 503 181 q 484 92 503 109 q 435 75 465 75 q 414 78 424 75 q 400 86 404 81 q 395 92 395 90 q 403 98 395 96 q 421 106 417 103 q 431 134 431 115 q 416 165 431 155 q 378 175 401 175 q 325 157 345 175 q 304 109 304 138 q 305 102 305 104 q 356 33 310 55 q 445 15 392 15 q 553 58 511 15 q 594 163 594 102 q 563 253 594 218 q 419 361 531 289 q 323 437 355 401 q 281 531 281 484 q 284 554 281 543 q 292 578 286 566 q 347 637 301 600 q 423 705 406 684 q 461 804 461 750 q 462 818 462 813 q 436 901 462 867 q 355 940 406 940 q 264 909 297 940 q 231 825 231 878 l 231 31 q 194 -163 231 -84 q 116 -263 165 -226 q 49 -296 81 -290 q 35 -290 37 -297 q 30 -273 32 -283 q 25 -249 28 -262 q 18 -227 22 -236 q 11 -210 14 -218 q 18 -201 7 -201 q 27 -203 21 -201 q 43 -205 34 -205 q 108 -166 83 -205 q 144 26 144 -110 l 144 608 q 96 606 123 608 q 66 605 70 605 q 54 608 55 605 q 54 618 54 612 q 54 627 54 623 q 55 644 54 639 q 68 648 56 648 q 98 647 73 648 q 144 646 123 646 l 144 768 q 200 910 144 854 q 359 970 260 970 q 484 937 434 970 q 545 823 545 897 q 545 810 545 814 q 544 803 544 806 q 493 703 538 751 q 408 631 474 684 q 350 568 358 593 q 345 542 345 556 q 422 443 345 492 q 487 404 454 423 q 566 348 538 371 q 631 274 608 312 q 658 174 658 228 z "},"":{"ha":971,"x_min":127,"x_max":838,"o":"m 838 635 q 735 383 838 486 q 483 279 631 279 q 231 383 334 279 q 127 635 127 486 q 231 886 127 783 q 483 990 334 990 q 734 886 631 990 q 838 635 838 783 m 785 635 q 697 849 785 760 q 483 937 608 937 q 270 849 359 937 q 180 635 180 760 q 269 421 180 510 q 483 332 358 332 q 697 421 608 332 q 785 635 785 509 m 681 434 q 650 420 672 420 q 603 433 623 420 q 548 513 568 455 q 531 563 540 541 q 513 602 522 585 q 473 598 493 600 q 437 606 451 598 q 423 631 423 613 q 437 656 423 646 q 471 666 452 666 q 500 660 486 666 q 525 643 515 653 q 570 734 570 667 q 546 802 570 772 q 456 842 515 842 q 406 838 429 842 q 353 819 382 833 q 317 793 334 811 q 297 755 297 771 q 298 742 297 744 q 302 735 298 741 q 316 730 312 728 q 326 725 326 730 q 324 718 326 724 q 315 706 322 712 q 298 700 307 700 q 274 711 281 700 q 267 742 267 722 q 293 801 267 770 q 343 842 315 829 q 408 867 376 861 q 458 871 425 871 q 581 834 531 871 q 631 734 631 797 q 606 661 631 694 q 549 616 585 632 q 577 583 563 604 q 600 540 591 562 q 619 484 611 503 q 651 446 635 446 q 665 450 661 446 q 671 458 669 453 q 675 464 673 464 q 681 460 677 464 q 685 446 685 452 q 681 434 685 439 m 430 439 q 436 431 436 434 q 427 427 436 427 l 382 427 l 340 427 q 329 433 329 428 q 335 439 329 436 q 347 448 344 445 q 355 460 355 454 l 355 746 q 350 758 355 755 q 345 761 345 760 q 341 766 341 763 q 345 772 341 769 q 361 780 355 777 q 379 791 367 783 q 404 808 392 799 q 418 821 410 814 q 424 822 421 823 q 427 819 427 821 q 425 814 427 816 q 415 795 418 807 q 411 770 411 784 l 411 460 q 419 449 411 455 q 430 439 427 442 m 496 627 q 484 637 492 633 q 469 643 476 642 q 455 641 462 644 q 449 631 449 638 q 456 623 449 625 q 472 621 463 621 q 496 627 486 621 z "},"":{"ha":971,"x_min":127,"x_max":838,"o":"m 838 635 q 735 383 838 486 q 483 279 631 279 q 231 383 334 279 q 127 635 127 486 q 231 886 127 783 q 483 990 334 990 q 734 886 631 990 q 838 635 838 783 m 785 635 q 697 849 785 760 q 483 937 608 937 q 270 849 359 937 q 180 635 180 760 q 269 421 180 510 q 483 332 358 332 q 697 421 608 332 q 785 635 785 509 m 656 515 q 613 438 656 470 q 510 406 569 406 q 354 477 412 406 q 296 662 296 549 q 355 807 296 749 q 494 864 414 864 q 575 840 540 864 q 616 796 602 823 q 625 786 618 792 q 633 777 631 780 q 632 768 640 771 q 623 765 625 766 q 609 758 617 763 l 590 746 q 584 745 587 745 q 582 748 582 746 q 583 755 582 749 q 585 766 585 761 q 582 783 585 774 q 494 833 560 833 q 397 779 435 833 q 363 663 363 730 q 397 517 363 576 q 510 446 437 446 q 590 466 559 446 q 621 515 621 486 q 619 527 621 522 q 613 534 616 533 q 595 530 602 537 q 593 530 594 530 q 590 534 589 530 q 601 557 593 549 q 618 564 609 564 q 649 549 640 564 q 656 515 656 536 z "},"":{"ha":1139,"x_min":80,"x_max":1005,"o":"m 1000 438 q 1005 429 1005 434 q 994 423 1005 423 l 948 425 l 905 423 q 894 429 894 423 q 898 437 894 433 q 911 448 907 444 q 920 463 920 456 l 865 868 l 753 743 q 786 693 772 722 q 800 637 800 665 q 779 574 800 602 q 724 547 758 547 q 672 573 692 547 q 652 636 652 600 q 660 678 652 656 q 686 722 668 700 q 640 780 661 752 q 594 848 605 825 l 544 463 q 552 450 543 456 q 567 437 560 443 q 573 428 573 432 q 564 423 573 423 l 519 425 l 476 423 q 464 430 464 423 q 468 438 464 434 q 481 448 477 445 q 491 463 490 455 l 553 902 q 549 913 554 907 q 529 930 538 922 q 526 936 526 933 q 537 941 526 941 q 555 939 547 940 q 582 939 564 939 l 625 940 q 635 935 635 940 q 632 929 635 932 q 618 917 622 921 q 612 902 609 909 q 668 828 618 882 q 730 766 707 785 l 848 898 q 854 909 854 904 q 847 920 854 914 q 834 930 840 925 q 831 936 831 932 q 840 941 831 941 q 858 940 843 941 q 886 939 873 939 q 911 939 902 939 q 932 941 920 940 q 941 937 941 941 q 939 930 941 934 q 924 918 929 922 q 914 902 913 909 l 972 463 q 983 449 973 456 q 1000 438 991 444 m 503 960 q 464 908 503 931 q 378 884 425 884 q 349 886 363 884 q 320 891 334 888 l 320 463 q 327 451 320 457 q 340 439 334 445 q 347 429 347 434 q 335 423 347 423 l 290 425 l 245 425 q 235 430 235 425 q 240 437 235 433 q 254 449 245 442 q 262 463 262 455 l 262 899 q 224 905 257 900 q 168 910 192 910 q 125 903 138 910 q 113 878 113 896 q 116 870 113 874 q 125 864 119 865 q 130 863 127 863 q 132 863 132 863 q 144 867 139 863 q 151 867 149 870 q 152 859 154 865 q 141 839 151 848 q 115 829 132 829 q 90 840 100 829 q 80 868 80 852 q 128 928 80 904 q 236 952 176 952 q 305 944 269 952 q 418 926 384 926 q 469 951 469 926 q 464 964 469 960 q 450 966 458 967 q 442 970 442 964 q 445 975 442 972 q 471 990 452 990 q 503 960 503 990 m 761 627 q 745 668 761 647 q 715 699 734 684 q 690 669 698 682 q 680 632 680 652 q 690 589 680 608 q 722 570 701 570 q 750 587 739 570 q 761 627 761 604 z "},"":{"ha":678,"x_min":219,"x_max":500,"o":"m 495 1152 q 460 1133 488 1148 q 377 1087 406 1102 q 323 1058 348 1072 q 240 1010 313 1053 q 230 1011 235 1006 q 221 1024 225 1016 q 225 1035 219 1029 q 278 1082 238 1048 q 342 1138 318 1116 q 396 1185 361 1154 q 441 1226 431 1217 q 447 1229 444 1229 q 454 1225 451 1229 l 473 1191 q 486 1175 479 1181 q 494 1166 490 1171 q 500 1157 500 1160 q 495 1152 500 1154 z "},"":{"ha":678,"x_min":179,"x_max":499,"o":"m 499 1085 q 482 1046 499 1062 q 441 1031 465 1031 q 401 1047 417 1031 q 385 1088 385 1064 q 402 1127 385 1111 q 444 1143 419 1143 q 483 1126 467 1143 q 499 1085 499 1109 m 293 1085 q 276 1046 293 1062 q 235 1031 259 1031 q 195 1047 211 1031 q 179 1088 179 1064 q 196 1127 179 1111 q 237 1143 213 1143 q 277 1126 260 1143 q 293 1085 293 1109 z "},"":{"ha":765,"x_min":79,"x_max":675,"o":"m 670 18 q 675 7 675 13 q 659 0 675 0 q 646 1 652 0 q 608 4 619 4 q 584 3 596 4 q 557 1 571 2 q 541 8 541 1 q 545 16 541 11 q 556 33 552 24 q 560 56 560 42 l 560 121 q 473 24 534 65 q 331 -22 405 -22 q 155 40 227 -22 q 79 209 79 105 q 161 384 79 313 q 351 452 241 452 q 471 425 410 452 q 560 354 532 398 q 553 496 560 456 q 500 600 541 566 q 351 640 452 640 q 260 622 303 640 q 195 562 208 600 q 193 547 193 554 q 221 518 193 518 q 243 540 240 518 q 240 552 243 549 q 241 559 238 555 q 254 560 245 562 q 273 547 264 558 q 283 514 283 534 q 258 461 283 482 q 199 439 233 439 q 142 460 164 439 q 117 523 117 482 q 118 537 117 532 q 190 631 124 593 q 355 670 256 670 q 593 597 522 670 q 647 452 647 544 l 647 71 q 655 37 647 52 q 670 18 659 31 m 557 235 q 501 357 557 311 q 353 403 444 403 q 222 354 278 403 q 167 233 167 305 q 224 101 167 153 q 358 52 278 52 q 503 103 448 52 q 557 235 557 154 z "},"":{"ha":1686,"x_min":26,"x_max":1675,"o":"m 1675 789 q 1639 690 1675 732 q 1531 613 1604 648 q 1403 571 1477 587 q 1273 549 1364 563 q 1139 524 1181 534 q 999 452 1069 505 q 906 359 939 407 q 1031 146 929 243 q 1282 38 1145 38 q 1442 75 1375 38 q 1514 174 1514 113 q 1509 214 1514 197 q 1501 233 1503 229 q 1502 240 1499 237 q 1511 241 1506 243 q 1546 224 1528 241 q 1568 170 1568 201 q 1466 28 1568 84 q 1256 -22 1373 -22 q 1052 25 1144 -22 q 901 159 960 73 l 901 66 q 924 37 901 53 q 944 22 941 24 q 953 7 953 13 q 939 0 953 0 q 905 2 934 0 q 853 4 877 4 q 810 3 827 4 q 773 0 794 1 q 755 9 755 0 q 762 20 755 15 q 789 41 780 34 q 806 66 806 55 q 809 88 807 74 q 810 120 810 102 q 787 267 810 195 q 675 458 754 370 q 567 549 628 511 q 431 612 507 587 q 366 462 393 543 q 330 259 330 353 q 334 111 330 156 q 370 -28 342 33 q 420 -93 387 -66 q 469 -121 444 -113 q 480 -131 480 -125 q 472 -140 480 -137 q 443 -149 453 -145 q 393 -171 422 -157 q 353 -195 370 -183 q 332 -212 340 -204 q 326 -215 329 -215 q 317 -202 317 -215 q 315 -153 317 -180 q 305 -71 313 -125 q 283 68 293 -1 q 273 197 273 136 q 304 441 273 321 q 377 625 332 547 q 346 630 362 628 q 307 632 329 632 q 227 623 269 632 q 154 593 185 614 q 113 528 113 565 q 144 483 113 489 q 151 482 146 482 q 174 490 163 482 q 189 507 184 497 l 193 521 q 196 526 195 526 q 202 518 199 526 q 205 496 205 510 q 201 469 205 481 q 171 428 192 444 q 119 411 150 411 q 111 410 115 410 q 51 437 75 410 q 26 506 26 464 q 102 622 26 576 q 214 665 152 652 q 262 671 236 669 q 317 673 289 673 q 403 666 372 673 q 621 867 501 796 q 920 949 758 949 q 930 949 926 949 q 944 949 937 949 q 951 945 951 949 q 945 936 951 941 q 939 929 940 930 q 909 883 914 899 q 901 772 901 854 q 1056 915 964 863 q 1265 970 1154 970 q 1411 937 1350 970 q 1478 840 1478 901 q 1459 786 1478 808 q 1405 758 1439 764 q 1398 758 1402 758 q 1391 758 1393 758 q 1367 760 1377 758 q 1350 768 1357 762 q 1344 774 1344 770 q 1351 783 1344 777 q 1369 800 1364 794 q 1382 834 1379 814 q 1383 839 1383 837 q 1383 844 1383 842 q 1336 903 1383 881 q 1246 921 1297 921 q 1103 889 1168 921 q 987 795 1038 857 q 904 637 929 722 q 885 498 885 572 q 887 453 885 474 q 892 411 889 432 q 975 494 916 444 q 1112 582 1050 558 q 1223 613 1166 602 q 1331 629 1255 619 q 1454 647 1408 638 q 1568 682 1529 661 q 1629 765 1629 713 q 1609 812 1629 800 q 1600 815 1606 814 q 1592 816 1594 816 q 1581 815 1585 816 l 1569 811 q 1563 812 1565 809 q 1563 821 1560 815 q 1580 845 1568 833 q 1614 860 1596 860 q 1659 839 1643 860 q 1675 789 1675 817 m 806 357 l 806 892 q 612 807 708 874 q 526 737 559 770 q 457 650 494 704 q 564 604 515 630 q 651 544 606 580 q 736 460 701 505 q 806 357 770 420 z "},"":{"ha":922,"x_min":28,"x_max":867,"o":"m 863 1040 q 757 936 808 1005 q 716 872 736 907 q 823 700 785 803 q 861 480 861 597 q 749 143 861 293 q 445 -20 626 -20 q 337 -2 389 -20 q 241 49 286 16 q 221 18 231 33 q 202 -8 208 -1 q 119 -91 157 -62 q 61 -119 87 -115 q 52 -121 56 -121 q 36 -118 43 -121 q 28 -111 28 -115 q 33 -106 28 -109 q 90 -59 60 -88 q 141 -1 120 -29 q 172 41 157 19 q 198 83 186 62 q 97 253 134 153 q 61 458 61 353 q 117 729 61 612 q 263 888 172 842 q 272 892 267 890 q 282 892 278 895 q 285 887 285 890 q 281 877 285 882 q 275 871 278 873 q 215 803 237 836 q 166 682 182 753 q 146 472 146 598 q 176 316 146 395 q 251 180 203 242 l 629 836 q 550 899 591 878 q 469 921 510 921 q 397 898 424 921 q 370 838 370 876 q 383 799 370 817 q 417 781 396 781 q 427 781 422 781 q 440 787 433 782 q 450 797 447 792 q 454 807 453 802 q 457 817 456 812 q 460 821 457 821 q 468 817 464 821 q 475 784 475 806 q 475 777 475 781 q 473 770 473 772 q 449 727 469 745 q 400 709 429 709 q 329 742 357 709 q 301 821 301 774 q 360 930 301 886 q 484 970 414 970 q 586 952 534 970 q 675 907 632 937 q 691 931 683 920 q 707 951 696 939 q 778 1023 743 996 q 834 1054 812 1050 q 844 1055 840 1055 q 860 1053 852 1055 q 867 1046 867 1050 q 863 1040 867 1044 m 781 427 q 750 625 781 530 q 667 791 720 720 l 290 137 q 382 75 332 97 q 486 53 431 53 q 694 144 614 53 q 781 427 781 245 z "},"":{"ha":741,"x_min":56,"x_max":651,"o":"m 651 416 q 622 237 651 320 q 530 54 593 153 q 495 -13 510 22 q 476 -88 476 -57 q 495 -146 476 -125 q 534 -164 511 -164 q 561 -156 550 -164 q 574 -125 576 -145 q 570 -107 574 -115 q 575 -99 566 -99 q 581 -100 576 -99 q 597 -115 591 -106 q 606 -144 606 -127 q 585 -182 606 -168 q 536 -197 563 -197 q 468 -169 494 -197 q 442 -92 442 -141 q 453 -28 442 -62 q 484 46 464 7 q 526 135 512 102 q 559 240 547 188 q 571 351 571 292 q 524 524 571 457 q 389 594 474 594 q 287 561 333 594 q 220 483 248 532 l 220 66 q 235 41 220 54 q 260 22 248 31 q 270 7 270 14 q 252 0 270 0 q 232 1 240 0 q 176 4 190 4 q 135 3 151 4 q 100 0 120 1 q 83 6 83 0 q 92 20 83 11 q 117 41 109 34 q 133 66 133 55 l 133 792 q 132 823 133 812 q 115 833 130 835 q 89 820 106 831 q 66 806 72 808 q 60 806 63 804 q 56 811 56 808 q 61 823 56 815 q 98 861 66 830 q 140 902 124 886 q 198 964 167 930 q 215 982 211 979 q 222 986 218 986 q 228 975 229 986 q 222 924 223 930 q 220 853 220 887 l 220 541 q 287 621 250 590 q 411 670 345 670 q 599 578 533 670 q 651 416 651 506 z "},"":{"ha":1024,"x_min":47,"x_max":939,"o":"m 939 416 q 918 274 939 346 q 870 153 902 217 q 815 54 850 112 q 772 -31 785 3 q 760 -88 760 -64 q 779 -146 760 -125 q 818 -164 795 -164 q 844 -156 833 -164 q 857 -125 859 -145 q 856 -115 857 -121 q 854 -107 854 -109 q 854 -101 852 -104 q 859 -98 855 -98 q 864 -100 861 -98 q 882 -118 874 -107 q 890 -144 890 -128 q 868 -182 890 -168 q 819 -197 846 -197 q 751 -169 777 -197 q 726 -92 726 -141 q 739 -26 726 -65 q 768 46 748 1 q 826 203 802 124 q 854 365 854 300 q 814 531 854 471 q 686 594 770 594 q 603 570 641 594 q 555 522 572 551 q 555 488 555 511 q 556 444 555 465 l 556 66 q 570 43 556 56 q 595 23 583 33 q 604 9 604 15 q 587 0 604 0 q 567 1 575 0 q 513 4 526 4 q 473 3 488 4 q 438 0 458 1 q 422 8 422 0 q 430 22 422 14 q 448 37 432 24 q 469 66 469 53 l 469 446 q 445 552 469 515 q 359 594 417 594 q 277 557 317 594 q 227 483 242 524 l 227 66 q 251 34 227 53 q 274 5 276 14 q 260 -1 273 -1 q 220 3 237 1 q 183 4 203 4 q 127 1 161 4 q 106 -1 113 -1 q 92 5 93 -1 q 115 34 90 15 q 140 66 140 54 l 140 468 q 104 562 140 526 q 52 598 90 577 q 47 605 47 602 q 52 613 47 609 q 66 626 60 621 q 81 640 73 631 q 97 657 90 649 q 106 669 99 659 q 113 673 109 673 q 122 670 117 673 q 173 614 145 651 q 216 532 210 566 q 272 613 238 578 q 395 670 328 670 q 494 633 452 670 q 545 560 523 608 q 603 630 567 601 q 708 670 652 670 q 891 581 830 670 q 939 416 939 512 z "},"":{"ha":741,"x_min":47,"x_max":659,"o":"m 659 416 q 628 230 659 321 q 540 54 600 147 q 496 -31 511 9 q 484 -88 484 -64 q 503 -146 484 -125 q 543 -164 519 -164 q 569 -156 558 -164 q 582 -125 584 -145 q 579 -107 582 -113 q 581 -101 578 -103 q 589 -100 584 -98 q 605 -114 598 -104 q 614 -144 614 -127 q 593 -182 614 -168 q 544 -197 571 -197 q 476 -169 502 -197 q 450 -92 450 -141 q 463 -26 450 -64 q 492 46 473 5 q 534 139 519 102 q 566 238 556 194 q 579 351 579 294 q 532 524 579 457 q 397 594 482 594 q 295 561 341 594 q 227 483 255 532 l 227 66 q 245 39 227 54 q 263 24 254 31 q 273 8 273 14 q 258 0 273 0 q 237 1 245 0 q 183 4 196 4 q 144 3 159 4 q 110 0 130 1 q 92 7 92 0 q 102 23 92 13 q 119 38 105 26 q 140 66 140 54 l 140 468 q 104 562 140 526 q 52 597 90 575 q 47 604 47 600 q 52 613 47 608 q 66 626 60 621 q 80 639 73 631 q 96 656 88 647 q 104 666 103 665 q 115 673 111 673 q 123 669 118 673 q 176 614 147 652 q 216 532 209 568 q 289 616 246 580 q 419 670 353 670 q 607 578 541 670 q 659 416 659 506 z "},"":{"ha":642,"x_min":19,"x_max":591,"o":"m 591 315 l 354 315 q 369 155 354 220 q 416 39 384 90 q 420 28 420 32 q 410 20 420 22 q 389 16 400 18 q 357 4 377 13 q 317 -15 337 -3 q 309 -18 313 -18 q 298 -9 302 -18 q 284 70 290 14 q 278 179 278 125 q 279 250 278 204 q 279 315 279 295 l 47 315 l 47 350 l 282 350 q 286 384 282 362 q 289 415 289 406 l 277 431 l 47 431 l 47 465 l 252 465 q 165 604 211 524 q 79 770 115 691 q 53 800 73 783 q 24 826 28 821 q 19 836 19 831 q 34 844 19 844 q 54 843 46 844 q 109 840 96 840 q 151 842 127 840 q 179 844 174 844 q 195 834 195 844 q 191 827 195 831 q 172 808 178 815 q 160 783 159 795 q 234 627 170 737 q 340 465 290 531 q 407 542 391 522 q 486 654 458 604 q 525 765 525 721 q 510 801 525 789 q 471 814 494 814 q 460 812 468 814 q 437 806 446 812 q 419 785 428 799 q 413 769 415 779 q 410 753 412 760 q 403 747 409 747 q 395 754 399 747 q 387 775 390 762 q 385 800 385 789 q 412 857 385 833 q 475 882 439 882 q 554 853 525 882 q 583 780 583 825 q 555 671 583 728 q 486 568 532 627 q 400 465 443 516 l 591 465 l 591 431 l 369 431 l 361 423 q 358 401 359 410 q 355 350 355 374 l 591 350 l 591 315 z "},"":{"ha":960,"x_min":38,"x_max":930,"o":"m 930 788 q 856 631 930 696 q 675 566 781 566 q 509 605 573 566 q 438 730 438 649 q 486 828 438 789 q 597 867 534 867 q 694 845 654 867 q 741 772 741 819 q 717 724 741 743 q 684 707 699 709 q 669 705 670 705 q 663 709 663 705 q 666 718 665 715 q 670 729 667 719 q 673 755 673 739 q 651 792 673 777 q 605 807 630 807 q 535 781 563 807 q 507 718 507 755 q 564 629 507 661 q 681 601 612 601 q 832 652 768 601 q 899 788 899 707 q 798 958 899 894 q 583 1015 708 1015 q 366 936 456 1015 q 271 734 271 854 q 300 620 271 668 q 382 538 326 577 q 505 467 423 509 q 635 393 597 420 q 732 286 701 345 q 770 107 770 214 q 651 -126 770 -31 q 384 -218 536 -218 q 146 -151 243 -218 q 38 56 38 -75 q 113 213 38 147 q 293 278 188 278 q 459 239 395 278 q 530 114 530 195 q 483 16 530 55 q 372 -23 435 -23 q 275 -1 314 -23 q 228 72 228 24 q 252 119 228 100 q 284 136 270 134 q 300 138 298 138 q 305 134 305 138 q 302 126 304 130 q 300 118 302 125 q 296 88 296 104 q 317 52 296 67 q 363 37 338 37 q 433 62 406 37 q 461 126 461 88 q 405 215 461 183 q 288 243 356 243 q 136 191 200 243 q 69 56 69 137 q 170 -114 69 -50 q 385 -171 260 -171 q 603 -92 512 -171 q 697 110 697 -11 q 665 227 697 174 q 580 312 635 273 q 464 376 536 342 q 340 443 380 414 q 239 553 274 490 q 198 736 198 629 q 317 973 198 879 q 585 1062 430 1062 q 823 994 726 1062 q 930 788 930 918 z "},"":{"ha":960,"x_min":38,"x_max":930,"o":"m 930 788 q 856 631 930 696 q 675 566 781 566 q 509 605 573 566 q 438 730 438 649 q 486 828 438 789 q 597 867 534 867 q 694 845 654 867 q 741 772 741 819 q 717 724 741 743 q 684 707 699 709 q 669 705 670 705 q 663 709 663 705 q 666 718 665 715 q 670 729 667 719 q 673 755 673 739 q 651 792 673 777 q 605 807 630 807 q 535 781 563 807 q 507 718 507 755 q 564 629 507 661 q 681 601 612 601 q 832 652 768 601 q 899 788 899 707 q 798 958 899 894 q 583 1015 708 1015 q 366 936 456 1015 q 271 734 271 854 q 300 620 271 668 q 382 538 326 577 q 505 467 423 509 q 635 393 597 420 q 732 286 701 345 q 770 107 770 214 q 651 -126 770 -31 q 384 -218 536 -218 q 146 -151 243 -218 q 38 56 38 -75 q 113 213 38 147 q 293 278 188 278 q 459 239 395 278 q 530 114 530 195 q 483 16 530 55 q 372 -23 435 -23 q 275 -1 314 -23 q 228 72 228 24 q 252 119 228 100 q 284 136 270 134 q 300 138 298 138 q 305 134 305 138 q 302 126 304 130 q 300 118 302 125 q 296 88 296 104 q 317 52 296 67 q 363 37 338 37 q 433 62 406 37 q 461 126 461 88 q 405 215 461 183 q 288 243 356 243 q 136 191 200 243 q 69 56 69 137 q 170 -114 69 -50 q 385 -171 260 -171 q 603 -92 512 -171 q 697 110 697 -11 q 665 227 697 174 q 580 312 635 273 q 464 376 536 342 q 340 443 380 414 q 239 553 274 490 q 198 736 198 629 q 317 973 198 879 q 585 1062 430 1062 q 823 994 726 1062 q 930 788 930 918 z "},"":{"ha":960,"x_min":38,"x_max":930,"o":"m 930 788 q 856 631 930 696 q 675 566 781 566 q 509 605 573 566 q 438 730 438 649 q 486 828 438 789 q 597 867 534 867 q 694 845 654 867 q 741 772 741 819 q 717 724 741 743 q 684 707 699 709 q 669 705 670 705 q 663 709 663 705 q 666 718 665 715 q 670 729 667 719 q 673 755 673 739 q 651 792 673 777 q 605 807 630 807 q 535 781 563 807 q 507 718 507 755 q 564 629 507 661 q 681 601 612 601 q 832 652 768 601 q 899 788 899 707 q 798 958 899 894 q 583 1015 708 1015 q 366 936 456 1015 q 271 734 271 854 q 300 620 271 668 q 382 538 326 577 q 505 467 423 509 q 635 393 597 420 q 732 286 701 345 q 770 107 770 214 q 651 -126 770 -31 q 384 -218 536 -218 q 146 -151 243 -218 q 38 56 38 -75 q 113 213 38 147 q 293 278 188 278 q 459 239 395 278 q 530 114 530 195 q 483 16 530 55 q 372 -23 435 -23 q 275 -1 314 -23 q 228 72 228 24 q 252 119 228 100 q 284 136 270 134 q 300 138 298 138 q 305 134 305 138 q 302 126 304 130 q 300 118 302 125 q 296 88 296 104 q 317 52 296 67 q 363 37 338 37 q 433 62 406 37 q 461 126 461 88 q 405 215 461 183 q 288 243 356 243 q 136 191 200 243 q 69 56 69 137 q 170 -114 69 -50 q 385 -171 260 -171 q 603 -92 512 -171 q 697 110 697 -11 q 665 227 697 174 q 580 312 635 273 q 464 376 536 342 q 340 443 380 414 q 239 553 274 490 q 198 736 198 629 q 317 973 198 879 q 585 1062 430 1062 q 823 994 726 1062 q 930 788 930 918 z "},"":{"ha":960,"x_min":38,"x_max":930,"o":"m 930 788 q 856 631 930 696 q 675 566 781 566 q 509 605 573 566 q 438 730 438 649 q 486 828 438 789 q 597 867 534 867 q 694 845 654 867 q 741 772 741 819 q 717 724 741 743 q 684 707 699 709 q 669 705 670 705 q 663 709 663 705 q 666 718 665 715 q 670 729 667 719 q 673 755 673 739 q 651 792 673 777 q 605 807 630 807 q 535 781 563 807 q 507 718 507 755 q 564 629 507 661 q 681 601 612 601 q 832 652 768 601 q 899 788 899 707 q 798 958 899 894 q 583 1015 708 1015 q 366 936 456 1015 q 271 734 271 854 q 300 620 271 668 q 382 538 326 577 q 505 467 423 509 q 635 393 597 420 q 732 286 701 345 q 770 107 770 214 q 651 -126 770 -31 q 384 -218 536 -218 q 146 -151 243 -218 q 38 56 38 -75 q 113 213 38 147 q 293 278 188 278 q 459 239 395 278 q 530 114 530 195 q 483 16 530 55 q 372 -23 435 -23 q 275 -1 314 -23 q 228 72 228 24 q 252 119 228 100 q 284 136 270 134 q 300 138 298 138 q 305 134 305 138 q 302 126 304 130 q 300 118 302 125 q 296 88 296 104 q 317 52 296 67 q 363 37 338 37 q 433 62 406 37 q 461 126 461 88 q 405 215 461 183 q 288 243 356 243 q 136 191 200 243 q 69 56 69 137 q 170 -114 69 -50 q 385 -171 260 -171 q 603 -92 512 -171 q 697 110 697 -11 q 665 227 697 174 q 580 312 635 273 q 464 376 536 342 q 340 443 380 414 q 239 553 274 490 q 198 736 198 629 q 317 973 198 879 q 585 1062 430 1062 q 823 994 726 1062 q 930 788 930 918 z "},"":{"ha":960,"x_min":38,"x_max":930,"o":"m 930 788 q 856 631 930 696 q 675 566 781 566 q 509 605 573 566 q 438 730 438 649 q 486 828 438 789 q 597 867 534 867 q 694 845 654 867 q 741 772 741 819 q 717 724 741 743 q 684 707 699 709 q 669 705 670 705 q 663 709 663 705 q 666 718 665 715 q 670 729 667 719 q 673 755 673 739 q 651 792 673 777 q 605 807 630 807 q 535 781 563 807 q 507 718 507 755 q 564 629 507 661 q 681 601 612 601 q 832 652 768 601 q 899 788 899 707 q 798 958 899 894 q 583 1015 708 1015 q 366 936 456 1015 q 271 734 271 854 q 300 620 271 668 q 382 538 326 577 q 505 467 423 509 q 635 393 597 420 q 732 286 701 345 q 770 107 770 214 q 651 -126 770 -31 q 384 -218 536 -218 q 146 -151 243 -218 q 38 56 38 -75 q 113 213 38 147 q 293 278 188 278 q 459 239 395 278 q 530 114 530 195 q 483 16 530 55 q 372 -23 435 -23 q 275 -1 314 -23 q 228 72 228 24 q 252 119 228 100 q 284 136 270 134 q 300 138 298 138 q 305 134 305 138 q 302 126 304 130 q 300 118 302 125 q 296 88 296 104 q 317 52 296 67 q 363 37 338 37 q 433 62 406 37 q 461 126 461 88 q 405 215 461 183 q 288 243 356 243 q 136 191 200 243 q 69 56 69 137 q 170 -114 69 -50 q 385 -171 260 -171 q 603 -92 512 -171 q 697 110 697 -11 q 665 227 697 174 q 580 312 635 273 q 464 376 536 342 q 340 443 380 414 q 239 553 274 490 q 198 736 198 629 q 317 973 198 879 q 585 1062 430 1062 q 823 994 726 1062 q 930 788 930 918 z "},"":{"ha":662,"x_min":71,"x_max":610,"o":"m 606 327 q 610 317 610 321 q 601 311 610 311 q 587 312 593 311 q 547 315 557 315 q 523 313 536 315 q 507 311 510 311 q 493 317 493 311 q 496 324 493 321 q 505 343 501 333 q 508 360 508 353 l 504 416 q 425 332 481 368 q 298 293 365 293 q 139 347 203 293 q 71 493 71 404 q 145 646 71 584 q 316 705 216 705 q 409 686 364 705 q 476 642 453 668 q 445 720 476 668 q 359 819 408 780 q 231 869 296 869 q 161 852 190 869 q 127 800 127 833 q 137 769 127 782 q 165 756 147 756 q 186 764 177 756 q 195 783 195 772 q 193 799 195 792 q 189 810 191 805 q 190 816 187 814 q 198 817 191 817 q 229 802 215 815 q 243 770 243 788 q 220 725 243 744 q 168 706 197 706 q 109 729 132 706 q 85 791 85 751 q 141 870 85 842 q 259 895 189 895 q 393 853 327 895 q 499 740 458 811 q 545 616 528 688 q 566 484 556 568 q 583 373 576 400 q 594 343 585 357 q 606 327 604 330 m 587 219 q 589 205 589 211 q 582 172 589 185 q 536 125 568 140 q 456 111 504 111 q 368 119 429 111 q 245 137 308 128 q 160 146 182 146 q 114 134 132 146 q 95 112 100 125 q 88 104 92 104 q 82 112 84 104 q 79 131 79 121 q 83 158 79 145 q 98 184 87 171 q 136 210 112 201 q 194 219 159 219 q 283 210 223 219 q 406 190 343 200 q 494 180 468 180 q 549 196 526 180 q 574 222 562 205 q 581 227 576 227 q 587 219 586 227 m 502 515 q 451 622 502 583 q 317 662 400 662 q 200 620 250 662 q 150 515 150 577 q 200 402 150 448 q 322 356 251 356 q 452 401 403 356 q 502 515 502 446 z "},"":{"ha":717,"x_min":45,"x_max":667,"o":"m 667 577 q 572 365 667 453 q 357 279 481 279 q 135 368 225 279 q 45 583 45 456 q 137 794 45 707 q 357 882 229 882 q 577 792 487 882 q 667 577 667 703 m 625 219 q 626 205 626 211 q 619 172 626 185 q 573 125 606 140 q 493 111 541 111 q 406 119 466 111 q 282 137 345 128 q 197 146 220 146 q 151 134 170 146 q 132 112 138 125 q 125 104 130 104 q 119 112 121 104 q 117 131 117 121 q 120 158 117 145 q 135 184 124 171 q 173 210 149 201 q 231 219 197 219 q 320 210 260 219 q 443 190 380 200 q 531 180 505 180 q 586 196 563 180 q 611 222 600 205 q 618 227 614 227 q 625 219 623 227 m 614 551 q 521 736 614 648 q 311 827 425 827 q 160 768 222 827 q 98 629 98 709 q 193 422 98 513 q 397 334 285 334 q 547 389 486 334 q 614 551 614 450 z "},"":{"ha":960,"x_min":38,"x_max":930,"o":"m 930 788 q 856 631 930 696 q 675 566 781 566 q 509 605 573 566 q 438 730 438 649 q 486 828 438 789 q 597 867 534 867 q 694 845 654 867 q 741 772 741 819 q 717 724 741 743 q 684 707 699 709 q 669 705 670 705 q 663 709 663 705 q 666 718 665 715 q 670 729 667 719 q 673 755 673 739 q 651 792 673 777 q 605 807 630 807 q 535 781 563 807 q 507 718 507 755 q 564 629 507 661 q 681 601 612 601 q 832 652 768 601 q 899 788 899 707 q 798 958 899 894 q 583 1015 708 1015 q 366 936 456 1015 q 271 734 271 854 q 300 620 271 668 q 382 538 326 577 q 505 467 423 509 q 635 393 597 420 q 732 286 701 345 q 770 107 770 214 q 651 -126 770 -31 q 384 -218 536 -218 q 146 -151 243 -218 q 38 56 38 -75 q 113 213 38 147 q 293 278 188 278 q 459 239 395 278 q 530 114 530 195 q 483 16 530 55 q 372 -23 435 -23 q 275 -1 314 -23 q 228 72 228 24 q 252 119 228 100 q 284 136 270 134 q 300 138 298 138 q 305 134 305 138 q 302 126 304 130 q 300 118 302 125 q 296 88 296 104 q 317 52 296 67 q 363 37 338 37 q 433 62 406 37 q 461 126 461 88 q 405 215 461 183 q 288 243 356 243 q 136 191 200 243 q 69 56 69 137 q 170 -114 69 -50 q 385 -171 260 -171 q 603 -92 512 -171 q 697 110 697 -11 q 665 227 697 174 q 580 312 635 273 q 464 376 536 342 q 340 443 380 414 q 239 553 274 490 q 198 736 198 629 q 317 973 198 879 q 585 1062 430 1062 q 823 994 726 1062 q 930 788 930 918 z "},"":{"ha":1156,"x_min":79,"x_max":1145,"o":"m 1142 144 q 1057 36 1124 86 q 886 -23 979 -23 q 780 -10 826 -23 q 680 41 727 5 q 645 -11 661 17 q 625 -61 625 -45 q 635 -87 625 -80 q 658 -92 642 -92 q 667 -91 663 -92 q 675 -88 671 -90 q 682 -90 680 -86 q 682 -102 684 -94 q 665 -130 679 -117 q 628 -146 648 -146 q 590 -130 605 -146 q 575 -85 575 -113 q 590 -33 575 -64 q 648 64 594 -24 q 612 110 629 84 q 583 164 591 141 q 496 38 570 95 q 331 -22 420 -22 q 155 40 227 -22 q 79 209 79 105 q 161 384 79 313 q 351 452 241 452 q 454 431 405 452 q 529 380 503 410 q 494 469 529 410 q 399 583 454 538 q 256 640 330 640 q 178 621 211 640 q 141 562 141 600 q 152 526 141 540 q 183 511 163 511 q 207 520 197 511 q 217 541 217 529 q 216 559 217 553 q 212 572 214 565 q 213 578 210 576 q 222 581 216 581 q 255 562 241 577 q 270 528 270 546 q 244 474 270 496 q 186 453 219 453 q 121 479 146 453 q 95 551 95 506 q 157 642 95 609 q 288 670 211 670 q 442 615 368 670 q 570 463 516 559 q 684 612 608 555 q 864 670 764 670 q 977 644 919 670 q 1040 613 1008 628 q 1060 608 1046 610 q 1083 606 1073 606 q 1096 607 1093 607 q 1109 602 1109 607 q 1103 594 1109 600 q 1073 570 1085 580 q 1050 547 1061 559 q 897 355 984 473 q 734 117 810 236 q 815 73 774 88 q 917 54 864 54 q 1038 82 990 54 q 1115 155 1072 102 q 1124 168 1119 161 q 1137 174 1130 175 q 1145 161 1145 172 q 1142 144 1145 153 m 956 544 q 913 606 956 584 q 825 625 876 625 q 666 543 728 625 q 608 359 608 466 q 637 235 608 298 q 703 142 663 180 q 774 249 749 211 q 845 351 816 310 q 920 457 882 404 q 956 544 956 514 m 557 235 q 501 357 557 311 q 353 403 444 403 q 222 354 278 403 q 167 233 167 305 q 223 104 167 157 q 358 52 280 52 q 503 103 448 52 q 557 235 557 154 z "},"":{"ha":796,"x_min":1,"x_max":798,"o":"m 793 708 q 734 669 762 691 q 677 614 707 647 q 658 593 668 606 q 639 568 648 580 q 713 456 686 522 q 741 320 741 391 q 636 77 741 178 q 396 -22 534 -22 q 291 -5 341 -22 q 197 43 241 12 l 170 15 q 93 -49 130 -25 q 33 -75 56 -73 q 12 -71 22 -75 q 1 -63 1 -67 q 5 -58 1 -60 q 62 -20 35 -43 q 118 35 87 1 q 156 77 136 53 q 78 191 106 126 q 50 327 50 255 q 152 569 50 469 q 397 670 254 670 q 600 604 509 670 l 629 635 q 706 699 669 675 q 766 724 743 722 q 787 721 777 724 q 798 713 798 717 q 793 708 798 710 m 682 290 q 655 395 682 342 q 582 498 629 449 l 254 109 q 344 59 296 77 q 441 41 393 41 q 608 104 539 41 q 682 290 682 174 m 541 534 q 449 587 496 569 q 346 608 397 608 q 178 540 247 608 q 109 380 109 472 q 137 252 109 315 q 212 145 163 193 l 541 534 z "},"":{"ha":673,"x_min":103,"x_max":585,"o":"m 468 897 q 446 842 468 864 q 392 821 425 821 q 338 842 361 821 q 316 897 316 864 q 338 950 316 928 q 392 971 360 971 q 446 950 424 971 q 468 897 468 928 m 585 199 q 517 42 585 104 q 353 -20 449 -20 q 174 35 241 -20 q 103 201 103 94 q 138 330 103 270 q 222 427 165 376 q 320 511 271 469 q 364 556 351 537 q 388 624 388 589 q 384 655 388 640 q 369 682 380 669 q 355 695 361 692 q 342 700 349 699 q 334 705 334 700 q 340 713 334 709 l 368 731 q 384 744 376 736 q 393 753 393 752 q 401 755 397 755 q 411 751 407 755 q 438 718 425 740 q 453 674 450 696 q 454 665 454 669 q 454 656 454 661 q 444 595 454 624 q 416 537 434 566 q 370 483 403 515 q 324 441 352 465 q 250 362 271 394 q 202 187 202 289 q 241 69 202 115 q 366 16 285 16 q 484 59 438 16 q 526 155 526 99 q 509 231 526 203 q 457 258 492 258 q 407 232 427 258 q 401 221 404 228 q 397 210 399 214 q 387 201 393 201 q 378 208 382 201 q 370 234 372 218 q 368 270 368 251 q 400 328 371 304 q 468 351 429 351 q 553 309 521 351 q 585 199 585 267 z "},"":{"ha":297,"x_min":71,"x_max":235,"o":"m 227 895 q 205 841 227 863 q 151 819 183 819 q 97 841 119 819 q 75 895 75 863 q 97 948 75 927 q 151 970 119 970 q 204 948 182 970 q 227 895 227 927 m 228 65 q 203 51 215 58 q 156 20 187 41 l 85 -30 q 77 -33 81 -33 q 71 -27 71 -33 q 75 -18 71 -23 q 98 23 86 3 q 106 62 106 43 l 106 693 q 107 699 106 696 q 114 707 109 703 q 127 715 118 711 q 145 724 136 720 q 167 737 146 725 q 186 747 180 745 q 198 739 198 752 l 198 122 q 204 99 198 107 q 227 84 210 90 q 235 75 235 81 q 228 65 235 70 z "},"":{"ha":772,"x_min":14,"x_max":734,"o":"m 734 821 q 701 675 734 757 q 621 514 677 613 q 519 340 570 427 q 423 160 469 253 q 361 32 389 91 q 332 -33 334 -28 q 326 -39 329 -39 q 317 -33 321 -39 q 241 88 290 14 q 146 224 192 162 q 80 313 107 277 q 20 387 45 358 q 35 411 14 393 q 85 447 55 429 q 167 490 137 477 q 210 503 197 503 q 218 497 218 503 q 197 465 218 487 q 152 427 176 443 q 146 415 146 424 q 193 332 146 393 q 240 272 225 291 q 297 193 254 252 q 351 121 326 151 q 395 223 370 168 q 454 340 425 285 q 547 508 500 424 q 620 669 596 602 q 650 823 650 753 q 622 947 650 900 q 514 1005 587 1005 q 447 985 474 1005 q 419 930 419 966 q 431 895 419 909 q 463 881 442 881 q 471 882 468 882 q 496 895 487 884 q 505 913 503 903 q 511 923 507 923 q 518 918 514 923 q 529 884 529 905 q 509 838 529 857 q 460 819 488 819 q 399 847 422 819 q 376 920 376 876 q 425 1009 376 975 q 543 1043 475 1043 q 682 975 627 1043 q 734 821 734 911 z "},"":{"ha":488,"x_min":-49,"x_max":515,"o":"m 514 769 q 489 721 509 741 q 439 701 468 701 q 430 701 433 701 q 390 719 406 704 q 374 755 374 734 q 374 766 374 761 q 380 780 375 772 q 391 795 385 789 q 396 798 393 798 q 400 788 401 798 q 405 771 399 779 q 429 764 412 764 q 449 770 440 762 q 460 791 458 778 q 450 822 463 808 q 419 836 437 836 q 410 836 412 836 q 356 806 378 836 q 327 735 336 779 q 306 632 314 676 q 294 560 298 587 q 335 561 316 560 q 376 563 355 562 q 385 553 385 563 l 385 530 q 376 519 385 519 q 343 521 372 519 q 288 522 314 522 l 209 57 q 136 -136 187 -64 q 43 -217 97 -193 q -27 -233 7 -233 q -37 -231 -33 -233 q -41 -220 -41 -229 l -41 -184 q -43 -161 -41 -172 q -49 -142 -46 -151 q -42 -134 -49 -134 q -34 -136 -41 -134 q -20 -140 -28 -138 q -3 -142 -12 -142 q 63 -104 35 -142 q 123 68 102 -52 l 199 522 q 158 521 178 522 q 118 519 138 520 q 109 530 109 519 l 109 552 q 121 563 109 563 q 154 562 124 563 q 206 560 184 560 q 214 607 212 589 q 232 693 223 657 q 295 823 252 781 q 401 865 337 865 q 427 864 418 865 q 489 837 464 859 q 515 781 515 814 q 514 769 515 773 z "},"":{"ha":960,"x_min":38,"x_max":930,"o":"m 930 788 q 856 631 930 696 q 675 566 781 566 q 509 605 573 566 q 438 730 438 649 q 486 828 438 789 q 597 867 534 867 q 694 845 654 867 q 741 772 741 819 q 717 724 741 743 q 684 707 699 709 q 669 705 670 705 q 663 709 663 705 q 666 718 665 715 q 670 729 667 719 q 673 755 673 739 q 651 792 673 777 q 605 807 630 807 q 535 781 563 807 q 507 718 507 755 q 564 629 507 661 q 681 601 612 601 q 832 652 768 601 q 899 788 899 707 q 798 958 899 894 q 583 1015 708 1015 q 366 936 456 1015 q 271 734 271 854 q 300 620 271 668 q 382 538 326 577 q 505 467 423 509 q 635 393 597 420 q 732 286 701 345 q 770 107 770 214 q 651 -126 770 -31 q 384 -218 536 -218 q 146 -151 243 -218 q 38 56 38 -75 q 113 213 38 147 q 293 278 188 278 q 459 239 395 278 q 530 114 530 195 q 483 16 530 55 q 372 -23 435 -23 q 275 -1 314 -23 q 228 72 228 24 q 252 119 228 100 q 284 136 270 134 q 300 138 298 138 q 305 134 305 138 q 302 126 304 130 q 300 118 302 125 q 296 88 296 104 q 317 52 296 67 q 363 37 338 37 q 433 62 406 37 q 461 126 461 88 q 405 215 461 183 q 288 243 356 243 q 136 191 200 243 q 69 56 69 137 q 170 -114 69 -50 q 385 -171 260 -171 q 603 -92 512 -171 q 697 110 697 -11 q 665 227 697 174 q 580 312 635 273 q 464 376 536 342 q 340 443 380 414 q 239 553 274 490 q 198 736 198 629 q 317 973 198 879 q 585 1062 430 1062 q 823 994 726 1062 q 930 788 930 918 z "},"":{"ha":960,"x_min":38,"x_max":930,"o":"m 930 788 q 856 631 930 696 q 675 566 781 566 q 509 605 573 566 q 438 730 438 649 q 486 828 438 789 q 597 867 534 867 q 694 845 654 867 q 741 772 741 819 q 717 724 741 743 q 684 707 699 709 q 669 705 670 705 q 663 709 663 705 q 666 718 665 715 q 670 729 667 719 q 673 755 673 739 q 651 792 673 777 q 605 807 630 807 q 535 781 563 807 q 507 718 507 755 q 564 629 507 661 q 681 601 612 601 q 832 652 768 601 q 899 788 899 707 q 798 958 899 894 q 583 1015 708 1015 q 366 936 456 1015 q 271 734 271 854 q 300 620 271 668 q 382 538 326 577 q 505 467 423 509 q 635 393 597 420 q 732 286 701 345 q 770 107 770 214 q 651 -126 770 -31 q 384 -218 536 -218 q 146 -151 243 -218 q 38 56 38 -75 q 113 213 38 147 q 293 278 188 278 q 459 239 395 278 q 530 114 530 195 q 483 16 530 55 q 372 -23 435 -23 q 275 -1 314 -23 q 228 72 228 24 q 252 119 228 100 q 284 136 270 134 q 300 138 298 138 q 305 134 305 138 q 302 126 304 130 q 300 118 302 125 q 296 88 296 104 q 317 52 296 67 q 363 37 338 37 q 433 62 406 37 q 461 126 461 88 q 405 215 461 183 q 288 243 356 243 q 136 191 200 243 q 69 56 69 137 q 170 -114 69 -50 q 385 -171 260 -171 q 603 -92 512 -171 q 697 110 697 -11 q 665 227 697 174 q 580 312 635 273 q 464 376 536 342 q 340 443 380 414 q 239 553 274 490 q 198 736 198 629 q 317 973 198 879 q 585 1062 430 1062 q 823 994 726 1062 q 930 788 930 918 z "},"":{"ha":509,"x_min":49,"x_max":483,"o":"m 483 122 l 391 122 l 235 332 l 391 544 l 483 544 l 307 332 l 483 122 m 297 122 l 205 122 l 49 332 l 205 544 l 297 544 l 121 332 l 297 122 z "},"":{"ha":509,"x_min":26,"x_max":460,"o":"m 460 332 l 304 122 l 212 122 l 388 332 l 212 544 l 304 544 l 460 332 m 274 332 l 118 122 l 26 122 l 202 332 l 26 544 l 118 544 l 274 332 z "},"":{"ha":849,"x_min":77,"x_max":772,"o":"m 772 53 q 750 0 772 21 q 696 -22 728 -22 q 642 0 664 -22 q 620 53 620 21 q 642 107 620 85 q 696 129 663 129 q 749 107 727 129 q 772 53 772 85 m 502 53 q 480 0 502 21 q 426 -22 458 -22 q 372 0 394 -22 q 350 53 350 21 q 372 107 350 85 q 426 129 393 129 q 479 107 457 129 q 502 53 502 85 m 229 53 q 207 0 229 21 q 153 -22 185 -22 q 99 0 121 -22 q 77 53 77 21 q 99 107 77 85 q 153 129 121 129 q 207 107 184 129 q 229 53 229 85 z "},"":{"ha":347,"x_min":0,"x_max":0,"o":""},"":{"ha":1036,"x_min":26,"x_max":952,"o":"m 949 15 q 951 11 951 14 q 952 7 952 9 q 940 0 952 0 q 900 2 933 -1 q 853 4 866 4 q 788 1 831 4 q 765 0 772 -1 q 753 8 753 0 q 755 14 753 12 q 785 37 758 16 q 806 66 806 54 q 809 88 807 74 q 810 120 810 102 q 787 267 810 195 q 675 458 754 370 q 567 549 628 511 q 431 612 507 587 q 366 462 393 543 q 330 259 330 353 q 334 111 330 156 q 370 -28 342 33 q 423 -94 388 -66 q 472 -123 442 -109 q 480 -133 480 -127 q 473 -140 480 -138 q 436 -153 454 -146 q 394 -171 418 -159 q 354 -195 371 -182 q 332 -212 342 -203 q 323 -216 327 -216 q 317 -205 317 -216 q 315 -157 317 -184 q 305 -71 313 -130 q 283 68 293 -1 q 273 197 273 136 q 304 441 273 321 q 377 625 332 547 q 346 630 362 628 q 307 632 329 632 q 227 623 269 632 q 154 593 185 614 q 113 528 113 565 q 144 483 113 489 q 152 482 146 482 q 177 489 166 482 q 189 509 187 496 q 196 523 191 523 q 202 515 200 523 q 205 496 205 508 q 203 483 205 490 q 201 469 202 476 q 171 428 192 444 q 119 411 150 411 q 111 410 115 410 q 51 437 75 410 q 26 506 26 464 q 102 622 26 576 q 214 665 152 652 q 262 671 236 669 q 317 673 289 673 q 403 666 372 673 q 621 867 501 796 q 920 949 758 949 q 942 943 942 949 q 937 936 942 941 q 909 890 915 911 q 901 787 901 862 l 901 66 q 921 38 901 54 q 949 15 948 17 m 806 357 l 806 892 q 612 807 708 874 q 526 737 559 770 q 457 650 494 704 q 564 604 515 630 q 651 544 606 580 q 736 460 701 505 q 806 357 770 420 m 787 1024 q 778 1011 783 1016 q 768 1010 773 1006 q 721 1037 738 1027 q 631 1086 652 1076 q 549 1132 587 1111 q 513 1152 518 1149 q 508 1157 508 1154 q 515 1166 508 1160 q 525 1177 522 1173 q 535 1191 531 1185 l 554 1225 q 562 1229 557 1229 q 568 1226 565 1229 q 667 1138 585 1208 q 745 1070 675 1131 q 783 1035 769 1049 q 787 1024 789 1029 z "},"":{"ha":1036,"x_min":26,"x_max":952,"o":"m 949 15 q 951 11 951 14 q 952 7 952 9 q 940 0 952 0 q 900 2 933 -1 q 853 4 866 4 q 788 1 831 4 q 765 0 772 -1 q 753 8 753 0 q 755 14 753 12 q 785 37 758 16 q 806 66 806 54 q 809 88 807 74 q 810 120 810 102 q 787 267 810 195 q 675 458 754 370 q 567 549 628 511 q 431 612 507 587 q 366 462 393 543 q 330 259 330 353 q 334 111 330 156 q 370 -28 342 33 q 423 -94 388 -66 q 472 -123 442 -109 q 480 -133 480 -127 q 473 -140 480 -138 q 436 -153 454 -146 q 394 -171 418 -159 q 354 -195 371 -182 q 332 -212 342 -203 q 323 -216 327 -216 q 317 -205 317 -216 q 315 -157 317 -184 q 305 -71 313 -130 q 283 68 293 -1 q 273 197 273 136 q 304 441 273 321 q 377 625 332 547 q 346 630 362 628 q 307 632 329 632 q 227 623 269 632 q 154 593 185 614 q 113 528 113 565 q 144 483 113 489 q 152 482 146 482 q 177 489 166 482 q 189 509 187 496 q 196 523 191 523 q 202 515 200 523 q 205 496 205 508 q 203 483 205 490 q 201 469 202 476 q 171 428 192 444 q 119 411 150 411 q 111 410 115 410 q 51 437 75 410 q 26 506 26 464 q 102 622 26 576 q 214 665 152 652 q 262 671 236 669 q 317 673 289 673 q 403 666 372 673 q 621 867 501 796 q 920 949 758 949 q 942 943 942 949 q 937 936 942 941 q 909 890 915 911 q 901 787 901 862 l 901 66 q 921 38 901 54 q 949 15 948 17 m 806 357 l 806 892 q 612 807 708 874 q 526 737 559 770 q 457 650 494 704 q 564 604 515 630 q 651 544 606 580 q 736 460 701 505 q 806 357 770 420 m 905 1162 q 867 1082 896 1118 q 793 1038 833 1038 q 686 1090 745 1038 q 614 1143 627 1143 q 567 1114 585 1143 q 549 1039 549 1084 l 498 1085 q 538 1164 513 1131 q 611 1208 571 1208 q 690 1175 650 1208 q 790 1103 777 1103 q 837 1132 819 1103 q 855 1207 855 1162 l 905 1162 z "},"":{"ha":922,"x_min":61,"x_max":861,"o":"m 861 480 q 749 143 861 293 q 445 -20 626 -20 q 163 129 273 -20 q 61 458 61 267 q 117 729 61 613 q 263 888 172 841 q 280 894 275 894 q 286 889 286 894 q 274 872 286 882 q 214 804 237 840 q 165 682 182 753 q 146 472 146 598 q 245 184 146 310 q 486 53 347 53 q 694 144 614 53 q 781 427 781 245 q 680 774 781 622 q 469 921 582 921 q 397 898 424 921 q 370 838 370 876 q 383 799 370 817 q 417 781 396 781 q 427 781 422 781 q 440 787 433 782 q 450 797 447 792 q 455 807 453 802 q 458 817 457 812 q 461 821 458 821 q 468 817 465 821 q 475 784 475 804 q 475 777 475 781 q 473 770 473 772 q 449 727 469 745 q 400 709 429 709 q 329 742 357 709 q 301 821 301 774 q 360 932 301 889 q 484 970 413 970 q 760 821 653 970 q 861 480 861 680 m 635 1162 q 597 1082 626 1118 q 523 1038 564 1038 q 416 1090 475 1038 q 344 1143 357 1143 q 297 1114 315 1143 q 279 1039 279 1084 l 229 1085 q 268 1164 243 1131 q 341 1208 301 1208 q 420 1175 380 1208 q 520 1103 507 1103 q 567 1132 549 1103 q 585 1207 585 1162 l 635 1162 z "},"":{"ha":1641,"x_min":61,"x_max":1630,"o":"m 1630 789 q 1595 690 1630 732 q 1487 613 1559 648 q 1358 571 1432 587 q 1228 549 1320 563 q 1095 524 1136 534 q 960 456 1025 505 q 872 366 905 414 q 991 146 893 244 q 1237 38 1101 38 q 1402 75 1335 38 q 1469 174 1469 113 q 1465 210 1469 194 q 1457 231 1463 215 q 1464 242 1453 242 q 1469 241 1467 242 q 1503 221 1487 237 q 1523 170 1523 199 q 1424 28 1523 83 q 1211 -22 1334 -22 q 1002 28 1091 -22 q 877 138 932 66 q 810 247 846 178 q 665 58 755 128 q 445 -20 566 -20 q 163 129 273 -20 q 61 458 61 267 q 117 729 61 612 q 263 888 172 842 q 272 892 267 890 q 282 892 278 895 q 285 887 285 890 q 281 877 285 882 q 275 871 278 873 q 215 803 237 836 q 166 682 182 753 q 146 472 146 598 q 245 184 146 310 q 486 53 347 53 q 694 144 614 53 q 781 427 781 245 q 680 774 781 622 q 469 921 582 921 q 397 898 424 921 q 370 838 370 876 q 383 799 370 817 q 417 781 396 781 q 427 781 422 781 q 440 787 433 782 q 450 798 447 792 q 456 815 454 811 q 462 820 458 820 q 469 815 467 820 q 475 784 475 806 q 475 777 475 781 q 473 770 473 772 q 449 727 469 745 q 400 709 429 709 q 329 742 357 709 q 301 821 301 774 q 360 932 301 889 q 484 970 413 970 q 688 898 599 970 q 818 713 772 831 q 979 895 874 825 q 1221 970 1090 970 q 1366 937 1305 970 q 1434 840 1434 901 q 1414 786 1434 808 q 1360 758 1394 764 q 1346 758 1356 758 q 1305 768 1320 758 q 1299 775 1299 772 q 1305 783 1299 779 q 1323 799 1316 789 q 1337 834 1335 814 q 1338 839 1338 837 q 1338 844 1338 842 q 1291 903 1338 881 q 1202 921 1252 921 q 1058 889 1124 921 q 943 795 993 857 q 875 663 896 737 q 854 500 854 589 q 855 461 854 482 q 859 415 856 441 q 936 496 884 450 q 1067 582 1006 558 q 1178 613 1121 602 q 1286 629 1210 619 q 1409 647 1363 638 q 1523 682 1484 661 q 1584 765 1584 713 q 1564 812 1584 800 q 1555 815 1561 814 q 1548 816 1549 816 q 1535 815 1540 816 q 1522 812 1529 814 q 1517 817 1517 812 q 1519 823 1517 819 q 1537 847 1525 838 q 1569 860 1552 860 q 1614 839 1598 860 q 1630 789 1630 817 z "},"":{"ha":1295,"x_min":50,"x_max":1285,"o":"m 1282 144 q 1197 36 1264 86 q 1025 -23 1118 -23 q 920 -10 966 -23 q 819 41 867 5 q 785 -11 800 16 q 765 -61 765 -45 q 775 -87 765 -80 q 798 -92 782 -92 q 806 -91 801 -92 q 812 -88 810 -89 q 823 -93 823 -85 q 822 -100 823 -98 q 798 -136 817 -122 q 768 -146 784 -146 q 730 -130 745 -146 q 715 -85 715 -113 q 730 -33 715 -64 q 788 64 734 -24 q 744 117 764 87 q 709 178 723 147 q 581 33 667 87 q 396 -22 495 -22 q 150 80 250 -22 q 50 327 50 181 q 152 569 50 469 q 397 670 254 670 q 587 613 502 670 q 709 465 669 558 q 825 612 749 557 q 1004 670 905 670 q 1116 644 1059 670 q 1180 613 1148 628 q 1198 609 1186 610 q 1221 608 1209 608 l 1238 608 q 1248 604 1248 608 q 1238 591 1248 600 q 1217 573 1225 580 q 1190 547 1203 562 q 1037 355 1124 473 q 873 117 950 236 q 955 73 913 88 q 1057 54 1004 54 q 1177 82 1130 54 q 1255 155 1212 102 q 1264 168 1259 161 q 1276 174 1270 175 q 1285 161 1285 172 q 1282 144 1285 153 m 1096 544 q 1053 606 1096 584 q 964 625 1016 625 q 806 543 868 625 q 747 359 747 466 q 778 233 747 296 q 842 142 804 180 q 914 249 888 211 q 985 351 956 310 q 1059 457 1022 404 q 1096 544 1096 514 m 682 290 q 579 503 682 402 q 346 608 473 608 q 178 540 247 608 q 109 380 109 472 q 214 142 109 246 q 441 41 317 41 q 608 104 539 41 q 682 290 682 174 z "},"":{"ha":694,"x_min":0,"x_max":694,"o":"m 694 297 l 0 297 l 0 355 l 694 355 l 694 297 z "},"":{"ha":1389,"x_min":0,"x_max":1389,"o":"m 1389 297 l 0 297 l 0 355 l 1389 355 l 1389 297 z "},"":{"ha":548,"x_min":58,"x_max":502,"o":"m 496 963 q 502 956 502 959 q 494 949 502 951 q 463 945 477 947 q 435 936 448 943 q 392 906 407 923 q 373 857 373 885 q 381 819 373 834 q 406 804 390 804 q 430 811 422 804 q 438 824 435 815 q 448 832 442 832 q 457 827 453 832 q 470 804 465 818 q 475 774 475 789 q 450 728 475 745 q 391 711 425 711 q 316 744 341 711 q 297 802 297 769 q 346 920 297 870 q 461 970 395 970 q 496 963 485 970 m 258 963 q 263 955 263 960 q 254 949 263 949 q 228 946 242 948 q 197 936 213 943 q 153 906 168 923 q 134 857 134 885 q 143 819 134 834 q 167 804 151 804 q 193 812 184 804 q 202 826 197 815 q 211 832 205 832 q 221 826 215 832 q 232 806 227 821 q 236 774 236 791 q 211 728 236 745 q 152 711 186 711 q 77 744 102 711 q 58 802 58 769 q 107 920 58 870 q 222 970 157 970 q 258 963 246 970 z "},"":{"ha":548,"x_min":36,"x_max":480,"o":"m 480 879 q 431 761 480 810 q 316 711 382 711 q 299 712 305 711 q 283 716 293 713 q 277 724 277 720 q 288 731 277 731 q 312 734 299 731 q 342 745 325 736 q 385 776 370 758 q 404 831 404 799 q 395 862 404 848 q 372 876 387 876 q 348 869 357 876 q 339 857 342 865 q 330 849 335 849 q 320 854 326 849 q 302 906 302 874 q 327 953 302 936 q 387 970 352 970 q 461 937 436 970 q 480 879 480 911 m 240 879 q 191 761 240 810 q 76 711 142 711 q 41 718 52 711 q 36 724 36 720 q 43 731 36 729 q 75 735 60 733 q 102 745 89 738 q 145 776 130 758 q 164 831 164 799 q 155 862 164 848 q 132 876 146 876 q 106 869 115 876 q 97 857 102 865 q 90 849 93 849 q 80 854 85 849 q 62 906 62 870 q 87 953 62 936 q 146 970 112 970 q 221 937 196 970 q 240 879 240 911 z "},"":{"ha":308,"x_min":58,"x_max":263,"o":"m 254 949 q 228 947 242 949 q 197 936 214 944 q 153 906 168 923 q 134 857 134 885 q 143 819 134 834 q 167 804 151 804 q 193 812 184 804 q 201 824 197 815 q 210 833 206 833 q 220 825 213 833 q 232 804 228 818 q 236 774 236 790 q 211 728 236 745 q 152 711 186 711 q 77 744 102 711 q 58 802 58 769 q 107 920 58 870 q 222 970 157 970 q 238 969 232 970 q 254 964 244 968 q 263 956 263 960 q 254 949 263 949 z "},"":{"ha":308,"x_min":34,"x_max":240,"o":"m 240 879 q 191 761 240 810 q 76 711 142 711 q 42 718 54 711 q 34 726 34 721 q 46 731 34 731 q 68 734 57 732 q 102 745 86 737 q 145 776 130 758 q 164 831 164 799 q 155 862 164 848 q 132 876 146 876 q 108 869 117 876 q 99 857 102 865 q 90 849 95 849 q 80 854 85 849 q 62 906 62 870 q 87 953 62 936 q 146 970 112 970 q 221 937 196 970 q 240 879 240 911 z "},"":{"ha":543,"x_min":61,"x_max":484,"o":"m 484 404 l 61 404 l 61 458 l 484 458 l 484 404 m 273 643 q 309 628 294 643 q 324 591 324 613 q 309 555 324 570 q 273 540 294 540 q 236 555 251 540 q 221 591 221 570 q 236 628 221 613 q 273 643 251 643 m 273 323 q 309 308 294 323 q 324 271 324 293 q 309 235 324 250 q 273 220 294 220 q 236 235 251 220 q 221 271 221 250 q 236 308 221 293 q 273 323 251 323 z "},"":{"ha":712,"x_min":51,"x_max":661,"o":"m 661 507 l 356 0 l 51 507 l 356 1015 l 661 507 m 612 507 l 356 933 l 100 507 l 356 81 l 612 507 z "},"":{"ha":766,"x_min":91,"x_max":669,"o":"m 663 629 q 638 608 647 615 q 621 582 621 593 l 621 37 q 537 -208 621 -114 q 338 -298 457 -298 q 252 -285 284 -298 q 210 -228 210 -267 q 241 -181 210 -199 q 297 -165 273 -163 q 307 -173 307 -165 q 304 -180 307 -176 q 299 -189 301 -184 q 295 -204 295 -197 q 297 -216 295 -210 q 319 -244 302 -234 q 359 -255 337 -255 q 490 -181 442 -255 q 534 -8 534 -113 l 534 113 q 466 28 512 66 q 340 -20 407 -20 q 149 62 216 -20 q 91 241 91 133 q 106 359 91 304 q 145 453 119 404 q 193 536 147 457 q 183 552 196 543 q 152 567 175 557 q 127 579 140 573 q 122 586 122 581 q 134 593 122 591 q 158 599 146 596 q 204 613 179 604 q 250 634 229 623 q 292 656 271 645 q 299 659 296 659 q 307 651 307 659 q 304 644 307 649 q 293 627 302 639 q 279 609 288 620 q 200 467 227 536 q 168 297 168 384 q 218 119 168 189 q 351 49 268 49 q 460 82 410 49 q 534 167 511 116 l 534 582 q 519 608 534 595 q 492 631 506 619 q 488 641 488 635 q 499 648 488 648 q 529 646 503 648 q 578 644 555 644 q 620 645 604 644 q 655 648 635 646 q 669 640 669 648 q 663 629 669 635 m 601 807 q 584 768 601 784 q 543 753 567 753 q 503 769 519 753 q 487 810 487 786 q 504 849 487 833 q 545 865 521 865 q 585 848 568 865 q 601 807 601 831 m 395 807 q 378 768 395 784 q 336 753 361 753 q 297 769 313 753 q 281 810 281 786 q 298 849 281 833 q 339 865 315 865 q 378 848 362 865 q 395 807 395 831 z "},"":{"ha":854,"x_min":58,"x_max":808,"o":"m 804 937 q 793 918 800 930 q 770 834 779 885 q 752 709 767 814 q 724 524 738 604 q 684 326 707 418 q 604 70 647 177 q 484 -142 549 -68 q 313 -229 407 -229 q 220 -203 258 -229 q 180 -127 180 -174 q 188 -91 180 -109 q 205 -65 195 -73 q 213 -63 210 -63 q 221 -71 219 -63 q 223 -86 222 -79 q 227 -102 224 -93 q 254 -128 233 -118 q 316 -141 279 -141 q 446 -63 379 -141 q 553 113 502 3 q 620 294 595 204 q 517 177 584 225 q 377 126 446 126 q 180 232 251 126 q 115 488 115 330 q 148 651 115 564 q 217 791 173 718 q 279 883 240 829 q 203 898 246 883 q 136 913 159 913 q 107 904 121 913 q 92 880 92 895 q 113 848 92 848 q 129 856 123 848 q 136 869 132 860 q 144 869 140 876 q 148 850 148 861 q 135 817 148 831 q 102 803 121 803 q 71 818 83 803 q 58 859 58 833 q 58 868 58 865 q 88 924 62 900 q 159 951 117 951 q 235 939 180 951 q 282 933 264 933 q 317 943 301 933 q 336 959 328 949 q 342 963 340 962 q 349 962 345 964 q 357 955 353 959 q 363 948 361 951 q 362 937 365 941 q 309 871 330 901 q 239 734 265 809 q 203 521 203 633 q 254 300 203 381 q 414 212 310 212 q 591 310 522 212 q 677 543 650 393 q 692 713 692 625 q 677 861 692 807 q 656 911 669 888 q 635 939 646 928 q 631 945 631 942 q 644 949 631 949 q 682 944 664 946 q 718 941 701 941 q 766 945 739 941 q 798 949 793 949 q 808 945 808 951 q 804 937 808 942 m 696 1085 q 679 1046 696 1062 q 637 1031 662 1031 q 598 1047 614 1031 q 582 1088 582 1064 q 599 1127 582 1111 q 640 1143 616 1143 q 680 1126 663 1143 q 696 1085 696 1109 m 490 1085 q 473 1046 490 1062 q 431 1031 456 1031 q 392 1047 408 1031 q 376 1088 376 1064 q 393 1127 376 1111 q 434 1143 410 1143 q 473 1126 457 1143 q 490 1085 490 1109 z "},"":{"ha":406,"x_min":-254,"x_max":617,"o":"m 612 846 q 550 817 577 834 q 487 761 518 795 q 394 640 450 719 q 296 496 367 602 q 202 361 235 404 q 96 218 136 271 q 9 109 44 150 q -60 35 -32 59 q -158 -31 -109 -8 q -222 -50 -195 -47 q -243 -45 -233 -50 q -254 -35 -254 -41 q -248 -30 -254 -32 q -181 7 -215 -16 q -123 56 -146 31 q -24 174 -74 109 q 57 284 14 224 q 134 392 113 363 q 225 522 156 421 q 330 669 295 623 q 423 781 388 747 q 517 845 465 821 q 586 867 558 864 q 607 862 596 867 q 617 851 617 857 q 612 846 617 848 z "},"":{"ha":741,"x_min":32,"x_max":721,"o":"m 220 349 q 302 124 230 209 q 486 39 374 39 q 621 81 567 39 q 675 182 675 124 q 670 229 675 205 q 668 241 668 238 q 677 249 668 249 q 707 220 694 249 q 721 170 721 192 q 648 30 721 82 q 460 -22 575 -22 q 231 79 319 -22 q 131 349 143 180 l 32 349 l 41 385 l 131 385 q 134 437 131 403 l 32 437 l 41 472 l 139 472 q 278 748 167 631 q 542 865 389 865 q 653 834 606 865 q 700 751 700 804 q 678 701 700 721 q 623 681 656 681 q 576 690 599 681 q 554 713 554 699 q 567 720 554 717 q 608 770 608 730 q 583 812 608 797 q 522 828 557 828 q 324 729 406 828 q 224 472 243 630 l 476 472 l 467 437 l 221 437 q 220 385 220 420 l 476 385 l 467 349 l 220 349 z "},"":{"ha":323,"x_min":49,"x_max":297,"o":"m 297 122 l 205 122 l 49 332 l 205 544 l 297 544 l 121 332 l 297 122 z "},"":{"ha":323,"x_min":26,"x_max":274,"o":"m 274 332 l 118 122 l 26 122 l 202 332 l 26 544 l 118 544 l 274 332 z "},"":{"ha":738,"x_min":10,"x_max":633,"o":"m 625 22 q 633 8 633 13 q 616 0 633 0 q 595 1 604 0 q 541 4 554 4 q 503 3 517 4 q 468 0 488 1 q 450 8 450 0 q 457 20 450 13 q 482 41 474 34 q 498 66 498 55 l 498 522 q 481 568 498 556 q 459 577 474 574 q 444 585 444 580 q 449 594 444 589 q 479 610 465 602 q 509 628 485 613 q 578 675 567 669 q 589 680 585 680 q 595 672 595 680 q 594 666 595 669 q 587 599 589 632 q 585 537 585 566 l 585 66 q 600 42 585 55 q 625 22 612 32 m 601 830 q 576 767 601 788 q 519 749 555 749 q 472 766 490 749 q 453 808 453 783 q 456 825 453 817 q 463 839 459 834 q 471 844 467 844 q 478 837 475 844 q 486 825 481 829 q 507 818 494 818 q 527 827 520 818 q 533 850 533 837 q 494 910 533 889 q 388 932 455 932 q 265 886 306 932 q 231 784 231 848 l 231 646 q 275 646 253 646 q 320 648 296 647 q 330 639 330 648 l 330 616 q 320 605 330 605 q 287 606 317 605 q 231 608 257 608 l 231 31 q 193 -165 231 -84 q 115 -264 164 -228 q 49 -296 81 -291 q 34 -293 37 -298 q 31 -282 32 -287 q 29 -269 30 -277 q 26 -251 28 -261 q 20 -231 23 -240 q 13 -216 16 -222 q 10 -208 10 -210 q 19 -201 10 -201 q 29 -202 23 -201 q 43 -203 35 -203 q 108 -165 83 -203 q 144 26 144 -110 l 144 608 q 102 607 122 608 q 62 605 83 606 q 53 616 53 605 l 53 637 q 65 648 53 648 q 95 647 68 648 q 144 646 121 646 l 144 727 q 197 890 144 825 q 392 970 262 970 q 551 924 494 970 q 601 830 601 885 z "},"":{"ha":738,"x_min":12,"x_max":631,"o":"m 624 22 q 631 7 631 14 q 620 0 631 0 q 590 2 616 0 q 541 4 564 4 q 500 3 515 4 q 465 0 485 1 q 450 8 450 0 q 456 19 450 14 q 481 41 472 33 q 498 66 498 56 l 498 792 q 479 884 498 854 q 372 932 450 932 q 260 886 295 932 q 231 784 231 848 l 231 646 q 275 646 253 646 q 320 648 296 647 q 330 639 330 648 l 330 616 q 320 605 330 605 q 287 606 317 605 q 231 608 257 608 l 231 31 q 194 -164 231 -85 q 116 -264 165 -227 q 49 -296 80 -291 q 33 -288 35 -298 q 30 -269 31 -277 q 25 -249 28 -261 q 19 -229 22 -237 q 14 -213 16 -220 q 13 -205 12 -208 q 22 -202 15 -201 q 31 -204 28 -204 q 42 -205 35 -205 q 107 -167 83 -205 q 144 26 144 -110 l 144 608 q 102 607 122 608 q 62 605 83 606 q 53 616 53 605 l 53 637 q 65 648 53 648 q 95 647 68 648 q 144 646 121 646 l 144 727 q 189 890 144 829 q 376 970 247 970 q 475 952 431 970 q 524 924 506 940 q 559 964 551 954 q 590 985 582 989 q 593 979 593 983 q 587 927 589 960 q 585 853 585 894 l 585 66 q 599 43 585 56 q 624 22 611 32 z "},"":{"ha":576,"x_min":28,"x_max":548,"o":"m 548 340 q 539 325 548 325 q 532 330 534 325 q 513 355 517 351 q 488 372 500 370 l 302 396 q 309 372 307 381 q 321 333 315 349 q 338 293 327 317 q 350 270 342 285 q 321 77 332 170 q 311 -46 315 25 q 308 -90 309 -68 l 267 -90 q 266 -46 267 -68 q 255 77 262 14 q 225 270 245 156 l 252 332 q 265 372 258 345 q 271 396 267 380 l 88 372 q 64 355 77 370 q 46 331 55 343 q 35 324 41 324 q 28 339 28 324 q 29 359 28 351 q 33 414 33 401 q 31 453 33 438 q 28 488 30 468 q 37 503 28 503 q 46 498 41 503 q 65 473 58 481 q 88 456 78 457 l 271 431 q 266 455 268 446 q 253 497 260 478 q 236 536 245 515 q 225 559 233 545 q 231 570 229 566 q 252 618 245 597 q 262 650 256 629 q 271 681 269 671 l 88 655 q 60 633 76 653 q 47 614 60 632 q 37 607 43 607 q 28 629 28 607 q 31 660 29 633 q 33 697 33 686 q 31 736 33 722 q 28 772 30 751 q 37 787 28 787 q 45 783 41 787 q 64 758 47 781 q 88 739 78 741 l 271 715 l 245 910 q 229 933 244 921 q 205 952 217 943 q 199 963 199 958 q 210 970 199 970 q 231 969 222 970 q 288 966 274 966 q 326 967 311 966 q 361 970 340 968 q 377 962 377 970 q 370 951 377 957 q 347 932 355 939 q 330 910 331 920 l 305 715 l 488 739 q 512 757 499 741 q 532 783 522 770 q 540 787 536 787 q 548 774 548 787 q 547 753 548 762 q 544 697 544 710 q 546 655 544 675 q 548 627 547 634 q 541 608 548 608 q 530 614 536 608 q 512 639 521 627 q 488 655 500 653 l 305 681 q 313 648 310 658 q 323 618 315 638 q 340 579 328 603 q 350 559 343 572 q 340 536 343 545 q 321 495 325 503 q 309 454 316 482 q 302 430 307 446 l 488 456 q 511 473 499 457 q 530 498 521 485 q 541 503 536 503 q 548 490 548 503 q 547 469 548 477 q 544 414 544 426 q 546 370 544 395 q 548 340 548 346 z "},"":{"ha":308,"x_min":77,"x_max":229,"o":"m 229 433 q 207 379 229 401 q 153 358 185 358 q 99 379 121 358 q 77 433 77 401 q 99 487 77 465 q 153 509 121 509 q 207 487 184 509 q 229 433 229 465 z "},"":{"ha":308,"x_min":37,"x_max":240,"o":"m 240 28 q 191 -90 240 -40 q 76 -140 142 -140 q 59 -139 65 -140 q 43 -134 53 -138 q 37 -127 37 -131 q 46 -121 37 -121 q 68 -120 64 -121 q 103 -107 83 -117 q 146 -75 131 -94 q 164 -19 164 -52 q 155 12 164 -2 q 132 26 146 26 q 108 19 117 26 q 98 6 102 14 q 89 -2 94 -2 q 77 5 83 -2 q 62 56 62 22 q 87 102 62 85 q 146 119 112 119 q 221 86 196 119 q 240 28 240 61 z "},"":{"ha":545,"x_min":36,"x_max":477,"o":"m 477 28 q 428 -90 477 -40 q 313 -140 379 -140 q 296 -139 302 -140 q 282 -135 290 -138 q 273 -126 273 -132 q 286 -119 273 -119 q 312 -118 300 -119 q 339 -109 324 -116 q 382 -76 367 -96 q 401 -19 401 -52 q 393 12 401 -2 q 369 26 384 26 q 345 19 354 26 q 335 6 340 15 q 326 -2 330 -2 q 315 7 321 -2 q 300 56 300 26 q 325 102 300 85 q 384 119 349 119 q 458 86 433 119 q 477 28 477 61 m 240 28 q 191 -90 240 -40 q 76 -140 142 -140 q 42 -133 56 -140 q 36 -125 36 -129 q 46 -119 36 -120 q 74 -118 63 -119 q 102 -109 85 -117 q 145 -76 130 -96 q 164 -19 164 -52 q 155 12 164 -2 q 132 26 146 26 q 108 20 116 26 q 96 6 100 14 q 89 -2 92 -2 q 77 6 84 -2 q 66 28 71 14 q 62 56 62 42 q 87 102 62 85 q 146 119 112 119 q 221 86 196 119 q 240 28 240 61 z "},"":{"ha":1577,"x_min":62,"x_max":1512,"o":"m 1512 251 q 1453 64 1512 146 q 1306 -22 1391 -22 q 1175 44 1223 -22 q 1126 222 1126 110 q 1152 349 1126 286 q 1202 431 1173 401 q 1213 435 1209 439 q 1213 423 1216 433 q 1198 366 1206 406 q 1188 263 1188 312 q 1225 92 1188 157 q 1321 27 1261 27 q 1409 73 1377 27 q 1447 227 1447 125 q 1407 403 1447 331 q 1316 475 1367 475 q 1306 475 1310 475 q 1279 469 1290 475 q 1265 452 1267 463 q 1271 435 1263 441 q 1287 429 1278 429 q 1303 439 1296 429 q 1306 444 1303 445 q 1312 438 1310 444 q 1313 429 1313 435 q 1312 418 1313 426 q 1300 395 1312 405 q 1275 385 1289 385 q 1242 401 1255 385 q 1229 442 1229 418 q 1257 491 1229 471 q 1324 510 1285 510 q 1458 435 1403 510 q 1512 251 1512 360 m 1048 251 q 989 64 1048 146 q 842 -22 927 -22 q 711 44 760 -22 q 662 222 662 110 q 688 349 662 286 q 738 431 709 401 q 749 435 745 439 q 749 423 752 433 q 734 366 742 406 q 724 263 724 312 q 761 92 724 157 q 857 27 798 27 q 945 73 913 27 q 983 227 983 125 q 943 403 983 331 q 852 475 903 475 q 842 475 846 475 q 815 469 826 475 q 802 452 804 463 q 807 435 800 441 q 823 429 814 429 q 840 439 832 429 q 842 444 840 444 q 848 438 846 444 q 849 429 849 433 q 848 418 849 425 q 837 395 848 405 q 811 385 825 385 q 778 401 791 385 q 765 442 765 418 q 793 491 765 471 q 860 510 821 510 q 994 435 939 510 q 1048 251 1048 360 m 958 850 q 935 847 947 849 q 909 837 923 845 q 858 794 886 825 q 808 735 835 770 q 723 617 777 694 q 632 488 706 593 q 541 361 581 414 q 432 214 477 275 q 345 102 378 144 q 283 35 304 54 q 223 -9 256 12 q 176 -35 197 -26 q 149 -45 161 -42 q 123 -50 136 -49 q 106 -46 114 -50 q 98 -37 98 -41 q 104 -30 98 -33 q 173 7 137 -16 q 229 56 208 31 q 328 174 276 108 q 409 284 368 227 q 487 392 465 363 q 567 502 502 412 q 651 617 602 549 q 728 720 694 675 q 786 786 755 753 q 810 810 795 796 q 705 770 761 783 q 579 758 650 758 q 391 792 465 758 q 449 605 449 724 q 389 418 449 500 q 243 332 328 332 q 111 398 160 332 q 62 576 62 464 q 88 703 62 640 q 138 785 109 755 q 149 789 146 793 q 149 777 153 787 q 135 720 142 760 q 125 617 125 666 q 161 446 125 511 q 258 381 198 381 q 346 427 313 381 q 384 581 384 479 q 346 754 384 685 q 252 829 307 823 q 241 829 248 829 q 214 824 225 829 q 202 806 203 818 q 208 789 200 795 q 224 783 215 783 q 239 793 233 783 q 243 797 241 798 q 247 792 244 796 q 249 781 249 787 q 248 772 249 774 q 237 749 248 759 q 212 739 226 739 q 178 755 191 739 q 165 796 165 772 q 194 845 165 825 q 260 864 222 864 q 293 860 279 864 q 328 848 308 857 q 439 808 381 824 q 582 788 515 788 q 716 803 654 788 q 830 845 779 819 q 860 858 844 852 q 893 867 877 864 q 929 869 909 869 q 955 866 949 869 q 960 856 960 863 q 958 850 960 852 z "},"":{"ha":1036,"x_min":26,"x_max":987,"o":"m 949 15 q 951 11 951 14 q 952 7 952 9 q 940 0 952 0 q 900 2 933 -1 q 853 4 866 4 q 788 1 831 4 q 765 0 772 -1 q 753 8 753 0 q 755 14 753 12 q 785 37 758 16 q 806 66 806 54 q 809 88 807 74 q 810 120 810 102 q 787 267 810 195 q 675 458 754 370 q 567 549 628 511 q 431 612 507 587 q 366 462 393 543 q 330 259 330 353 q 334 111 330 156 q 370 -28 342 33 q 423 -94 388 -66 q 472 -123 442 -109 q 480 -133 480 -127 q 473 -140 480 -138 q 436 -153 454 -146 q 394 -171 418 -159 q 354 -195 371 -182 q 332 -212 342 -203 q 323 -216 327 -216 q 317 -205 317 -216 q 315 -157 317 -184 q 305 -71 313 -130 q 283 68 293 -1 q 273 197 273 136 q 304 441 273 321 q 377 625 332 547 q 346 630 362 628 q 307 632 329 632 q 227 623 269 632 q 154 593 185 614 q 113 528 113 565 q 144 483 113 489 q 152 482 146 482 q 177 489 166 482 q 189 509 187 496 q 196 523 191 523 q 202 515 200 523 q 205 496 205 508 q 203 483 205 490 q 201 469 202 476 q 171 428 192 444 q 119 411 150 411 q 111 410 115 410 q 51 437 75 410 q 26 506 26 464 q 102 622 26 576 q 214 665 152 652 q 262 671 236 669 q 317 673 289 673 q 403 666 372 673 q 621 867 501 796 q 920 949 758 949 q 942 943 942 949 q 937 936 942 941 q 909 890 915 911 q 901 787 901 862 l 901 66 q 921 38 901 54 q 949 15 948 17 m 806 357 l 806 892 q 612 807 708 874 q 526 737 559 770 q 457 650 494 704 q 564 604 515 630 q 651 544 606 580 q 736 460 701 505 q 806 357 770 420 m 985 1034 q 985 1030 987 1032 q 979 1028 983 1028 q 967 1029 975 1029 q 955 1029 959 1029 q 943 1029 949 1029 q 931 1029 937 1029 q 924 1029 926 1029 q 907 1034 911 1029 q 846 1085 884 1055 q 773 1142 809 1116 q 701 1086 745 1121 q 639 1034 666 1058 q 625 1029 635 1029 q 612 1029 621 1029 q 591 1029 598 1029 l 566 1028 q 561 1029 562 1028 q 560 1034 557 1031 q 643 1107 602 1068 q 677 1139 667 1131 q 749 1215 720 1180 l 798 1215 q 838 1170 831 1177 q 868 1140 844 1163 q 915 1095 892 1117 q 985 1034 946 1065 z "},"":{"ha":937,"x_min":61,"x_max":926,"o":"m 926 789 q 891 690 926 732 q 783 613 855 648 q 654 571 728 587 q 524 549 616 563 q 391 524 432 534 q 256 456 321 505 q 168 366 201 414 q 288 146 189 244 q 533 38 397 38 q 698 75 631 38 q 765 174 765 113 q 761 208 765 193 q 753 233 756 222 q 753 240 751 237 q 761 243 755 243 q 796 224 779 240 q 819 170 819 201 q 720 28 819 83 q 507 -22 630 -22 q 186 115 310 -22 q 61 479 61 254 q 191 822 61 677 q 517 970 325 970 q 662 937 602 970 q 730 840 730 901 q 710 786 730 808 q 656 758 690 764 q 650 758 654 758 q 642 758 644 758 q 618 760 629 758 q 601 768 608 762 q 595 774 595 770 q 601 783 595 779 q 619 798 614 792 q 633 834 631 812 q 634 839 634 837 q 634 844 634 842 q 587 903 634 881 q 498 921 548 921 q 354 889 420 921 q 239 795 289 857 q 171 663 192 737 q 150 500 150 589 q 151 461 150 482 q 155 415 152 441 q 232 496 180 450 q 363 582 302 558 q 474 613 417 602 q 583 629 506 619 q 705 647 659 638 q 819 682 780 661 q 880 765 880 713 q 860 812 880 800 q 841 817 854 817 q 829 814 833 817 q 817 808 821 808 q 814 814 814 808 q 816 826 814 815 q 833 848 819 837 q 865 860 847 860 q 910 839 894 860 q 926 789 926 817 m 700 1034 q 700 1030 702 1032 q 694 1028 698 1028 q 682 1029 690 1029 q 670 1029 674 1029 q 659 1029 665 1029 q 646 1029 652 1029 q 639 1029 642 1029 q 623 1034 627 1029 q 562 1085 599 1055 q 488 1142 524 1116 q 416 1086 460 1121 q 354 1034 381 1058 q 340 1029 350 1029 q 328 1029 336 1029 q 307 1029 313 1029 l 281 1028 q 276 1029 277 1028 q 275 1034 273 1031 q 358 1107 317 1068 q 392 1139 382 1131 q 464 1215 435 1180 l 513 1215 q 553 1170 547 1177 q 583 1140 559 1163 q 630 1095 607 1117 q 700 1034 661 1065 z "},"":{"ha":1036,"x_min":26,"x_max":952,"o":"m 949 15 q 951 11 951 14 q 952 7 952 9 q 940 0 952 0 q 900 2 933 -1 q 853 4 866 4 q 788 1 831 4 q 765 0 772 -1 q 753 8 753 0 q 755 14 753 12 q 785 37 758 16 q 806 66 806 54 q 809 88 807 74 q 810 120 810 102 q 787 267 810 195 q 675 458 754 370 q 567 549 628 511 q 431 612 507 587 q 366 462 393 543 q 330 259 330 353 q 334 111 330 156 q 370 -28 342 33 q 423 -94 388 -66 q 472 -123 442 -109 q 480 -133 480 -127 q 473 -140 480 -138 q 436 -153 454 -146 q 394 -171 418 -159 q 354 -195 371 -182 q 332 -212 342 -203 q 323 -216 327 -216 q 317 -205 317 -216 q 315 -157 317 -184 q 305 -71 313 -130 q 283 68 293 -1 q 273 197 273 136 q 304 441 273 321 q 377 625 332 547 q 346 630 362 628 q 307 632 329 632 q 227 623 269 632 q 154 593 185 614 q 113 528 113 565 q 144 483 113 489 q 152 482 146 482 q 177 489 166 482 q 189 509 187 496 q 196 523 191 523 q 202 515 200 523 q 205 496 205 508 q 203 483 205 490 q 201 469 202 476 q 171 428 192 444 q 119 411 150 411 q 111 410 115 410 q 51 437 75 410 q 26 506 26 464 q 102 622 26 576 q 214 665 152 652 q 262 671 236 669 q 317 673 289 673 q 403 666 372 673 q 621 867 501 796 q 920 949 758 949 q 942 943 942 949 q 937 936 942 941 q 909 890 915 911 q 901 787 901 862 l 901 66 q 921 38 901 54 q 949 15 948 17 m 806 357 l 806 892 q 612 807 708 874 q 526 737 559 770 q 457 650 494 704 q 564 604 515 630 q 651 544 606 580 q 736 460 701 505 q 806 357 770 420 m 858 1152 q 823 1133 850 1148 q 740 1087 768 1102 q 686 1058 711 1072 q 603 1010 676 1053 q 593 1011 598 1006 q 584 1024 588 1016 q 588 1035 582 1029 q 641 1082 601 1048 q 705 1138 681 1116 q 759 1185 724 1154 q 804 1226 794 1217 q 810 1229 806 1229 q 817 1225 814 1229 l 836 1191 q 848 1175 842 1181 q 857 1166 852 1171 q 863 1157 863 1160 q 858 1152 863 1154 z "},"":{"ha":937,"x_min":61,"x_max":926,"o":"m 926 789 q 891 690 926 732 q 783 613 855 648 q 654 571 728 587 q 524 549 616 563 q 391 524 432 534 q 256 456 321 505 q 168 366 201 414 q 288 146 189 244 q 533 38 397 38 q 698 75 631 38 q 765 174 765 113 q 761 208 765 193 q 753 233 756 222 q 753 240 751 237 q 761 243 755 243 q 796 224 779 240 q 819 170 819 201 q 720 28 819 83 q 507 -22 630 -22 q 186 115 310 -22 q 61 479 61 254 q 191 822 61 677 q 517 970 325 970 q 662 937 602 970 q 730 840 730 901 q 710 786 730 808 q 656 758 690 764 q 650 758 654 758 q 642 758 644 758 q 618 760 629 758 q 601 768 608 762 q 595 774 595 770 q 601 783 595 779 q 619 798 614 792 q 633 834 631 812 q 634 839 634 837 q 634 844 634 842 q 587 903 634 881 q 498 921 548 921 q 354 889 420 921 q 239 795 289 857 q 171 663 192 737 q 150 500 150 589 q 151 461 150 482 q 155 415 152 441 q 232 496 180 450 q 363 582 302 558 q 474 613 417 602 q 583 629 506 619 q 705 647 659 638 q 819 682 780 661 q 880 765 880 713 q 860 812 880 800 q 841 817 854 817 q 829 814 833 817 q 817 808 821 808 q 814 814 814 808 q 816 826 814 815 q 833 848 819 837 q 865 860 847 860 q 910 839 894 860 q 926 789 926 817 m 662 1085 q 645 1046 662 1062 q 604 1031 628 1031 q 564 1047 580 1031 q 548 1088 548 1064 q 565 1127 548 1111 q 606 1143 582 1143 q 646 1126 629 1143 q 662 1085 662 1109 m 456 1085 q 439 1046 456 1062 q 397 1031 422 1031 q 358 1047 374 1031 q 342 1088 342 1064 q 359 1127 342 1111 q 400 1143 376 1143 q 439 1126 423 1143 q 456 1085 456 1109 z "},"":{"ha":937,"x_min":61,"x_max":926,"o":"m 926 789 q 891 690 926 732 q 783 613 855 648 q 654 571 728 587 q 524 549 616 563 q 391 524 432 534 q 256 456 321 505 q 168 366 201 414 q 288 146 189 244 q 533 38 397 38 q 698 75 631 38 q 765 174 765 113 q 761 208 765 193 q 753 233 756 222 q 753 240 751 237 q 761 243 755 243 q 796 224 779 240 q 819 170 819 201 q 720 28 819 83 q 507 -22 630 -22 q 186 115 310 -22 q 61 479 61 254 q 191 822 61 677 q 517 970 325 970 q 662 937 602 970 q 730 840 730 901 q 710 786 730 808 q 656 758 690 764 q 650 758 654 758 q 642 758 644 758 q 618 760 629 758 q 601 768 608 762 q 595 774 595 770 q 601 783 595 779 q 619 798 614 792 q 633 834 631 812 q 634 839 634 837 q 634 844 634 842 q 587 903 634 881 q 498 921 548 921 q 354 889 420 921 q 239 795 289 857 q 171 663 192 737 q 150 500 150 589 q 151 461 150 482 q 155 415 152 441 q 232 496 180 450 q 363 582 302 558 q 474 613 417 602 q 583 629 506 619 q 705 647 659 638 q 819 682 780 661 q 880 765 880 713 q 860 812 880 800 q 841 817 854 817 q 829 814 833 817 q 817 808 821 808 q 814 814 814 808 q 816 826 814 815 q 833 848 819 837 q 865 860 847 860 q 910 839 894 860 q 926 789 926 817 m 553 1024 q 544 1011 549 1016 q 534 1010 539 1006 q 487 1037 504 1027 q 397 1086 418 1076 q 315 1132 353 1111 q 279 1152 284 1149 q 274 1157 274 1154 q 281 1166 274 1160 q 291 1177 288 1173 q 301 1191 297 1185 l 320 1225 q 328 1229 323 1229 q 334 1226 331 1229 q 433 1138 351 1208 q 511 1070 441 1131 q 549 1035 535 1049 q 553 1024 555 1029 z "},"":{"ha":366,"x_min":83,"x_max":412,"o":"m 279 15 q 281 11 281 14 q 282 7 282 9 q 270 0 282 0 q 230 2 263 -1 q 183 4 196 4 q 118 1 161 4 q 95 0 102 -1 q 83 8 83 0 q 85 14 83 12 q 115 37 87 16 q 136 66 136 54 l 136 883 q 115 912 136 896 q 85 936 100 924 q 84 944 83 939 q 95 949 85 949 q 136 948 102 950 q 183 945 170 945 q 238 947 210 945 q 270 949 267 949 q 282 942 282 949 q 279 935 282 938 q 252 912 278 932 q 231 883 231 896 l 231 66 q 251 38 231 54 q 279 15 278 17 m 407 1152 q 372 1133 399 1148 q 289 1087 317 1102 q 235 1058 260 1072 q 152 1010 225 1053 q 142 1011 147 1006 q 133 1024 137 1016 q 137 1035 131 1029 q 190 1082 150 1048 q 254 1138 230 1116 q 308 1185 273 1154 q 353 1226 343 1217 q 359 1229 355 1229 q 366 1225 363 1229 l 385 1191 q 397 1175 391 1181 q 406 1166 401 1171 q 412 1157 412 1160 q 407 1152 412 1154 z "}}}
